<svg width="24" height="24" viewBox="0 0 24 24" fill="none" xmlns="http://www.w3.org/2000/svg">
<rect width="24" height="24" rx="12" fill="#005FAF"/>
<g clip-path="url(#clip0_3910_15769)">
<path d="M12.7603 11.6869C13.8973 11.1712 14.0654 9.48828 12.4482 9.48828H10.5753L9.88314 10.8454H10.2089L9.38098 14.089H11.5524C13.1366 14.1026 13.8491 12.2372 12.7603 11.6869ZM11.5524 12.9083H11.0096L11.2131 12.1755H11.7288C12.3396 12.2976 11.9596 12.9354 11.5524 12.9083ZM11.8782 11.3476H11.4167L11.5524 10.7097H12.0681C12.5664 10.8319 12.136 11.3747 11.8782 11.3476Z" fill="white"/>
<path d="M17.2064 11.2219L17.9174 9.96669L16.9553 9.46484L16.8298 9.61973C16.3108 9.34499 13.593 9.72433 13.4229 12.4053C13.5246 14.6543 16.0447 14.2497 16.2919 14.107L16.985 12.6742C16.3061 13.1214 14.9162 13.336 14.8574 11.9929C14.9793 10.8853 16.287 10.4716 17.2064 11.2219ZM20.7544 9.48858H18.5686L17.8738 10.8051H18.2307L16.5835 14.0893H18.1779L18.5053 13.2972H19.484L19.5084 14.0893H20.9762L20.7544 9.48858ZM18.9487 12.2306L19.484 10.9529L19.5084 12.2306H18.9487Z" fill="white"/>
<path d="M7.10429 13.8691L7.1892 13.8445L7.09608 13.7158L7.10429 13.8691ZM5.71028 13.8472L5.69386 13.9623C5.73612 13.9581 5.78815 13.9946 5.80889 13.913C5.80733 13.8494 5.75892 13.8459 5.71028 13.8472ZM6.38678 13.8445C6.37973 13.8132 6.35358 13.7901 6.28816 13.8117L6.31007 13.9294C6.36382 13.9175 6.39145 13.8857 6.38678 13.8445ZM4.85855 13.7482L4.8324 13.8528C4.87443 13.8545 4.92365 13.8886 4.95155 13.8266C4.95342 13.7878 4.95502 13.7491 4.85855 13.7482ZM6.32926 14.0171L6.34844 14.1376C6.39331 14.1387 6.43425 14.1117 6.42238 14.0554C6.41094 14.0013 6.36545 14.0098 6.32926 14.0171Z" fill="white"/>
<path d="M8.11037 9.55043C6.66013 8.81163 4.92815 8.83218 3.54636 9.51821C2.83383 10.7726 2.81114 12.5276 3.54636 14.082C5.06867 14.8524 6.75236 14.8016 8.12108 14.1142C8.76434 12.7945 8.87058 11.2065 8.11037 9.55043ZM5.66107 13.2959L5.57511 13.2969C5.55382 13.0593 5.49704 12.8597 5.37524 12.7069C4.8167 12.0065 3.67493 12.5338 3.96831 11.3435C4.12086 10.7349 5.86086 10.376 5.66107 13.2959ZM3.97037 12.1202C4.09233 12.3685 4.85643 12.4091 5.12167 12.5991C5.54242 12.9005 5.48202 13.297 5.48202 13.297H5.38279C5.18744 12.6982 4.63917 13.1723 4.20001 13.0111C3.9243 12.913 3.72412 12.4879 3.97037 12.1202ZM5.36252 14.0722L5.40361 13.7463L5.47755 13.7518L5.44467 14.1106C5.41151 14.2686 5.17588 14.2475 5.14615 14.0969L5.18448 13.7244L5.27212 13.7381L5.23379 14.0503C5.23865 14.1536 5.34228 14.1474 5.36252 14.0722ZM4.96905 14.1612L4.88476 14.1409C4.89464 14.0712 4.97726 13.9295 4.81397 13.9295L4.76852 14.1147L4.67551 14.0973L4.77432 13.6526C5.01582 13.6789 5.03695 13.7461 5.04174 13.8183C5.03221 13.8742 5.0173 13.9133 4.96909 13.9229C5.02551 13.9741 4.96975 14.0814 4.96905 14.1612ZM4.4337 13.6632C4.41046 13.694 4.36396 13.8017 4.35723 13.8875C4.35007 13.9784 4.43743 13.9593 4.45918 13.9486C4.47674 13.9401 4.48977 13.8671 4.48977 13.8671L4.4286 13.8467L4.44899 13.7855L4.58667 13.8314L4.5204 14.0609L4.46432 14.0455L4.46942 14.0098C4.40077 14.0411 4.27512 14.0177 4.26037 13.9385C4.24562 13.8748 4.29029 13.6819 4.36233 13.5918C4.43233 13.5042 4.6029 13.5898 4.60706 13.6428C4.61119 13.6956 4.59037 13.755 4.59037 13.755L4.52616 13.7428C4.52616 13.7428 4.53009 13.7238 4.53569 13.6937C4.54161 13.6619 4.4586 13.63 4.4337 13.6632ZM5.6857 14.0366L5.66928 14.2338L5.60083 14.2311L5.62546 13.7627C5.79642 13.7663 5.89441 13.7899 5.89114 13.9107C5.88094 14.0756 5.74738 14.0385 5.6857 14.0366ZM5.85611 13.297H5.74159C5.73143 12.8914 5.80941 12.1496 5.59632 11.6036C5.43486 11.1898 5.02625 11.0036 4.9357 10.6693C4.79234 10.1401 5.03633 9.56755 5.85611 9.52346C6.56682 9.59643 6.78517 10.1451 6.66395 10.6559C6.45552 11.1667 6.24705 11.0933 5.98753 11.6021C5.77556 12.1475 5.85627 12.862 5.85611 13.297ZM7.12626 14.0476L7.04683 14.0749L7.02216 13.6039L7.11528 13.5793L7.34535 13.9681L7.28234 14.0092L7.20564 13.8997L7.11801 13.9326L7.12626 14.0476ZM6.19965 13.297H6.10805C6.18354 12.2554 7.49245 12.4817 7.61207 12.1202C7.81894 12.4785 7.74457 12.7807 7.52856 12.9356C6.99177 13.3206 6.47704 12.6506 6.19965 13.297ZM6.68535 13.823L6.72644 14.0394C6.75201 14.0892 6.76937 14.08 6.80859 14.075C6.85409 14.0421 6.84459 14.01 6.83599 13.9682L6.91542 13.9572C6.93612 14.114 6.8616 14.13 6.80587 14.1407C6.68636 14.1493 6.66294 14.126 6.6306 13.9709C6.61176 13.8382 6.57923 13.698 6.69084 13.6724C6.87405 13.6444 6.86323 13.7269 6.87981 13.7847L6.80038 13.7984C6.7877 13.7488 6.76945 13.7291 6.72917 13.7327C6.69247 13.7496 6.67741 13.7769 6.68535 13.823ZM6.51829 14.0476C6.5221 14.1158 6.49895 14.1611 6.45529 14.1763L6.26904 14.2146L6.1951 13.7627C6.23331 13.7565 6.42069 13.6879 6.46622 13.8121C6.48867 13.8879 6.4654 13.9151 6.43882 13.949C6.48922 13.9652 6.50622 14.0044 6.51829 14.0476ZM6.04002 11.7799C6.45494 10.6116 7.40434 10.8181 7.61491 11.3435C7.90339 12.3978 6.97449 12.1087 6.37948 12.541C6.15459 12.7366 6.03625 12.961 6.0345 13.3012H5.93254C5.92643 12.616 5.91534 12.1309 6.04002 11.7799Z" fill="white"/>
</g>
<defs>
<clipPath id="clip0_3910_15769">
<rect width="18" height="5.6448" fill="white" transform="translate(3 9)"/>
</clipPath>
</defs>
</svg>
