<svg width="24" height="24" viewBox="0 0 24 24" fill="none" xmlns="http://www.w3.org/2000/svg">
<rect width="24" height="24" rx="12" fill="#0A55A0"/>
<path d="M16.8831 5C16.9229 5.00994 16.9527 5.02981 16.9825 5.02981C17.3799 5.02981 17.7277 5.16891 18.0555 5.38749C18.3039 5.55639 18.5126 5.76504 18.6616 6.02336C18.8702 6.35123 18.9895 6.73872 18.9994 7.1262V16.8233C19.0193 17.6678 18.5424 18.4428 17.7873 18.8104C17.5488 18.9296 17.3004 18.9992 17.0421 19.0091C16.8732 19.019 16.7043 19.029 16.5453 19.029H7.17612C6.17263 19.0389 5.2983 18.3434 5.06978 17.3697C5.0201 17.181 5.00023 16.9823 5.00023 16.7935V7.2355C4.9903 6.54994 5.2983 5.90413 5.83482 5.47691C6.08321 5.2782 6.38127 5.1391 6.69921 5.06955C6.78863 5.04968 6.88799 5.03974 6.9774 5.02981L7.1165 5H16.8831ZM13.366 12.0145L13.6441 12.3126L14.8762 13.5545L16.3864 15.0945L17.3104 16.0384L17.4197 16.1278V16.0086V7.17588C17.3898 6.93743 17.2905 6.71885 17.1415 6.54001C16.9527 6.30156 16.6745 6.14259 16.3665 6.12272C16.0684 6.09291 15.7704 6.10284 15.4723 6.09291C15.4425 6.09291 15.4127 6.09291 15.3729 6.10285L15.4325 6.2022C15.7207 6.67911 15.8896 7.22556 15.9194 7.79189C15.9393 8.06015 15.9194 8.31847 15.8796 8.57679C15.83 8.92454 15.7306 9.28222 15.5716 9.60015C15.4822 9.77899 15.3829 9.93796 15.2537 10.087C15.1146 10.236 14.9656 10.3751 14.8265 10.5242L14.2701 11.0905L13.4454 11.9151C13.4653 11.9052 13.366 12.0145 13.366 12.0145ZM11.508 6.10285L11.5378 6.1724C11.6173 6.33136 11.7167 6.4804 11.7862 6.6493C11.9352 6.99704 12.0247 7.36466 12.0346 7.74221C12.0346 7.81176 12.0545 7.87137 12.0545 7.93098C12.0545 7.98066 12.0545 8.04027 12.0545 8.08995C12.0545 8.16944 12.0445 8.23899 12.0346 8.30854C12.0247 8.41783 12.0247 8.51718 12.0048 8.61653C11.965 8.82518 11.9154 9.04376 11.8458 9.24248C11.7763 9.45112 11.6769 9.65977 11.5577 9.84854C11.4385 10.0174 11.3093 10.1665 11.1702 10.3155C10.8622 10.6434 10.5443 10.9514 10.2363 11.2793L9.57058 11.9648L9.53084 12.0244L9.60039 12.1039L10.1866 12.7L11.051 13.5644C11.359 13.8724 11.5875 14.24 11.7266 14.6474C11.816 14.8958 11.8856 15.1541 11.9154 15.4224C11.9253 15.5515 11.9551 15.6906 11.9551 15.8297C11.975 16.1377 11.9154 16.4358 11.8259 16.7239C11.7365 17.0617 11.6173 17.3896 11.4782 17.7175C11.4583 17.7771 11.4385 17.8466 11.3987 17.9261H16.0784C16.2075 17.9261 16.3367 17.9261 16.4758 17.9063C16.6149 17.8864 16.754 17.8466 16.8732 17.7572C16.8036 17.6777 16.744 17.6082 16.6844 17.5386L15.5816 16.4159L14.3794 15.1939L13.1971 13.9917C12.8791 13.6638 12.5612 13.3359 12.2333 13.008L11.3391 12.1039L11.2596 12.0145C11.5179 11.7562 11.7763 11.4879 12.0247 11.2296C12.3724 10.862 12.7301 10.5043 13.0878 10.1367L13.9621 9.24248C14.2204 8.97422 14.3893 8.62647 14.4291 8.25886C14.4589 8.04028 14.4589 7.81176 14.4092 7.59318C14.3396 7.27524 14.2005 6.97717 13.982 6.72878C13.8031 6.53007 13.5945 6.37111 13.3461 6.26181C13.0977 6.16246 12.8294 6.10285 12.5612 6.11278C12.2432 6.10285 11.9253 6.11278 11.6173 6.11278L11.508 6.10285ZM7.32515 12.0642C7.34502 12.0344 7.35496 12.0244 7.36489 12.0145L7.99083 11.3786L9.36193 9.99758L10.0674 9.27228C10.4846 8.84505 10.6734 8.24892 10.5641 7.66273C10.5045 7.27524 10.3157 6.90762 10.0375 6.62943C9.68981 6.27175 9.2129 6.08297 8.71612 6.09291C8.35844 6.09291 7.99083 6.09291 7.63315 6.11278C7.28541 6.12272 6.95753 6.32143 6.77869 6.61949C6.62966 6.83808 6.57005 7.0964 6.57005 7.35472V16.7239C6.57005 17.0617 6.69921 17.3797 6.9476 17.6082C7.19599 17.8466 7.50399 17.9361 7.8418 17.9361L8.36838 17.9261C8.56709 17.9261 8.75587 17.8963 8.94464 17.8367C9.2129 17.7572 9.46129 17.638 9.67987 17.4691C9.91832 17.2903 10.117 17.0518 10.2561 16.7835C10.4449 16.4259 10.4846 16.0384 10.4151 15.641C10.3754 15.3528 10.2462 15.0746 10.0674 14.8461C9.91832 14.6573 9.74942 14.4884 9.58051 14.3195C9.16322 13.8824 8.73599 13.4551 8.30877 13.0279L7.32515 12.0642Z" fill="white"/>
</svg>
