<svg width="24" height="24" viewBox="0 0 24 24" fill="none" xmlns="http://www.w3.org/2000/svg">
<g clip-path="url(#clip0_272_884)">
<rect width="24" height="24" fill="white"/>
<path fill-rule="evenodd" clip-rule="evenodd" d="M11.0497 0.0435827C7.00539 0.421804 3.73143 2.52193 1.74475 5.76666C0.457468 7.87674 -0.150699 10.365 0.0317513 12.933C0.498012 19.2035 5.98164 24.5085 12.9958 23.9611C19.3005 23.4634 24.4902 17.8996 23.9631 11.0618C23.7705 8.55355 22.8785 6.49324 21.4595 4.62205C20.8108 3.77603 20.6891 3.76607 20.0201 3.0793C19.1788 2.22333 17.4152 1.23796 16.2901 0.800025C14.7899 0.212787 12.8641 -0.125621 11.0497 0.0435827Z" fill="#108DE8"/>
<path fill-rule="evenodd" clip-rule="evenodd" d="M6.0733 9.21671C5.9466 9.58837 6.02262 13.685 6.02262 14.4453C6.02262 15.2646 5.86213 15.5264 7.14604 15.9657C10.5585 17.1313 13.9288 13.1782 17.3159 15.1294C17.468 15.2224 17.6622 15.4082 17.7045 15.1125L17.7129 9.83333C17.7129 9.26739 17.7636 9.09001 17.3835 8.82816C14.3511 6.71647 11.0738 10.3317 7.99916 9.92624C6.85885 9.7742 6.38583 9.19137 6.0733 9.21671Z" fill="white"/>
</g>
<defs>
<clipPath id="clip0_272_884">
<rect width="24" height="24" fill="white"/>
</clipPath>
</defs>
</svg>
