<svg width="24" height="24" viewBox="0 0 24 24" fill="none" xmlns="http://www.w3.org/2000/svg">
<g clip-path="url(#clip0_3910_14651)">
<circle cx="12" cy="12" r="12" fill="white"/>
<path fill-rule="evenodd" clip-rule="evenodd" d="M9.93555 0.151709C11.1871 -0.0529194 12.4712 -0.0291943 13.7287 0.0968448C14.8946 0.338543 16.0708 0.608415 17.1406 1.14964C19.3054 2.18613 21.1481 3.86616 22.376 5.93468C23.3941 7.84603 24.0945 9.99018 23.9896 12.1803C24.0192 16.6762 21.1806 20.96 17.1599 22.8714C14.5533 24.1155 11.5211 24.286 8.73569 23.6039C6.85167 23.0226 5.03414 22.0825 3.66139 20.6383C2.35366 19.4209 1.36658 17.8698 0.740052 16.2002C-0.0770957 14.1465 -0.150979 11.863 0.196272 9.69954C0.831667 6.48629 2.81026 3.53994 5.61043 1.83174C6.91373 0.970222 8.41208 0.458651 9.93555 0.151709ZM8.2628 5.92129C7.32005 6.01767 6.29012 6.34982 5.7685 7.20392C5.19224 8.022 5.13211 9.04523 5.07499 10.0173C5.0703 10.0971 5.06563 10.1766 5.0607 10.2556C5.04895 10.5008 5.02713 10.7456 5.00532 10.9906C4.9613 11.4847 4.91726 11.9791 4.95579 12.4768C4.98451 12.8129 5.00478 13.1501 5.02505 13.4873C5.0757 14.3299 5.12638 15.1729 5.30895 16C5.53503 17.0424 6.47039 17.8505 7.5018 18.0403C9.42405 18.3881 11.3823 18.3575 13.3287 18.3271H13.3287L13.3316 18.3271C13.5089 18.3243 13.6861 18.3216 13.8631 18.3191C14.6596 18.2746 15.4561 18.1931 16.2437 18.067C17.4228 17.9128 18.4646 16.949 18.6582 15.7627C18.9965 14.3081 19.0571 12.8075 18.9566 11.3232C18.7675 10.3712 18.0966 9.51266 17.1849 9.1642C16.7742 8.96504 16.3186 8.96626 15.8716 8.96745H15.8715C15.7927 8.96766 15.7143 8.96787 15.6363 8.96699C14.7572 8.96807 13.8781 8.96758 12.999 8.96708C11.4608 8.96623 9.92283 8.96537 8.38544 8.97292C8.2087 8.97616 8.04374 8.91552 7.88026 8.85541C7.81959 8.83311 7.75912 8.81088 7.69833 8.79201C7.6939 8.45986 7.70572 7.96312 8.1505 7.95423C9.30863 7.92799 10.4679 7.93572 11.627 7.94345C13.1537 7.95364 14.6801 7.96382 16.2038 7.8964C16.0383 7.12533 15.5698 6.32016 14.763 6.10664C14.0346 5.91091 13.2809 5.81156 12.5318 5.74187C12.3181 5.7392 12.1041 5.73509 11.8899 5.73099C10.6763 5.70771 9.45725 5.68434 8.2628 5.92129ZM16.5141 12.3983C16.1255 12.293 15.66 12.4472 15.5241 12.8491C15.4387 13.3117 15.5754 13.7574 15.7113 14.2001C15.7683 14.3861 15.8252 14.5715 15.8654 14.7575C15.9097 14.7834 15.9762 14.822 16.0428 14.8605C16.1092 14.8991 16.1757 14.9376 16.22 14.9636C16.3722 14.8746 16.5274 14.7945 16.6884 14.7248C16.7058 14.3335 16.7998 13.9571 16.8937 13.5809C16.9354 13.414 16.9771 13.2471 17.0121 13.0789C16.9397 12.8016 16.7579 12.5481 16.5141 12.3983Z" fill="#01ACD7"/>
</g>
<defs>
<clipPath id="clip0_3910_14651">
<rect width="24" height="24" fill="white"/>
</clipPath>
</defs>
</svg>
