<svg width="24" height="24" viewBox="0 0 24 24" fill="none" xmlns="http://www.w3.org/2000/svg">
<rect width="24" height="24" rx="12" fill="#80838B"/>
<g clip-path="url(#clip0_3910_15161)">
<path d="M11.6555 5.07074C11.8742 4.97642 12.1258 4.97642 12.3445 5.07074L18.4695 7.69582C18.8523 7.86016 19.0656 8.27032 18.9808 8.675C18.8988 9.08243 18.5406 9.35039 18.1004 9.375V9.59375C18.1004 9.95743 17.8324 10.25 17.4441 10.25H6.50663C6.16866 10.25 5.85038 9.95743 5.85038 9.59375V9.375C5.45963 9.35039 5.10138 9.08243 5.01783 8.675C4.93431 8.27032 5.14843 7.86016 5.53018 7.69582L11.6555 5.07074ZM12 8.5C12.484 8.5 12.875 8.10899 12.875 7.625C12.875 7.14184 12.484 6.75 12 6.75C11.516 6.75 11.125 7.14184 11.125 7.625C11.125 8.10899 11.516 8.5 12 8.5ZM8.47538 16.375H9.56913V11.125H11.3191V16.375H12.6562V11.125H14.4062V16.375H15.5V11.125H17.25V16.4926C17.2664 16.5008 17.2828 16.4871 17.2992 16.5227L18.6117 17.3977C18.9316 17.6109 19.0738 18.0102 18.9617 18.3793C18.8496 18.7484 18.5105 19 18.125 19H5.85038C5.48944 19 5.14923 18.7484 5.0375 18.3793C4.92575 18.0102 5.06875 17.6109 5.38963 17.3977L6.70213 16.5227C6.71772 16.4871 6.73385 16.5008 6.72538 16.4926V11.125H8.47538V16.375Z" fill="white"/>
</g>
<defs>
<clipPath id="clip0_3910_15161">
<rect width="14" height="14" fill="white" transform="translate(5 5)"/>
</clipPath>
</defs>
</svg>
