<svg width="24" height="24" viewBox="0 0 24 24" fill="none" xmlns="http://www.w3.org/2000/svg">
<rect width="24" height="24" rx="12" fill="#0D2B5B"/>
<g clip-path="url(#clip0_3910_21918)">
<path d="M3.02117 12.6015C3.02117 12.3412 3.01663 12.1232 3.00256 11.9282H3.49494L3.51831 12.2628H3.53196C3.64342 12.0862 3.84773 11.8769 4.22864 11.8769C4.52601 11.8769 4.75804 12.0444 4.85564 12.295H4.86515C4.94415 12.1697 5.03679 12.0767 5.1435 12.0119C5.26902 11.9234 5.41336 11.8769 5.59886 11.8769C5.97522 11.8769 6.35572 12.1323 6.35572 12.8573V14.1899H5.79841V12.9404C5.79841 12.5645 5.66834 12.3411 5.39434 12.3411C5.19933 12.3411 5.0552 12.4809 4.99502 12.6435C4.97828 12.7055 4.9689 12.7693 4.9671 12.8335V14.1901H4.40979V12.8798C4.40979 12.5647 4.28448 12.3414 4.01957 12.3414C3.80637 12.3414 3.66244 12.5089 3.61074 12.6664C3.58779 12.7223 3.57828 12.7876 3.57828 12.8521V14.1901H3.02117V12.6015ZM8.52726 13.6468C8.52726 13.851 8.53657 14.0505 8.55952 14.1901H8.04399L8.00697 13.9395H7.99291C7.85353 14.1161 7.61654 14.241 7.32455 14.241C6.86919 14.241 6.6138 13.9115 6.6138 13.5676C6.6138 12.9959 7.11962 12.7084 7.9561 12.713V12.6759C7.9561 12.5271 7.89551 12.281 7.49598 12.281C7.27285 12.281 7.04083 12.3509 6.8876 12.4481L6.77614 12.0765C6.94343 11.9741 7.23604 11.8767 7.59338 11.8767C8.3182 11.8767 8.52747 12.337 8.52747 12.8288L8.52726 13.6468ZM7.96975 13.085C7.56547 13.0755 7.18021 13.1638 7.18021 13.5075C7.18021 13.7304 7.32455 13.8328 7.5055 13.8328C7.73276 13.8328 7.90027 13.6837 7.95134 13.5213C7.96385 13.4807 7.97013 13.4385 7.96995 13.396L7.96975 13.085ZM8.92183 12.6015C8.92183 12.3412 8.91707 12.1232 8.90363 11.9282H9.40469L9.4324 12.2677H9.44646C9.54386 12.0909 9.79015 11.8769 10.1663 11.8769C10.5613 11.8769 10.9697 12.1323 10.9697 12.848V14.1899H10.3985V12.9129C10.3985 12.5879 10.2776 12.3409 9.96655 12.3409C9.73928 12.3409 9.58088 12.5037 9.5207 12.6757C9.50209 12.7266 9.49754 12.7965 9.49754 12.861V14.1897H8.92162L8.92183 12.6015ZM13.4467 11.0195V13.5538C13.4467 13.786 13.4562 14.0373 13.4653 14.1901H12.9547L12.9313 13.8328H12.9218C12.7874 14.0834 12.513 14.2412 12.1836 14.2412C11.6447 14.2412 11.2177 13.7815 11.2177 13.0852C11.2127 12.3279 11.6862 11.8771 12.2301 11.8771C12.5411 11.8771 12.7641 12.0072 12.8662 12.1751H12.8759V11.0197H13.4469L13.4467 11.0195ZM12.8757 12.871C12.8757 12.8248 12.8712 12.769 12.8617 12.7223C12.8106 12.4998 12.6298 12.3184 12.3695 12.3184C12.0026 12.3184 11.7979 12.6437 11.7979 13.0662C11.7979 13.4791 12.0024 13.7813 12.3649 13.7813C12.5968 13.7813 12.8013 13.6231 12.8569 13.377C12.871 13.3261 12.8759 13.2701 12.8759 13.2099L12.8757 12.871ZM13.8508 14.1901V11.9282H14.4271V14.1901H13.8508ZM14.8307 12.6575C14.8307 12.3511 14.8264 12.1325 14.8126 11.9284H15.3095L15.3277 12.36H15.3465C15.458 12.0396 15.7224 11.9284 15.9646 11.9284C16.0202 11.9284 16.0525 11.9189 16.0988 11.9284V12.4303C16.044 12.4182 15.9881 12.4119 15.9319 12.4117C15.6573 12.4117 15.4716 12.5883 15.4207 12.8432C15.4095 12.9016 15.4033 12.9608 15.4023 13.0203V14.1903H14.8307V12.6575ZM16.3639 14.1901V11.9282H16.9394V14.1901H16.3639Z" fill="white"/>
<path d="M20.5244 9.53642C20.2392 9.21113 19.9361 9.35837 19.6951 9.4781C19.5938 9.52815 18.8624 9.94277 18.8624 9.94277C18.4616 10.108 18.1496 9.92767 18.0271 9.77588C18.0154 9.76149 18.0048 9.74621 17.9955 9.73018L17.967 9.68076C17.9187 9.59734 17.8651 9.51714 17.8065 9.44067C17.7709 9.39432 17.7324 9.35032 17.6911 9.30894C17.4169 9.03205 16.9787 8.83828 16.2462 9.19024C15.8994 9.39125 14.7697 10.0367 14.7697 10.0367C14.3452 10.2114 14.0205 9.9986 13.915 9.84247C13.9103 9.83663 13.9061 9.83032 13.9026 9.82365L13.8888 9.80008L13.8172 9.68303C13.7849 9.63176 13.7503 9.58201 13.7134 9.53394C13.6775 9.48788 13.6389 9.44397 13.5978 9.40241C13.3255 9.12717 12.8896 8.93382 12.1635 9.27917C11.7245 9.5298 10.7033 10.1136 10.7033 10.1136L10.7029 10.114L9.95557 10.541L10.3423 11.0158C10.505 11.1709 10.8109 11.4253 11.284 11.2108C11.284 11.2108 12.5899 10.4546 12.5951 10.4523C13.7116 9.83958 14.2625 10.425 14.5061 10.8152C14.5145 10.8274 14.5214 10.8407 14.529 10.8525L14.5294 10.8531C14.5325 10.8578 14.5344 10.8622 14.5371 10.8667L14.5646 10.9118C14.6833 11.0917 14.8704 11.2079 15.0936 11.2026C15.2166 11.2001 15.3001 11.16 15.4217 11.0923L16.6853 10.3595L16.6879 10.3582C17.8185 9.73804 18.3787 10.3617 18.6179 10.752C18.6366 10.7857 18.6577 10.8179 18.6794 10.8479C18.7979 11.0086 18.9612 11.1138 19.1688 11.1087C19.306 11.106 19.4596 11.0237 19.4826 11.0086L20.9973 10.1343C20.9977 10.1347 20.843 9.90079 20.5244 9.53642Z" fill="#FDD213"/>
</g>
<defs>
<clipPath id="clip0_3910_21918">
<rect width="18" height="5.2416" fill="white" transform="translate(3 9)"/>
</clipPath>
</defs>
</svg>
