<svg width="24" height="24" viewBox="0 0 24 24" fill="none" xmlns="http://www.w3.org/2000/svg">
<rect width="24" height="24" rx="12" fill="#EA2F2A"/>
<path d="M18.4959 7.33114C20.9238 10.7093 20.3575 15.3848 17.1934 18.0854C14.0292 20.7861 9.32356 20.6102 6.36974 17.6809H16.1807L5.89522 17.1679L16.7621 17.0994L5.39078 16.5066L9.75975 16.4396C9.75975 16.4396 9.78177 16.4402 9.82317 16.4405L9.91803 16.4404C10.4657 16.4361 12.3285 16.3595 13.8195 15.5617V15.5674C14.101 15.4222 14.3649 15.2453 14.6061 15.04C14.7602 14.9096 14.9032 14.7666 15.0336 14.6125C16.209 13.2384 16.3171 11.2468 15.2973 9.75355C14.2775 8.26032 12.3833 7.63659 10.676 8.23187L7.88876 5.13919C11.4565 3.00003 16.068 3.953 18.4959 7.33114ZM6.92548 14.9089L7.36865 15.3764H10.9311L10.1502 16.2016H5.76555C5.62469 15.7426 5.22045 15.4143 4.74242 15.3707H4.73815C4.66975 15.2196 4.59565 15.0657 4.5415 14.9089H6.92548ZM4.14251 10.5036L8.00703 11.859V12.0015C8.00543 12.9151 8.31842 13.8014 8.89337 14.5113C8.58493 13.8765 8.41954 13.1818 8.40888 12.4761C8.40912 12.3199 8.41816 12.1638 8.43595 12.0086L12.5684 13.4581V14.641L4.4446 14.6438C4.14929 13.7957 3.99899 12.9039 4.00001 12.0058C3.99945 11.5017 4.04717 10.9987 4.14251 10.5036ZM9.23394 10.039L12.5669 12.1227V13.317L8.47442 11.7493C8.58937 11.1273 8.8496 10.5413 9.23394 10.039ZM10.857 8.79197L12.5669 10.5393V11.9602L9.39496 9.84234C9.79688 9.38644 10.2967 9.02736 10.857 8.79197ZM5.31668 7.60906L8.71952 9.72405C8.33787 10.2741 8.10025 10.9111 8.02841 11.5768L8.02413 11.5825L4.22373 10.1274C4.44042 9.23128 4.81017 8.37933 5.31668 7.60906ZM7.51542 5.38147L10.4053 8.33733C9.81109 8.59566 9.28875 8.99481 8.88339 9.50029L5.55181 7.27698C6.09266 6.53706 6.75691 5.89585 7.51542 5.38147Z" fill="white"/>
</svg>
