<svg width="32" height="32" viewBox="0 0 32 32" fill="none" xmlns="http://www.w3.org/2000/svg">
<rect width="32" height="32" rx="10" fill="#F3F4FB"/>
<path d="M14.2608 14.8039C14.3845 15.4227 13.9112 16 13.2802 16L9.7198 16C9.08876 16 8.61546 15.4227 8.73922 14.8039L9.13922 12.8039C9.23271 12.3365 9.64312 12 10.1198 12L12.8802 12C13.3569 12 13.7673 12.3365 13.8608 12.8039L14.2608 14.8039Z" stroke="#EA2F2A" stroke-width="1.4"/>
<path d="M23.2608 14.8039C23.3845 15.4227 22.9112 16 22.2802 16L18.7198 16C18.0888 16 17.6155 15.4227 17.7392 14.8039L18.1392 12.8039C18.2327 12.3365 18.6431 12 19.1198 12L21.8802 12C22.3569 12 22.7673 12.3365 22.8608 12.8039L23.2608 14.8039Z" stroke="#EA2F2A" stroke-width="1.4"/>
<path d="M19.2136 8.77277C19.36 9.40001 18.8839 10 18.2398 10L13.7602 10C13.1161 10 12.64 9.40001 12.7864 8.77277L13.253 6.77277C13.3586 6.32018 13.7621 6 14.2269 6L17.7731 6C18.2379 6 18.6414 6.32018 18.747 6.77277L19.2136 8.77277Z" stroke="#EA2F2A" stroke-width="1.4"/>
<path d="M6.5 16L8.51735 20.7779C8.83007 21.5186 9.55589 22 10.3599 22H21.6401C22.4441 22 23.1699 21.5186 23.4826 20.7779L25.5 16" stroke="#202020" stroke-width="1.4"/>
<path d="M10.5 25L21.5 25" stroke="#202020" stroke-width="1.4" stroke-linecap="square"/>
</svg>
