<svg width="32" height="32" viewBox="0 0 32 32" fill="none" xmlns="http://www.w3.org/2000/svg">
<rect width="32" height="32" rx="10" fill="#F3F4FB"/>
<path d="M25 16C25 14.072 24.3809 12.195 23.2338 10.6454C22.0868 9.09581 20.4725 7.95549 18.6286 7.39241C16.7847 6.82932 14.8087 6.87324 12.9916 7.51768C11.1746 8.16213 9.61247 9.37304 8.53541 10.9721" stroke="#202020" stroke-width="1.4"/>
<path d="M8.90919 7.89989L8.27279 11.0819L11.4548 10.4455" stroke="#202020" stroke-width="1.4" stroke-linecap="round" stroke-linejoin="round"/>
<path d="M18.0587 10.6001L18.7481 10.722C18.7991 10.4333 18.6649 10.1434 18.4117 9.99561C18.1586 9.84779 17.8401 9.87336 17.6138 10.0597L18.0587 10.6001ZM17.1713 15.6181L16.482 15.4962C16.4486 15.6853 16.4943 15.8798 16.6084 16.0343C16.7226 16.1887 16.8952 16.2894 17.0858 16.3129L17.1713 15.6181ZM11.5 16.0001L11.0551 15.4597C10.839 15.6376 10.7497 15.927 10.8279 16.1957C10.9061 16.4644 11.1368 16.6607 11.4145 16.6949L11.5 16.0001ZM14.6037 16.3821L15.293 16.504C15.3264 16.3149 15.2807 16.1204 15.1666 15.9659C15.0524 15.8115 14.8798 15.7108 14.6892 15.6873L14.6037 16.3821ZM13.7162 21.4001L13.0269 21.2782C12.9759 21.5669 13.1101 21.8568 13.3633 22.0046C13.6164 22.1524 13.9349 22.1268 14.1612 21.9405L13.7162 21.4001ZM20.275 16.0001L20.7199 16.5405C20.936 16.3626 21.0253 16.0732 20.9471 15.8045C20.8689 15.5358 20.6382 15.3395 20.3605 15.3053L20.275 16.0001ZM17.3694 10.4782L16.482 15.4962L17.8606 15.74L18.7481 10.722L17.3694 10.4782ZM11.9449 16.5405L18.5037 11.1405L17.6138 10.0597L11.0551 15.4597L11.9449 16.5405ZM14.6892 15.6873L11.5855 15.3053L11.4145 16.6949L14.5182 17.0768L14.6892 15.6873ZM14.4056 21.522L15.293 16.504L13.9144 16.2602L13.0269 21.2782L14.4056 21.522ZM19.8301 15.4597L13.2713 20.8597L14.1612 21.9405L20.7199 16.5405L19.8301 15.4597ZM17.0858 16.3129L20.1895 16.6949L20.3605 15.3053L17.2568 14.9233L17.0858 16.3129Z" fill="#EA2F2A"/>
<path d="M7 16C7 17.928 7.61911 19.805 8.76616 21.3546C9.9132 22.9042 11.5275 24.0445 13.3714 24.6076C15.2153 25.1707 17.1913 25.1268 19.0084 24.4823C20.8254 23.8379 22.3875 22.627 23.4646 21.0279" stroke="#202020" stroke-width="1.4"/>
<path d="M23.0908 24.1001L23.7272 20.9181L20.5452 21.5545" stroke="#202020" stroke-width="1.4" stroke-linecap="round" stroke-linejoin="round"/>
</svg>
