<svg width="32" height="32" viewBox="0 0 32 32" fill="none" xmlns="http://www.w3.org/2000/svg">
<rect width="32" height="32" rx="10" fill="#F3F4FB"/>
<path d="M20.5 14H22.5" stroke="#EA2F2A" stroke-width="1.4" stroke-linecap="square"/>
<path d="M20.5 18H22.5" stroke="#EA2F2A" stroke-width="1.4" stroke-linecap="square"/>
<path d="M23.5 21L22.6667 11H19.3333L18.5 21" stroke="#202020" stroke-width="1.4" stroke-linejoin="round"/>
<path d="M13 18H15" stroke="#EA2F2A" stroke-width="1.4" stroke-linecap="square"/>
<path d="M15.7916 20.5L15.1666 15H11.8333L11.2083 20.5" stroke="#202020" stroke-width="1.4" stroke-linejoin="round"/>
<path d="M8.5 21V20.3C8.1134 20.3 7.8 20.6134 7.8 21H8.5ZM24.5 21H25.2C25.2 20.6134 24.8866 20.3 24.5 20.3V21ZM24.5 27V27.7C24.8866 27.7 25.2 27.3866 25.2 27H24.5ZM8.5 27H7.8C7.8 27.3866 8.1134 27.7 8.5 27.7V27ZM8.5 21.7H24.5V20.3H8.5V21.7ZM23.8 21V27H25.2V21H23.8ZM24.5 26.3H8.5V27.7H24.5V26.3ZM9.2 27V21H7.8V27H9.2Z" fill="#202020"/>
<path d="M12.5 24H14.5" stroke="#EA2F2A" stroke-width="1.4" stroke-linecap="round" stroke-linejoin="round"/>
<path d="M7.5 27H25.5" stroke="#202020" stroke-width="1.4" stroke-linecap="square"/>
<path d="M17.5 9L15.5 9C14.3954 9 13.5 8.10457 13.5 7L13.5 6.5" stroke="#202020" stroke-width="1.4" stroke-linecap="square"/>
<path d="M16.5 6H17.5C19.7091 6 21.5 7.79086 21.5 10V11" stroke="#202020" stroke-width="1.4" stroke-linecap="square" stroke-linejoin="round"/>
</svg>
