<svg width="32" height="32" viewBox="0 0 32 32" fill="none" xmlns="http://www.w3.org/2000/svg">
<rect width="32" height="32" rx="10" fill="#F3F4FB"/>
<path d="M22.5 16L23.5 16" stroke="#EA2F2A" stroke-width="1.4" stroke-linecap="round" stroke-linejoin="round"/>
<path d="M19.5 13V12.3C19.1134 12.3 18.8 12.6134 18.8 13H19.5ZM26.5 13H27.2C27.2 12.6134 26.8866 12.3 26.5 12.3V13ZM23.5 24.3C23.1134 24.3 22.8 24.6134 22.8 25C22.8 25.3866 23.1134 25.7 23.5 25.7V24.3ZM19.5 13.7H26.5V12.3H19.5V13.7ZM25.8 13V24H27.2V13H25.8ZM25.5 24.3H23.5V25.7H25.5V24.3ZM20.2 16V13H18.8V16H20.2ZM25.8 24C25.8 24.1657 25.6657 24.3 25.5 24.3V25.7C26.4389 25.7 27.2 24.9389 27.2 24H25.8Z" fill="#202020"/>
<path d="M14.5 16.5V13L17 9.5L19.5 13V16.5" stroke="#202020" stroke-width="1.4" stroke-linejoin="round"/>
<path d="M17.0715 7V6.3C16.6849 6.3 16.3715 6.6134 16.3715 7H17.0715ZM23.9287 7H24.6287C24.6287 6.6134 24.3153 6.3 23.9287 6.3V7ZM17.0715 9.5H16.3715C16.3715 9.64263 16.4151 9.78186 16.4964 9.89905L17.0715 9.5ZM19.5 13L18.9249 13.399C19.0557 13.5875 19.2706 13.7 19.5 13.7V13ZM26.5 13V13.7C26.7639 13.7 27.0054 13.5516 27.1245 13.3161C27.2437 13.0807 27.2204 12.7982 27.0641 12.5855L26.5 13ZM23.9287 9.50002H23.2287C23.2287 9.64911 23.2763 9.79431 23.3645 9.91446L23.9287 9.50002ZM17.0715 7.7H23.9287V6.3H17.0715V7.7ZM17.7715 9.5V7H16.3715V9.5H17.7715ZM20.0751 12.6009L17.6467 9.10095L16.4964 9.89905L18.9249 13.399L20.0751 12.6009ZM26.5 12.3H19.5V13.7H26.5V12.3ZM23.3645 9.91446L25.9359 13.4144L27.0641 12.5855L24.4928 9.08557L23.3645 9.91446ZM23.2287 7V9.50002H24.6287V7H23.2287Z" fill="#202020"/>
<path d="M16.5 20.5C16.5 19.1193 15.6046 18 14.5 18C13.3954 18 12.5 19.1193 12.5 20.5" stroke="#EA2F2A" stroke-width="1.4"/>
<path d="M20.5 20.5C20.5 19.1193 19.6046 18 18.5 18C17.3954 18 16.5 19.1193 16.5 20.5" stroke="#EA2F2A" stroke-width="1.4"/>
<path d="M12.5 20.5C12.5 19.1193 11.6046 18 10.5 18C9.39543 18 8.5 19.1193 8.5 20.5" stroke="#EA2F2A" stroke-width="1.4"/>
<path d="M7.5 21H21.5L20.8787 23.4851C20.6561 24.3754 19.8562 25 18.9384 25H10.0616C9.14382 25 8.34385 24.3754 8.12127 23.4851L7.5 21Z" stroke="#202020" stroke-width="1.4" stroke-linejoin="round"/>
<path d="M6.5 22H7.5" stroke="#202020" stroke-width="1.4" stroke-linecap="round" stroke-linejoin="round"/>
<path d="M21.5 22H22.5" stroke="#202020" stroke-width="1.4" stroke-linecap="round" stroke-linejoin="round"/>
</svg>
