<svg width="32" height="32" viewBox="0 0 32 32" fill="none" xmlns="http://www.w3.org/2000/svg">
<rect width="32" height="32" rx="10" fill="#F3F4FB"/>
<g clip-path="url(#clip0_1293_55791)">
<path d="M24.625 5L25.2604 6.16183C25.4227 6.45843 25.6665 6.70229 25.9631 6.8645L27.125 7.5L25.9632 8.13538C25.6666 8.29761 25.4227 8.5415 25.2604 8.83813L24.625 10L23.9896 8.83813C23.8273 8.5415 23.5835 8.29761 23.2868 8.13538L22.125 7.5L23.2869 6.8645C23.5835 6.70229 23.8273 6.45843 23.9896 6.16183L24.625 5Z" stroke="#EA2F2A" stroke-width="1.4" stroke-linejoin="round"/>
<path d="M19.4444 10H10.5556L5 16.1818L15 27.0001L25 16.1818L19.4444 10Z" stroke="#202020" stroke-width="1.4" stroke-linejoin="round"/>
<path d="M16.2222 10H13.7778L10 16.1818L15 27L20 16.1818L16.2222 10Z" stroke="#202020" stroke-width="1.4" stroke-linejoin="round"/>
<path d="M11 16L17 16" stroke="#202020" stroke-width="1.4" stroke-linecap="round" stroke-linejoin="round"/>
<path d="M6 16L8 16" stroke="#202020" stroke-width="1.4" stroke-linecap="round" stroke-linejoin="round"/>
<path d="M20 16L22 16" stroke="#202020" stroke-width="1.4" stroke-linecap="round" stroke-linejoin="round"/>
</g>
<defs>
<clipPath id="clip0_1293_55791">
<rect width="24" height="24" fill="white" transform="translate(4 4)"/>
</clipPath>
</defs>
</svg>
