<svg width="32" height="32" viewBox="0 0 32 32" fill="none" xmlns="http://www.w3.org/2000/svg">
<rect width="32" height="32" rx="10" fill="#F3F4FB"/>
<path d="M7 19H10" stroke="#202020" stroke-width="1.4" stroke-linecap="square" stroke-linejoin="round"/>
<path d="M22 14H25" stroke="#202020" stroke-width="1.4" stroke-linecap="square" stroke-linejoin="round"/>
<path d="M7 7.5H11.3944C11.7893 7.5 12.1753 7.61688 12.5038 7.8359L14.4962 9.1641C14.8247 9.38312 15.2107 9.5 15.6056 9.5H19" stroke="#202020" stroke-width="1.4" stroke-linecap="square" stroke-linejoin="round"/>
<path d="M13 22H15.3944C15.7893 22 16.1753 22.1169 16.5038 22.3359L18.4962 23.6641C18.8247 23.8831 19.2107 24 19.6056 24H23.5" stroke="#202020" stroke-width="1.4" stroke-linecap="square" stroke-linejoin="round"/>
<circle cx="23.5" cy="8.5" r="1.5" stroke="#EA2F2A" stroke-width="1.4"/>
<circle cx="8.5" cy="23.5" r="1.5" transform="rotate(180 8.5 23.5)" stroke="#EA2F2A" stroke-width="1.4"/>
<path d="M10.5 12.5H11.7639C11.9192 12.5 12.0723 12.5361 12.2111 12.6056L13 13" stroke="#202020" stroke-width="1.4" stroke-linecap="round" stroke-linejoin="round"/>
<circle cx="8.5" cy="12.5" r="1.5" stroke="#202020" stroke-width="1.4"/>
<path d="M21.5 19.5H20.2361C20.0808 19.5 19.9277 19.4639 19.7889 19.3944L19 19" stroke="#202020" stroke-width="1.4" stroke-linecap="round" stroke-linejoin="round"/>
<circle cx="23.5" cy="19.5" r="1.5" transform="rotate(180 23.5 19.5)" stroke="#202020" stroke-width="1.4"/>
<rect x="13" y="13" width="6" height="6" rx="1" stroke="#EA2F2A" stroke-width="1.4"/>
</svg>
