<svg width="25" height="24" viewBox="0 0 25 24" fill="none" xmlns="http://www.w3.org/2000/svg">
<path fill-rule="evenodd" clip-rule="evenodd" d="M10.1115 7.49961L10.2671 6.09961H17.9337L17.7782 7.49961H10.1115ZM9.75595 10.6996L9.9115 9.29962H17.5782L17.4226 10.6996H9.75595ZM9.40039 13.8996L9.55595 12.4996H17.2226L17.0671 13.8996H9.40039Z" fill="#80838B"/>
<path d="M6 16.5L6.5 12L7.30232 4.77914C7.41486 3.76627 8.27099 3 9.29009 3H19.2655C20.4575 3 21.3849 4.03613 21.2532 5.22086L19.7965 18.3313C19.6277 19.8506 18.3435 21 16.8149 21H16" stroke="#80838B" stroke-width="1.4"/>
<path d="M3.5 17H14.1L14.6392 19.1567C14.91 20.24 15.8834 21 17 21V21H6.06155C5.14382 21 4.34385 20.3754 4.12127 19.4851L3.5 17Z" stroke="#80838B" stroke-width="1.4" stroke-linejoin="round"/>
</svg>
