<svg width="24" height="24" viewBox="0 0 24 24" fill="none" xmlns="http://www.w3.org/2000/svg">
<path fill-rule="evenodd" clip-rule="evenodd" d="M22.2858 12C22.2858 6.31936 17.6807 1.71429 12.0001 1.71429C6.31943 1.71429 1.71436 6.31936 1.71436 12C1.71436 17.6806 6.31943 22.2857 12.0001 22.2857C17.6807 22.2857 22.2858 17.6806 22.2858 12ZM3.85721 12C3.85721 7.50283 7.50289 3.85714 12.0001 3.85714C16.4972 3.85714 20.1429 7.50283 20.1429 12C20.1429 16.4972 16.4972 20.1429 12.0001 20.1429C7.50289 20.1429 3.85721 16.4972 3.85721 12Z" fill="#313131"/>
<path fill-rule="evenodd" clip-rule="evenodd" d="M11.9365 6.21662C11.4961 6.24912 11.1489 6.61676 11.1489 7.0655L11.1485 11.1484L7.06555 11.1488L6.97239 11.1542C6.53543 11.2084 6.21436 11.5696 6.21436 12L6.21669 12.0635C6.24918 12.504 6.61682 12.8512 7.06557 12.8512L11.1485 12.8507L11.1489 16.9345L11.1542 17.0277C11.2085 17.4646 11.5697 17.7857 12.0001 17.7857L12.0636 17.7834C12.504 17.7509 12.8513 17.3832 12.8513 16.9345L12.8508 12.8507L16.9346 12.8512L17.0278 12.8458C17.4647 12.7916 17.7858 12.4304 17.7858 12L17.7835 11.9365C17.751 11.496 17.3833 11.1488 16.9346 11.1488L12.8508 11.1484L12.8513 7.0655L12.8459 6.97232C12.7916 6.53536 12.4305 6.21429 12.0001 6.21429L11.9365 6.21662Z" fill="#EB2629"/>
</svg>
