<svg width="24" height="24" viewBox="0 0 24 24" fill="none" xmlns="http://www.w3.org/2000/svg">
<path d="M7.70361 14.7704C7.80485 14.8113 7.91876 14.8115 8.02021 14.7712C8.12166 14.7308 8.20243 14.6531 8.24465 14.5552L8.82791 13.2012H11.0344L11.6176 14.5552C11.7056 14.7592 11.9478 14.8555 12.1587 14.7704C12.3695 14.6854 12.4692 14.4511 12.3812 14.2473L10.313 9.44725C10.2487 9.29825 10.0981 9.20117 9.93117 9.20117C9.76422 9.20117 9.61363 9.29825 9.54939 9.44725L7.48112 14.2473C7.43886 14.3452 7.43858 14.4553 7.48031 14.5534C7.52204 14.6515 7.60232 14.7296 7.70361 14.7704ZM9.93113 10.6412L10.6894 12.4012H9.1729L9.93113 10.6412Z" fill="#E30613"/>
<path fill-rule="evenodd" clip-rule="evenodd" d="M13.2408 14.0012C13.0123 14.0012 12.8271 14.1803 12.8271 14.4012C12.8271 14.6221 13.0123 14.8012 13.2408 14.8012H15.7227C15.9512 14.8012 16.1364 14.6221 16.1364 14.4012C16.1364 14.1803 15.9512 14.0012 15.7227 14.0012H14.8954V10.0012H15.7227C15.9512 10.0012 16.1364 9.82211 16.1364 9.60118C16.1364 9.38025 15.9512 9.20117 15.7227 9.20117H13.2408C13.0123 9.20117 12.8271 9.38025 12.8271 9.60118C12.8271 9.82211 13.0123 10.0012 13.2408 10.0012H14.0681V14.0012H13.2408Z" fill="#E30613"/>
<path d="M0.00298665 17.6C0.00298665 18.4837 0.743799 19.2 1.65759 19.2C1.86485 19.1992 2.07007 19.1604 2.26235 19.0856C3.24022 19.8096 4.62019 20.1872 6.31616 20.1872C6.57178 20.1872 6.83738 20.1756 7.10664 20.1588C8.30789 22.5324 10.0411 24 11.9989 24C13.9567 24 15.69 22.5324 16.8916 20.16C17.1613 20.1768 17.4265 20.1884 17.6821 20.1884C19.3781 20.1884 20.758 19.8108 21.7359 19.0868C21.9281 19.1611 22.1332 19.1996 22.3403 19.2C23.0706 19.198 23.7131 18.7332 23.9214 18.0563C24.1297 17.3794 23.8545 16.6506 23.2441 16.2628C23.302 14.9748 22.787 13.5132 21.7388 12C22.787 10.4872 23.302 9.02557 23.2441 7.73717C23.9592 7.29091 24.2063 6.39205 23.8147 5.66132C23.4231 4.93059 22.5211 4.6075 21.7318 4.91516C20.6079 4.08357 18.9483 3.71517 16.892 3.84477C15.6917 1.46921 13.9576 0 11.999 0C10.0403 0 8.30626 1.46921 7.1046 3.84481C5.04916 3.716 3.3904 4.08479 2.26483 4.9152C1.47594 4.61002 0.576315 4.93358 0.185371 5.66309C-0.205574 6.3926 0.0397892 7.28993 0.752511 7.73721C0.695435 9.02483 1.21083 10.4864 2.25905 12C1.21083 13.5132 0.695435 14.9748 0.753773 16.2628C0.285926 16.5573 0.00351589 17.0602 0.00298665 17.6ZM0.83031 17.6C0.83031 17.1582 1.2007 16.8 1.65763 16.8C2.11457 16.8 2.48496 17.1581 2.48496 17.6C2.48496 18.0419 2.11457 18.4 1.65763 18.4C1.4382 18.4 1.22777 18.3157 1.07262 18.1657C0.917471 18.0157 0.83031 17.8122 0.83031 17.6ZM7.61796 4.68801C8.71919 4.81552 9.80413 5.05101 10.8561 5.39083C10.1156 5.71037 9.39258 6.06628 8.68975 6.45724C7.98444 6.85087 7.30123 7.2804 6.64298 7.74402C6.85985 6.696 7.18655 5.67202 7.61796 4.68801ZM17.3545 7.74402C16.6965 7.28036 16.0134 6.85079 15.3082 6.45724C14.6064 6.06676 13.8846 5.71084 13.1456 5.39083C14.1964 5.05117 15.2802 4.81572 16.3804 4.68801C16.8115 5.67206 17.1379 6.696 17.3545 7.74402ZM16.38 19.312C15.2787 19.1845 14.1938 18.949 13.1419 18.6092C13.8823 18.2897 14.6053 17.9338 15.3082 17.5428C16.0135 17.1492 16.6967 16.7196 17.3549 16.256C17.1381 17.304 16.8114 18.328 16.38 19.312ZM14.8946 7.15041C15.8274 7.66954 16.7192 8.25473 17.5626 8.90121C17.7147 9.92759 17.7908 10.9632 17.7901 12C17.7909 13.0369 17.715 14.0725 17.563 15.0988C16.7194 15.7453 15.8275 16.3305 14.8946 16.8496C13.9646 17.3697 12.9969 17.824 11.999 18.2088C11.001 17.8238 10.0333 17.3693 9.10338 16.8488C8.17053 16.3297 7.27876 15.7445 6.43532 15.098C6.13251 13.0425 6.13251 10.9559 6.43532 8.90039C7.2788 8.25422 8.17061 7.66931 9.10338 7.15037C10.0341 6.62986 11.0027 6.17533 12.0014 5.79036C12.9985 6.17553 13.9655 6.63006 14.8946 7.15041ZM18.4933 9.65722C19.3184 10.3635 20.0677 11.1484 20.73 12C20.0686 12.8515 19.3203 13.6364 18.4963 14.3428C18.5775 13.5644 18.618 12.7824 18.6175 12C18.6177 11.2176 18.577 10.4357 18.4955 9.65722H18.4933ZM5.50459 14.3428C4.67934 13.6367 3.92998 12.8518 3.26794 12C3.92929 11.1486 4.67763 10.3637 5.50166 9.65722C5.33894 11.2151 5.33894 12.7849 5.50166 14.3428H5.50459ZM8.6922 17.5428C9.39401 17.9333 10.1158 18.2892 10.8548 18.6092C9.80393 18.9489 8.72013 19.1843 7.62 19.312C7.18871 18.328 6.86217 17.304 6.64543 16.256C7.30282 16.7196 7.98522 17.1492 8.68971 17.5428H8.6922ZM11.999 23.2C10.4453 23.2 9.03348 22.0084 7.9923 20.0756C9.36323 19.8877 10.7075 19.5489 11.999 19.066C13.2909 19.5492 14.6358 19.8879 16.0073 20.0756C14.964 22.0084 13.5526 23.2 11.999 23.2ZM22.3403 18.4C21.8834 18.4 21.513 18.0419 21.513 17.6C21.513 17.1581 21.8834 16.8 22.3403 16.8C22.7973 16.8 23.1677 17.1581 23.1677 17.6C23.1677 18.0419 22.7972 18.4 22.3403 18.4ZM22.4272 16.0084C22.3978 16.0084 22.3701 16 22.3403 16C21.4265 16 20.6857 16.7164 20.6857 17.6C20.6872 17.9577 20.8139 18.3044 21.0452 18.5836C20.1442 19.1584 18.8292 19.4316 17.254 19.3744C17.7669 18.1354 18.1304 16.8434 18.3374 15.524C19.4073 14.6909 20.3756 13.7426 21.2234 12.6976C21.9219 13.6782 22.3374 14.821 22.4272 16.0084ZM23.1676 6.4C23.1676 6.84181 22.7972 7.20001 22.3403 7.20001C21.8834 7.20001 21.513 6.84185 21.513 6.4C21.513 5.95814 21.8834 5.59998 22.3403 5.59998C22.7972 5.59998 23.1676 5.95818 23.1676 6.4ZM21.0452 5.41642C20.814 5.69564 20.6873 6.04231 20.6857 6.4C20.6857 7.28367 21.4265 7.99999 22.3403 7.99999C22.3701 7.99999 22.3978 7.99318 22.4272 7.9916C22.3375 9.17907 21.922 10.3219 21.2234 11.3024C20.3754 10.2573 19.407 9.30906 18.337 8.47601C18.1297 7.15651 17.7658 5.86449 17.2524 4.62561C18.8288 4.56802 20.1446 4.84 21.0452 5.41642ZM11.999 0.800014C13.5526 0.800014 14.9645 1.99161 16.0056 3.92441C14.6354 4.1125 13.2918 4.45122 12.001 4.93401C10.7091 4.45086 9.36425 4.11215 7.99275 3.92441C9.03388 1.99161 10.4453 0.800014 11.999 0.800014ZM1.65759 5.60002C2.11449 5.60002 2.48491 5.95818 2.48491 6.40004C2.48491 6.84189 2.11453 7.20005 1.65759 7.20005C1.20065 7.20005 0.830269 6.84189 0.830269 6.40004C0.830269 5.95818 1.2007 5.60002 1.65759 5.60002ZM1.57076 7.9916C1.60011 7.9916 1.62783 7.99999 1.65763 7.99999C2.57147 7.99999 3.31224 7.28363 3.31224 6.4C3.31069 6.04231 3.184 5.69561 2.95276 5.41642C3.85328 4.84162 5.16828 4.56881 6.74391 4.62561C6.23107 5.86457 5.86753 7.15659 5.66055 8.47601C4.59076 9.30906 3.62249 10.2572 2.77449 11.302C2.07581 10.3217 1.66028 9.17899 1.57076 7.9916ZM2.77449 12.698C3.6229 13.7428 4.59141 14.6909 5.66137 15.524C5.86858 16.8436 6.23238 18.1357 6.74557 19.3748C5.17121 19.4324 3.85536 19.1584 2.95443 18.5836C3.18506 18.3042 3.31114 17.9575 3.31224 17.6C3.31224 16.7163 2.57142 16 1.65763 16C1.62783 16 1.60015 16.0072 1.57076 16.0084C1.66044 14.8211 2.07593 13.6783 2.77449 12.698Z" fill="#E30613"/>
</svg>
