<svg width="16" height="16" viewBox="0 0 16 16" fill="none" xmlns="http://www.w3.org/2000/svg">
<path fill-rule="evenodd" clip-rule="evenodd" d="M5.58177 3.5952C5.25074 3.94053 5.25074 4.49823 5.58177 4.84357L8.60422 8.02209L5.58177 11.1563C5.25074 11.5017 5.25074 12.0594 5.58177 12.4047C5.74209 12.5723 5.96032 12.6666 6.18797 12.6666C6.41563 12.6666 6.63385 12.5723 6.79417 12.4047L10.4143 8.65071C10.5759 8.48447 10.6668 8.25817 10.6668 8.02209C10.6668 7.78602 10.5759 7.55972 10.4143 7.39347L6.79417 3.5952C6.63385 3.42756 6.41563 3.33329 6.18797 3.33329C5.96032 3.33329 5.74209 3.42756 5.58177 3.5952Z" fill="#EA2F2A"/>
</svg>
