<svg width="25" height="24" viewBox="0 0 25 24" fill="none" xmlns="http://www.w3.org/2000/svg">
<g clip-path="url(#clip0_3776_31113)">
<path d="M13.6965 18.8965L12.9036 19.6894C12.5679 20.0251 12.0251 20.0251 11.6929 19.6894L4.75008 12.7501C4.41436 12.4144 4.41436 11.8715 4.75008 11.5394L11.6929 4.59651C12.0286 4.2608 12.5715 4.2608 12.9036 4.59651L13.6965 5.38937C14.0358 5.72866 14.0286 6.28223 13.6822 6.61437L9.37865 10.7144H19.6429C20.1179 10.7144 20.5001 11.0965 20.5001 11.5715V12.7144C20.5001 13.1894 20.1179 13.5715 19.6429 13.5715H9.37865L13.6822 17.6715C14.0322 18.0037 14.0394 18.5572 13.6965 18.8965Z" fill="#202020"/>
</g>
<defs>
<clipPath id="clip0_3776_31113">
<rect width="16" height="18.2857" fill="white" transform="translate(4.5 3)"/>
</clipPath>
</defs>
</svg>
