<svg width="12" height="12" viewBox="0 0 12 12" fill="none" xmlns="http://www.w3.org/2000/svg">
<g clip-path="url(#clip0_4801_44579)">
<path d="M6 11.002C6.65673 11.0028 7.30715 10.8738 7.91388 10.6225C8.52062 10.3712 9.07171 10.0024 9.5355 9.53746C10.0005 9.07366 10.3692 8.52257 10.6205 7.91583C10.8719 7.3091 11.0008 6.65868 11 6.00196C11.0008 5.34523 10.8719 4.69481 10.6205 4.08808C10.3692 3.48134 10.0005 2.93025 9.5355 2.46646C9.07171 2.0015 8.52062 1.63276 7.91388 1.38144C7.30715 1.13011 6.65673 1.00115 6 1.00196C5.34328 1.00115 4.69286 1.13011 4.08613 1.38144C3.47939 1.63276 2.9283 2.0015 2.4645 2.46646C1.99954 2.93025 1.63081 3.48134 1.37948 4.08808C1.12816 4.69481 0.999194 5.34523 1 6.00196C0.999194 6.65868 1.12816 7.3091 1.37948 7.91583C1.63081 8.52257 1.99954 9.07366 2.4645 9.53746C2.9283 10.0024 3.47939 10.3712 4.08613 10.6225C4.69286 10.8738 5.34328 11.0028 6 11.002Z" stroke="#BEC3D0" stroke-width="1.16667" stroke-linejoin="round"/>
<path fill-rule="evenodd" clip-rule="evenodd" d="M6 9.25195C6.16576 9.25195 6.32473 9.18611 6.44194 9.0689C6.55915 8.95169 6.625 8.79271 6.625 8.62695C6.625 8.46119 6.55915 8.30222 6.44194 8.18501C6.32473 8.0678 6.16576 8.00195 6 8.00195C5.83424 8.00195 5.67527 8.0678 5.55806 8.18501C5.44085 8.30222 5.375 8.46119 5.375 8.62695C5.375 8.79271 5.44085 8.95169 5.55806 9.0689C5.67527 9.18611 5.83424 9.25195 6 9.25195Z" fill="#BEC3D0"/>
<path d="M6 3.00195V7.00195" stroke="#BEC3D0" stroke-width="1.16667" stroke-linecap="round" stroke-linejoin="round"/>
</g>
<defs>
<clipPath id="clip0_4801_44579">
<rect width="12" height="12" fill="white"/>
</clipPath>
</defs>
</svg>
