<svg width="81" height="80" viewBox="0 0 81 80" fill="none" xmlns="http://www.w3.org/2000/svg">
<path opacity="0.1" d="M40.5 0C62.576 0 80.5 17.924 80.5 40C80.5 62.076 62.576 80 40.5 80C18.424 80 0.5 62.076 0.5 40C0.5 17.924 18.424 0 40.5 0Z" fill="#25C36B"/>
<path d="M39.7977 16.9048C52.6377 16.9048 63.0627 27.3298 63.0627 40.1698C63.0627 53.0098 52.6377 63.4348 39.7977 63.4348C26.9578 63.4348 16.5327 53.0098 16.5327 40.1698C16.5327 27.3298 26.9578 16.9048 39.7977 16.9048Z" fill="#25C36B"/>
<path d="M57.0936 28.3725C57.0936 27.8806 57.4928 27.4814 57.9847 27.4814C58.4766 27.4814 58.8758 27.8806 58.8758 28.3725V29.2636H59.7668C60.2587 29.2636 60.6579 29.6628 60.6579 30.1546C60.6579 30.6465 60.2587 31.0457 59.7668 31.0457H58.8758V31.9368C58.8758 32.4286 58.4766 32.8278 57.9847 32.8278C57.4928 32.8278 57.0936 32.4286 57.0936 31.9368V31.0457H56.2026C55.7107 31.0457 55.3115 30.6465 55.3115 30.1546C55.3115 29.6628 55.7107 29.2636 56.2026 29.2636H57.0936V28.3725Z" fill="white"/>
<path d="M36.2717 44.4038L48.5746 32.1009C48.7938 31.8817 49.1493 31.8817 49.3685 32.1009L50.6917 33.4233C50.9109 33.6425 50.9109 33.998 50.6917 34.2172L36.6682 48.2399C36.449 48.4591 36.0943 48.4591 35.8751 48.2399L29.6341 41.9997C29.4149 41.7805 29.4149 41.425 29.6341 41.2058L30.9574 39.8835C31.1766 39.6643 31.5321 39.6643 31.7513 39.8835L36.2717 44.4038Z" fill="white"/>
<path d="M49.9647 25.6982C50.9483 25.6982 51.7469 26.4968 51.7469 27.4804C51.7469 28.4639 50.9483 29.2625 49.9647 29.2625C48.9812 29.2625 48.1826 28.4639 48.1826 27.4804C48.1826 26.4968 48.9812 25.6982 49.9647 25.6982Z" fill="white"/>
</svg>
