<svg width="24" height="24" viewBox="0 0 24 24" fill="none" xmlns="http://www.w3.org/2000/svg">
<circle cx="12" cy="12" r="10" transform="rotate(-180 12 12)" fill="white"/>
<path fill-rule="evenodd" clip-rule="evenodd" d="M22 12C22 17.5229 17.5229 22 12 22C9.3478 22 6.8043 20.9464 4.9289 19.0711C3.0536 17.1957 2 14.6522 2 12C2 6.4772 6.4772 2 12 2C17.5229 2 22 6.4772 22 12ZM20 12C20 7.5817 16.4183 4 12 4C9.8783 4 7.8434 4.8429 6.3431 6.3431C4.8429 7.8434 4 9.8783 4 12C4 16.4183 7.5817 20 12 20C16.4183 20 20 16.4183 20 12Z" fill="#D3D8E5"/>
</svg>
