<svg width="18" height="18" viewBox="0 0 18 18" fill="none" xmlns="http://www.w3.org/2000/svg">
<path d="M9 16.5001C13.1421 16.5001 16.5 13.1423 16.5 9.00012C16.5 4.85799 13.1421 1.50012 9 1.50012C4.85786 1.50012 1.5 4.85799 1.5 9.00012C1.5 13.1423 4.85786 16.5001 9 16.5001Z" fill="#BEC3D0"/>
<path fill-rule="evenodd" clip-rule="evenodd" d="M12.0354 5.25C12.2258 5.25 12.4083 5.32576 12.5424 5.46045C12.8192 5.73795 12.8192 6.18612 12.5424 6.46362L10.0147 9.01779L12.5424 11.5364C12.8192 11.8139 12.8192 12.2621 12.5424 12.5395C12.4083 12.6742 12.2258 12.75 12.0354 12.75C11.845 12.75 11.6625 12.6742 11.5284 12.5395L8.99984 10.02L6.47156 12.5395C6.35664 12.655 6.20614 12.7272 6.04559 12.7454L5.9646 12.75C5.77421 12.75 5.59171 12.6742 5.45763 12.5395C5.18079 12.2621 5.18079 11.8139 5.45763 11.5364L7.9853 9.01779L5.45763 6.46362C5.18079 6.18612 5.18079 5.73795 5.45763 5.46045C5.59171 5.32576 5.77421 5.25 5.9646 5.25C6.15498 5.25 6.33748 5.32576 6.47156 5.46045L8.99984 8.00942L11.5284 5.46045C11.6625 5.32576 11.845 5.25 12.0354 5.25Z" fill="white"/>
</svg>
