<svg width="24" height="24" viewBox="0 0 24 24" fill="none" xmlns="http://www.w3.org/2000/svg">
<path fill-rule="evenodd" clip-rule="evenodd" d="M17.5347 20.7H8.59028C6.73782 20.7 5.23611 19.1554 5.23611 17.25V5.75C5.23611 5.11487 4.73554 4.6 4.11806 4.6C3.50057 4.6 3 5.11487 3 5.75V17.25C3 20.4256 5.50285 23 8.59028 23H17.5347C18.1522 23 18.6528 22.4851 18.6528 21.85C18.6528 21.2149 18.1522 20.7 17.5347 20.7ZM22.125 8.981C22.1134 8.87536 22.0909 8.77127 22.0579 8.6705V8.567C22.0042 8.44876 21.9325 8.34006 21.8455 8.245L15.1372 1.345C15.0447 1.25555 14.9391 1.18179 14.8241 1.1265H14.7235L14.3657 1H9.82639C7.97393 1 6.47222 2.54462 6.47222 4.45V15.95C6.47222 17.8554 7.97393 19.4 9.82639 19.4H18.7708C20.6233 19.4 22.125 17.8554 22.125 15.95V9.05C22.125 9.05 22.125 9.05 22.125 8.981ZM15.4167 4.9215L18.3124 7.9H16.5347C15.9172 7.9 15.4167 7.38513 15.4167 6.75V4.9215ZM19.8889 15.95C19.8889 16.5851 19.3883 17.1 18.7708 17.1H9.82639C9.2089 17.1 8.70833 16.5851 8.70833 15.95V4.45C8.70833 3.81487 9.2089 3.3 9.82639 3.3H13.1806V6.75C13.1806 8.65538 14.6823 10.2 16.5347 10.2H19.8889V15.95Z" fill="#202020"/>
<path fill-rule="evenodd" clip-rule="evenodd" d="M17.5347 20.7001H8.59028C6.73782 20.7001 5.23611 19.1555 5.23611 17.2501V5.7501C5.23611 5.11497 4.73554 4.6001 4.11806 4.6001C3.50057 4.6001 3 5.11497 3 5.7501V17.2501C3 20.4257 5.50285 23.0001 8.59028 23.0001H17.5347C18.1522 23.0001 18.6528 22.4852 18.6528 21.8501C18.6528 21.215 18.1522 20.7001 17.5347 20.7001Z" fill="#EA2F2A"/>
</svg>
