<svg width="25" height="24" viewBox="0 0 25 24" fill="none" xmlns="http://www.w3.org/2000/svg">
<path d="M12.5 6.65625C12.3438 6.5 12.125 6.5 11.9688 6.65625L7.34375 11.2188C7.1875 11.375 7.1875 11.625 7.34375 11.75L7.96875 12.375C8.125 12.5312 8.34375 12.5312 8.5 12.375L12.25 8.6875L15.9688 12.375C16.125 12.5312 16.375 12.5312 16.5 12.375L17.125 11.75C17.2812 11.625 17.2812 11.375 17.125 11.2188L12.5 6.65625ZM11.9688 11.6562L7.34375 16.2188C7.1875 16.375 7.1875 16.625 7.34375 16.75L7.96875 17.375C8.125 17.5312 8.34375 17.5312 8.5 17.375L12.25 13.6875L15.9688 17.375C16.125 17.5312 16.375 17.5312 16.5 17.375L17.125 16.75C17.2812 16.625 17.2812 16.375 17.125 16.2188L12.5 11.6562C12.3438 11.5 12.125 11.5 11.9688 11.6562Z" fill="#313131"/>
</svg>
