<svg width="25" height="24" viewBox="0 0 25 24" fill="none" xmlns="http://www.w3.org/2000/svg">
<path d="M12.2188 17.375C12.375 17.5312 12.5938 17.5312 12.75 17.375L17.375 12.7812C17.5312 12.6562 17.5312 12.4062 17.375 12.25L16.75 11.6562C16.625 11.5 16.375 11.5 16.2188 11.6562L12.5 15.3438L8.75 11.6562C8.59375 11.5 8.375 11.5 8.21875 11.6562L7.59375 12.25C7.4375 12.4062 7.4375 12.6562 7.59375 12.7812L12.2188 17.375ZM12.75 12.375L17.375 7.78125C17.5312 7.65625 17.5312 7.40625 17.375 7.25L16.75 6.65625C16.625 6.5 16.375 6.5 16.2188 6.65625L12.5 10.3438L8.75 6.65625C8.59375 6.5 8.375 6.5 8.21875 6.65625L7.59375 7.25C7.4375 7.40625 7.4375 7.65625 7.59375 7.78125L12.2188 12.375C12.375 12.5312 12.5938 12.5312 12.75 12.375Z" fill="#313131"/>
</svg>
