<svg width="24" height="24" viewBox="0 0 24 24" fill="none" xmlns="http://www.w3.org/2000/svg">
<path fill-rule="evenodd" clip-rule="evenodd" d="M6.01452 17.0603V12.8049C6.01298 12.5381 6.11771 12.2817 6.30558 12.0923L13.2708 5.13715L16.101 2.29687C16.2895 2.10687 16.546 2 16.8136 2C17.0812 2 17.3377 2.10687 17.5262 2.29687L21.7816 6.60245C21.9716 6.7909 22.0784 7.04742 22.0784 7.31503C22.0784 7.58263 21.9716 7.83916 21.7816 8.0276L18.9312 10.8177L11.9861 17.7729C11.7967 17.9607 11.5403 18.0655 11.2736 18.0639H7.01815C6.46386 18.0639 6.01452 17.6146 6.01452 17.0603ZM20.0654 13.0458C20.0654 12.4915 20.5147 12.0421 21.069 12.0421C21.6233 12.0421 22.0726 12.4915 22.0726 13.0458V19.0675C22.0726 20.7304 20.7246 22.0784 19.0617 22.0784H5.01089C3.34802 22.0784 2 20.7304 2 19.0675V5.01671C2 3.35384 3.34802 2.00582 5.01089 2.00582H11.0327C11.587 2.00582 12.0363 2.45516 12.0363 3.00945C12.0363 3.56374 11.587 4.01308 11.0327 4.01308H5.01089C4.4566 4.01308 4.00726 4.46242 4.00726 5.01671V19.0675C4.00726 19.6218 4.4566 20.0712 5.01089 20.0712H19.0617C19.616 20.0712 20.0654 19.6218 20.0654 19.0675V13.0458ZM19.6539 7.26484L16.8136 4.42457L15.3884 5.84972L18.2287 8.69L19.6539 7.26484ZM13.9733 7.26484L8.02178 13.2164V16.0566H10.8621L16.8136 10.1051L13.9733 7.26484Z" fill="#202020"/>
</svg>
