<svg width="201" height="200" viewBox="0 0 201 200" fill="none" xmlns="http://www.w3.org/2000/svg">
<path fill-rule="evenodd" clip-rule="evenodd" d="M47.8117 24.058C47.7549 23.4643 47.2548 23 46.6463 23C45.9997 23 45.4756 23.5242 45.4756 24.1707V25.3415H44.1629C43.5163 25.3415 42.9922 25.8656 42.9922 26.5122C42.9922 27.1207 43.4565 27.6208 44.0502 27.6776L44.1629 27.6829H45.4756V28.8537L45.4809 28.9664C45.5376 29.5601 46.0377 30.0244 46.6463 30.0244C47.2929 30.0244 47.817 29.5002 47.817 28.8537V27.6829H49.1297C49.7762 27.6829 50.3004 27.1588 50.3004 26.5122C50.3004 25.9037 49.8361 25.4036 49.2424 25.3468L49.1297 25.3415H47.817V24.1707L47.8117 24.058Z" fill="#EA2F2A"/>
<path fill-rule="evenodd" clip-rule="evenodd" d="M170.701 166.887C170.643 166.099 169.985 165.479 169.183 165.479C168.342 165.479 167.661 166.16 167.661 167V169.771H164.89C164.05 169.771 163.368 170.453 163.368 171.293C163.368 172.095 163.989 172.753 164.777 172.811L164.89 172.815H167.661V175.586L167.665 175.699C167.723 176.487 168.381 177.108 169.183 177.108C170.023 177.108 170.705 176.426 170.705 175.586V172.815H173.476C174.316 172.815 174.998 172.134 174.998 171.293C174.998 170.491 174.377 169.833 173.589 169.775L173.476 169.771H170.705V167L170.701 166.887Z" fill="#EA2F2A"/>
<path fill-rule="evenodd" clip-rule="evenodd" d="M20.5 128.756C20.5 130.479 21.8986 131.878 23.622 131.878C25.3468 131.878 26.7439 130.479 26.7439 128.756C26.7439 127.031 25.3468 125.634 23.622 125.634C21.8986 125.634 20.5 127.031 20.5 128.756Z" fill="#EA2F2A"/>
<path fill-rule="evenodd" clip-rule="evenodd" d="M174.256 38.9999C174.256 40.7232 175.655 42.1218 177.378 42.1218C179.103 42.1218 180.5 40.7232 180.5 38.9999C180.5 37.275 179.103 35.8779 177.378 35.8779C175.655 35.8779 174.256 37.275 174.256 38.9999Z" fill="#EA2F2A"/>
<path fill-rule="evenodd" clip-rule="evenodd" d="M46.3049 85.6553L46.3049 91.5971C46.3049 98.4867 50.4212 104.698 56.7402 107.392L57.0334 107.513L100.298 125.025L143.312 107.524C149.684 104.932 153.883 98.7936 154.009 91.9365L154.012 91.6196L154.013 85.6558C158.711 88.7196 161.817 94.0217 161.817 100.049V144.537C161.817 154.02 154.129 161.708 144.646 161.708H55.6707C46.1876 161.708 38.5 154.02 38.5 144.537V100.049C38.5 94.0213 41.606 88.719 46.3049 85.6553ZM45.5244 107.82V144.537C45.5244 150.061 49.9382 154.553 55.4312 154.681L55.6707 154.683H144.646C150.17 154.683 154.663 150.269 154.79 144.776L154.793 144.537V107.842L154.787 107.848C152.467 110.415 149.582 112.501 146.271 113.902L145.959 114.031L100.305 132.605L54.3383 114L53.9856 113.853C50.7725 112.484 47.9651 110.47 45.6884 108L45.5244 107.82Z" fill="#202020"/>
<path fill-rule="evenodd" clip-rule="evenodd" d="M91.0375 58.0566C92.9772 58.0566 94.5497 59.6291 94.5497 61.5688C94.5497 63.4531 93.0658 64.9909 91.2028 65.0772L91.0375 65.081H78.0786C76.1389 65.081 74.5664 63.5086 74.5664 61.5688C74.5664 59.6845 76.0503 58.1468 77.9133 58.0605L78.0786 58.0566H91.0375Z" fill="#202020"/>
<path fill-rule="evenodd" clip-rule="evenodd" d="M144 71.2508H124.031C116.078 71.2508 109.631 64.8037 109.631 56.8508V42.0732L144 71.2508Z" fill="#EA2F2A"/>
<path fill-rule="evenodd" clip-rule="evenodd" d="M111.054 38.0179L65.6845 38C59.079 38 53.7195 43.3375 53.7195 49.9288V96.1463L53.7233 96.3117C53.8096 98.1746 55.3474 99.6585 57.2317 99.6585C59.1714 99.6585 60.7439 98.0861 60.7439 96.1463V49.9288L60.7471 49.7492C60.8423 47.1268 63.0127 45.0244 65.6831 45.0244L106.118 45.0399V60.0119L106.121 60.277C106.262 68.3015 112.811 74.7631 120.87 74.7631H137.67L137.67 96.5471L137.674 96.7125C137.761 98.5754 139.298 100.059 141.183 100.059C143.122 100.059 144.695 98.4869 144.695 96.5471V67.4112L111.054 38.0179ZM134.394 67.7387L113.143 49.1706V60.0119C113.143 64.207 116.486 67.6212 120.653 67.7357L120.87 67.7387H134.394Z" fill="#202020"/>
<path fill-rule="evenodd" clip-rule="evenodd" d="M119.209 80.501C121.149 80.501 122.721 82.0734 122.721 84.0132C122.721 85.8975 121.237 87.4352 119.374 87.5215L119.209 87.5254H78.0786C76.1389 87.5254 74.5664 85.9529 74.5664 84.0132C74.5664 82.1289 76.0503 80.5911 77.9133 80.5048L78.0786 80.501H119.209Z" fill="#EA2F2A"/>
<path fill-rule="evenodd" clip-rule="evenodd" d="M107.377 104.067C109.317 104.067 110.889 105.64 110.889 107.58C110.889 109.464 109.405 111.002 107.542 111.088L107.377 111.092H78.0786C76.1389 111.092 74.5664 109.519 74.5664 107.58C74.5664 105.695 76.0503 104.158 77.9133 104.071L78.0786 104.067H107.377Z" fill="#202020"/>
</svg>
