<svg width="59" height="44" viewBox="0 0 59 44" fill="none" xmlns="http://www.w3.org/2000/svg">
<rect y="4" width="56" height="40" rx="8" fill="#F3F4FB"/>
<path fill-rule="evenodd" clip-rule="evenodd" d="M52.2781 1.47955C52.6102 0.984795 53.2833 0.851102 53.7815 1.18094C53.9006 1.25979 54.0027 1.36128 54.0821 1.47955L55.406 3.4517L57.7135 4.10644C58.2892 4.2698 58.6225 4.86571 58.458 5.43745C58.4165 5.58168 58.3452 5.7157 58.2485 5.83093L56.5789 7.82064L56.8594 9.77089C56.9441 10.3595 56.5323 10.9049 55.9395 10.989C55.7009 11.0228 55.4577 10.9767 55.2484 10.858L53.1801 9.68424L51.1118 10.858C50.592 11.153 49.9298 10.9736 49.6327 10.4573C49.5131 10.2494 49.4667 10.0079 49.5008 9.77089L49.777 7.85018L47.8175 5.90415C47.3942 5.48369 47.3942 4.80199 47.8175 4.38153C47.9565 4.24354 48.1306 4.14566 48.3212 4.09833L50.9599 3.44318L52.2781 1.47955Z" fill="#FFB318"/>
<rect x="9" y="14" width="22" height="4" rx="2" fill="#BEC3D0"/>
<rect x="39" y="14" width="8" height="4" rx="2" fill="#BEC3D0"/>
<rect x="9" y="22" width="22" height="4" rx="2" fill="#BEC3D0"/>
<rect x="39" y="22" width="8" height="4" rx="2" fill="#BEC3D0"/>
<rect x="9" y="30" width="22" height="4" rx="2" fill="#BEC3D0"/>
<rect x="39" y="30" width="8" height="4" rx="2" fill="#BEC3D0"/>
</svg>
