<svg width="81" height="80" viewBox="0 0 81 80" fill="none" xmlns="http://www.w3.org/2000/svg">
<path opacity="0.1" d="M40.5 0C62.576 0 80.5 17.924 80.5 40C80.5 62.076 62.576 80 40.5 80C18.424 80 0.5 62.076 0.5 40C0.5 17.924 18.424 0 40.5 0Z" fill="#EA2F2A"/>
<path d="M39.7927 16.9561C52.6049 16.9561 63.0073 27.3585 63.0073 40.1706C63.0073 52.9828 52.6049 63.3852 39.7927 63.3852C26.9806 63.3852 16.5781 52.9828 16.5781 40.1706C16.5781 27.3585 26.9806 16.9561 39.7927 16.9561Z" fill="#EA2F2A"/>
<path d="M54.7764 48.3033C55.054 48.0257 55.5047 48.0257 55.7823 48.3033C56.06 48.581 56.06 49.0316 55.7823 49.3093L55.2794 49.8123L55.7823 50.3152C56.06 50.5929 56.06 51.0435 55.7823 51.3212C55.5047 51.5988 55.054 51.5988 54.7764 51.3212L54.2734 50.8182L53.7705 51.3212C53.4928 51.5988 53.0422 51.5988 52.7645 51.3212C52.4869 51.0435 52.4869 50.5929 52.7645 50.3152L53.2675 49.8123L52.7645 49.3093C52.4869 49.0316 52.4869 48.581 52.7645 48.3033C53.0422 48.0257 53.4928 48.0257 53.7705 48.3033L54.2734 48.8063L54.7764 48.3033Z" fill="white"/>
<path d="M48.5572 31.5652C48.2389 31.246 47.8068 31.0664 47.3551 31.0664C46.9034 31.0664 46.4722 31.246 46.1539 31.5652L40.1585 37.6086L34.163 31.5652C33.8447 31.246 33.4135 31.0664 32.9618 31.0664C32.5101 31.0664 32.078 31.246 31.7597 31.5652C31.1035 32.2232 31.1035 33.2857 31.7597 33.9436L37.7525 39.9995L31.7597 45.9718C31.1035 46.6298 31.1035 47.6923 31.7597 48.3503C32.078 48.6695 32.5101 48.8491 32.9618 48.8491L33.1539 48.8384C33.5344 48.7948 33.891 48.6241 34.163 48.3503L40.1585 42.3762L46.1539 48.3503C46.4722 48.6695 46.9034 48.8491 47.3551 48.8491C47.8068 48.8491 48.2389 48.6695 48.5572 48.3503C49.2134 47.6923 49.2134 46.6298 48.5572 45.9718L42.5645 39.9995L48.5572 33.9436C49.2134 33.2857 49.2134 32.2232 48.5572 31.5652Z" fill="white"/>
<path d="M31.2656 25.4351C31.9199 25.4351 32.4511 25.9663 32.4511 26.6206C32.4511 27.2749 31.9199 27.8061 31.2656 27.8061C30.6113 27.8061 30.0801 27.2749 30.0801 26.6206C30.0801 25.9663 30.6113 25.4351 31.2656 25.4351Z" fill="white"/>
</svg>
