<svg width="24" height="24" viewBox="0 0 24 24" fill="none" xmlns="http://www.w3.org/2000/svg">
<path fill-rule="evenodd" clip-rule="evenodd" d="M21.9165 11.6C19.8972 6.91 16.0986 4 12 4C7.90143 4 4.10275 6.91 2.08346 11.6C1.97218 11.8551 1.97218 12.1449 2.08346 12.4C4.10275 17.09 7.90143 20 12 20C16.0986 20 19.8972 17.09 21.9165 12.4C22.0278 12.1449 22.0278 11.8551 21.9165 11.6ZM12 18C8.78987 18 5.7519 15.71 4 12C5.7519 8.29 8.78987 6 12 6C15.2101 6 18.2481 8.29 20 12C18.2481 15.71 15.2101 18 12 18ZM12 8C9.79086 8 8 9.79086 8 12C8 14.2091 9.79086 16 12 16C14.2091 16 16 14.2091 16 12C16 10.9391 15.5786 9.92172 14.8284 9.17157C14.0783 8.42143 13.0609 8 12 8ZM12 14C10.8954 14 10 13.1046 10 12C10 10.8954 10.8954 10 12 10C13.1046 10 14 10.8954 14 12C14 13.1046 13.1046 14 12 14Z" fill="#202020"/>
<path fill-rule="evenodd" clip-rule="evenodd" d="M12 8C9.79086 8 8 9.79086 8 12C8 14.2091 9.79086 16 12 16C14.2091 16 16 14.2091 16 12C16 10.9391 15.5786 9.92172 14.8284 9.17157C14.0783 8.42143 13.0609 8 12 8ZM12 14C10.8954 14 10 13.1046 10 12C10 10.8954 10.8954 10 12 10C13.1046 10 14 10.8954 14 12C14 13.1046 13.1046 14 12 14Z" fill="#EA2F2A"/>
</svg>
