<svg width="24" height="24" viewBox="0 0 24 24" fill="none" xmlns="http://www.w3.org/2000/svg">
<path fill-rule="evenodd" clip-rule="evenodd" d="M10.9441 6.07999C11.2949 6.02623 11.6492 5.99948 12.0041 5.99999C15.1841 5.99999 18.1741 8.28999 19.9141 12C19.648 12.5646 19.3474 13.1123 19.0141 13.64C18.9083 13.8038 18.8526 13.995 18.8541 14.19C18.8587 14.6385 19.1613 15.0291 19.5944 15.1455C20.0276 15.262 20.4852 15.0758 20.7141 14.69C21.18 13.9579 21.5847 13.1887 21.9241 12.39C22.0325 12.1378 22.0325 11.8522 21.9241 11.6C19.9041 6.90999 16.1041 3.99999 12.0041 3.99999C11.5348 3.99763 11.0662 4.03779 10.6041 4.11999C10.2468 4.18073 9.9491 4.42745 9.82307 4.76722C9.69703 5.10699 9.76184 5.48819 9.99307 5.76722C10.2243 6.04625 10.5868 6.18073 10.9441 6.11999V6.07999ZM4.71409 3.28999C4.46044 3.03634 4.09072 2.93727 3.74422 3.03012C3.39771 3.12296 3.12706 3.39361 3.03422 3.74012C2.94137 4.08662 3.04044 4.45634 3.29409 4.70999L5.3941 6.79999C3.97967 8.16152 2.85395 9.79398 2.0841 11.6C1.97278 11.8551 1.97278 12.1449 2.0841 12.4C4.10409 17.09 7.90409 20 12.0041 20C13.8012 19.9876 15.5559 19.4525 17.0541 18.46L19.2941 20.71C19.4819 20.8993 19.7374 21.0058 20.0041 21.0058C20.2707 21.0058 20.5263 20.8993 20.7141 20.71C20.9034 20.5222 21.0099 20.2667 21.0099 20C21.0099 19.7334 20.9034 19.4778 20.7141 19.29L4.71409 3.28999ZM10.0741 11.48L12.5241 13.93C12.3551 13.9785 12.1799 14.0021 12.0041 14C10.8995 14 10.0041 13.1046 10.0041 12C10.0021 11.8242 10.0256 11.649 10.0741 11.48ZM12.0041 18C8.82409 18 5.83409 15.71 4.10409 12C4.75018 10.5737 5.66717 9.28657 6.80409 8.20999L8.57409 9.99999C7.72011 11.5586 7.99693 13.4938 9.25362 14.7505C10.5103 16.0072 12.4455 16.284 14.0041 15.43L15.5941 17C14.5052 17.6409 13.2675 17.9856 12.0041 18Z" fill="#202020"/>
<path fill-rule="evenodd" clip-rule="evenodd" d="M19.2943 20.7099C19.482 20.8993 19.7375 21.0057 20.0042 21.0057C20.2708 21.0057 20.5264 20.8993 20.7142 20.7099C20.9035 20.5222 21.01 20.2667 21.01 20C21.01 19.7334 20.9035 19.4777 20.7142 19.2899L4.71423 3.28996C4.46058 3.03631 4.09086 2.93724 3.74436 3.03009C3.39785 3.12293 3.1272 3.39358 3.03436 3.74009C2.94151 4.08659 3.04058 4.45631 3.29423 4.70996C5.14398 6.5509 6.71312 8.11782 8.57423 9.99996C7.72025 11.5586 7.99707 13.4937 9.25376 14.7504C10.5105 16.0071 12.4457 16.2839 14.0043 15.4299C15.7906 17.1938 17.4942 18.9019 19.2943 20.7099ZM10.0742 11.48L12.5243 13.9299C12.3553 13.9784 12.1801 14.002 12.0043 13.9999C10.8997 13.9999 10.0042 13.1045 10.0042 12C10.0022 11.8241 10.0258 11.649 10.0742 11.48Z" fill="#EA2F2A"/>
</svg>
