<svg width="24" height="24" viewBox="0 0 24 24" fill="none" xmlns="http://www.w3.org/2000/svg">
<path fill-rule="evenodd" clip-rule="evenodd" d="M10.5561 2.9591C11.2203 1.96959 12.5665 1.7022 13.5629 2.36188C13.8011 2.51958 14.0054 2.72255 14.1642 2.9591L16.812 6.90341L21.4269 8.21288C22.5783 8.53959 23.245 9.73142 22.916 10.8749C22.833 11.1634 22.6903 11.4314 22.4969 11.6619L19.1578 15.6413L19.7188 19.5418C19.8882 20.719 19.0645 21.8098 17.879 21.978C17.4017 22.0456 16.9153 21.9535 16.4967 21.7159L12.3602 19.3685L8.22366 21.7159C7.18396 22.3059 5.8595 21.9472 5.26538 20.9147C5.02616 20.4988 4.93331 20.0158 5.0015 19.5418L5.55407 15.7004L1.63506 11.8083C0.788314 10.9674 0.788314 9.60397 1.63506 8.76305C1.91293 8.48708 2.26111 8.29131 2.64235 8.19666L7.9198 6.88636L10.5561 2.9591Z" fill="#FFB318"/>
</svg>
