<svg width="24" height="24" viewBox="0 0 24 24" fill="none" xmlns="http://www.w3.org/2000/svg">
<path fill-rule="evenodd" clip-rule="evenodd" d="M13.2899 2H3.87723C2.21168 2 1.37133 4.02074 2.5514 5.20082L8.875 11.5266V18.25C8.875 18.8401 9.15285 19.3959 9.625 19.8125L12.125 21.651C13.3466 22.5047 15.125 21.7111 15.125 20.151V11.5266L16.5558 10.0954C16.0027 9.78226 15.4965 9.39599 15.0503 8.94974L13.25 10.75V20.125L10.75 18.25V10.75L3.875 3.875H13.0011C13.0125 3.2245 13.1126 2.59564 13.2899 2Z" fill="#202020"/>
<path fill-rule="evenodd" clip-rule="evenodd" d="M20 8C22.2091 8 24 6.20914 24 4C24 1.79086 22.2091 0 20 0C17.7909 0 16 1.79086 16 4C16 6.20914 17.7909 8 20 8Z" fill="#EA2F2A"/>
</svg>
