<svg width="81" height="80" viewBox="0 0 81 80" fill="none" xmlns="http://www.w3.org/2000/svg">
<path fill-rule="evenodd" clip-rule="evenodd" d="M22.0151 3.33337C23.6887 3.33337 25.0454 4.69009 25.0454 6.36368C25.0454 7.91774 23.8756 9.19854 22.3685 9.37361L22.0151 9.39397H12.9242C11.3689 9.39397 10.0891 10.5627 9.91422 12.0706L9.89385 12.4243V21.5152C9.89385 23.1888 8.53715 24.5455 6.86355 24.5455C5.30951 24.5455 4.02868 23.3757 3.85364 21.8686L3.83325 21.5152V12.4243C3.83325 7.58821 7.60628 3.63608 12.3702 3.34996L12.9242 3.33337H22.0151ZM67.4696 3.33337C72.3056 3.33337 76.2579 7.10641 76.5439 11.8703L76.5606 12.4243V21.5152C76.5606 23.1888 75.2039 24.5455 73.5302 24.5455C71.9762 24.5455 70.6952 23.3757 70.5202 21.8686L70.4999 21.5152V12.4243C70.4999 10.869 69.3312 9.58924 67.8232 9.41434L67.4696 9.39397H58.3786C56.7052 9.39397 55.3482 8.03727 55.3482 6.36368C55.3482 4.80963 56.5182 3.52881 58.0252 3.35376L58.3786 3.33337H67.4696ZM22.0151 30.6061C22.0151 28.9325 23.3718 27.5758 25.0454 27.5758C26.5994 27.5758 27.8803 28.7456 28.0553 30.2527L28.0757 30.6061V36.6667C28.0757 38.3404 26.7189 39.697 25.0454 39.697C23.4913 39.697 22.2105 38.527 22.0354 37.02L22.0151 36.6667V30.6061ZM40.1969 27.5758C41.7509 27.5758 43.0319 28.7456 43.2069 30.2527L43.2272 30.6061V42.7274C43.2272 46.0737 40.5129 48.788 37.1666 48.788C35.493 48.788 34.1363 47.4314 34.1363 45.7577C34.1363 44.2037 35.3061 42.9227 36.8132 42.7477L37.1666 42.7274V30.6061C37.1666 28.9325 38.5232 27.5758 40.1969 27.5758ZM52.3182 30.6061C52.3182 28.9325 53.6749 27.5758 55.3482 27.5758C56.9026 27.5758 58.1832 28.7456 58.3582 30.2527L58.3786 30.6061V36.6667C58.3786 38.3404 57.0219 39.697 55.3482 39.697C53.7942 39.697 52.5136 38.527 52.3386 37.02L52.3182 36.6667V30.6061ZM47.3186 52.397C48.6722 51.4134 50.5672 51.713 51.5512 53.067C52.5352 54.4207 52.2352 56.316 50.8812 57.2997C47.7919 59.545 44.2109 60.909 40.1969 60.909C36.1829 60.909 32.6018 59.545 29.5124 57.2997C28.1586 56.316 27.8587 54.4207 28.8425 53.067C29.8264 51.713 31.7215 51.4134 33.0753 52.397C35.1991 53.9407 37.5826 54.8484 40.1969 54.8484C42.8112 54.8484 45.1946 53.9407 47.3186 52.397ZM6.86355 54.8484C8.41762 54.8484 9.69842 56.0184 9.87348 57.5254L9.89385 57.8787V66.9697C9.89385 68.525 11.0626 69.8047 12.5705 69.9797L12.9242 70H22.0151C23.6887 70 25.0454 71.3567 25.0454 73.0304C25.0454 74.5844 23.8756 75.8654 22.3685 76.0404L22.0151 76.0607H12.9242C8.08808 76.0607 4.13595 72.2877 3.84984 67.5237L3.83325 66.9697V57.8787C3.83325 56.2054 5.18997 54.8484 6.86355 54.8484ZM73.5302 54.8484C75.0842 54.8484 76.3652 56.0184 76.5402 57.5254L76.5606 57.8787V66.9697C76.5606 71.8057 72.7876 75.758 68.0236 76.044L67.4696 76.0607H58.3786C56.7052 76.0607 55.3482 74.704 55.3482 73.0304C55.3482 71.4764 56.5182 70.1954 58.0252 70.0204L58.3786 70H67.4696C69.0249 70 70.3046 68.8314 70.4796 67.3234L70.4999 66.9697V57.8787C70.4999 56.2054 71.8566 54.8484 73.5302 54.8484Z" fill="#202020"/>
<path fill-rule="evenodd" clip-rule="evenodd" d="M25.0454 27.5758C23.3718 27.5758 22.0151 28.9325 22.0151 30.6061V36.6667L22.0355 37.02C22.2106 38.527 23.4914 39.697 25.0454 39.697C26.719 39.697 28.0757 38.3404 28.0757 36.6667V30.6061L28.0553 30.2527C27.8803 28.7456 26.5995 27.5758 25.0454 27.5758ZM43.207 30.2527C43.032 28.7456 41.751 27.5758 40.197 27.5758C38.5233 27.5758 37.1666 28.9325 37.1666 30.6061V42.7274L36.8132 42.7477C35.3061 42.9227 34.1363 44.2037 34.1363 45.7577C34.1363 47.4314 35.493 48.788 37.1666 48.788C40.513 48.788 43.2273 46.0737 43.2273 42.7274V30.6061L43.207 30.2527ZM55.3483 27.5758C53.675 27.5758 52.3183 28.9325 52.3183 30.6061V36.6667L52.3386 37.02C52.5136 38.527 53.7943 39.697 55.3483 39.697C57.022 39.697 58.3786 38.3404 58.3786 36.6667V30.6061L58.3583 30.2527C58.1833 28.7456 56.9026 27.5758 55.3483 27.5758ZM51.5513 53.067C50.5673 51.713 48.6723 51.4134 47.3186 52.397C45.1946 53.9407 42.8113 54.8484 40.197 54.8484C37.5826 54.8484 35.1992 53.9407 33.0754 52.397C31.7216 51.4134 29.8265 51.713 28.8426 53.067C27.8587 54.4207 28.1586 56.316 29.5124 57.2997C32.6018 59.545 36.1829 60.909 40.197 60.909C44.211 60.909 47.792 59.545 50.8813 57.2997C52.2353 56.316 52.5353 54.4207 51.5513 53.067Z" fill="#EA2F2A"/>
</svg>
