<svg width="25" height="24" viewBox="0 0 25 24" fill="none" xmlns="http://www.w3.org/2000/svg">
<circle cx="12.5" cy="12" r="12" fill="#FFECEC"/>
<path d="M16.4375 12.5625C13.9851 12.5625 12.1323 10.1944 12.0545 10.0934C12.0417 10.0774 10.4318 8.0625 8.56254 8.0625C6.23975 8.0625 5.75223 9.81429 5.73271 9.88899C5.65419 10.1884 5.34875 10.3707 5.04911 10.2928C4.74974 10.2169 4.56738 9.91538 4.64152 9.61545C4.86978 8.68929 5.98325 6.9375 8.56254 6.9375C10.9834 6.9375 12.864 9.30231 12.9428 9.40283C12.9609 9.42645 14.5426 11.4375 16.4375 11.4375C18.7378 11.4375 19.2484 9.67969 19.269 9.60499C19.3514 9.30669 19.6585 9.12709 19.9573 9.20893C20.2558 9.28858 20.4346 9.59233 20.3569 9.89119C20.1171 10.8152 18.9894 12.5625 16.4375 12.5625Z" fill="#EA2F2A"/>
<path d="M16.4375 17.0625C13.9851 17.0625 12.1323 14.6944 12.0545 14.5933C12.0417 14.5774 10.4318 12.5625 8.56254 12.5625C6.23975 12.5625 5.75223 14.3143 5.73271 14.389C5.65419 14.6879 5.34875 14.8718 5.04911 14.7928C4.74974 14.7169 4.56738 14.4154 4.64152 14.1154C4.86978 13.1893 5.98325 11.4375 8.56254 11.4375C10.9834 11.4375 12.864 13.8023 12.9428 13.9028C12.9609 13.9264 14.5426 15.9375 16.4375 15.9375C18.7378 15.9375 19.2484 14.1797 19.269 14.105C19.3514 13.8067 19.6585 13.6276 19.9573 13.7089C20.2558 13.7886 20.4346 14.0923 20.3569 14.3912C20.1171 15.3151 18.9894 17.0625 16.4375 17.0625Z" fill="#EA2F2A"/>
</svg>
