<svg width="81" height="80" viewBox="0 0 81 80" fill="none" xmlns="http://www.w3.org/2000/svg">
<path fill-rule="evenodd" clip-rule="evenodd" d="M39.2336 23.5999C40.0452 23.2665 40.9554 23.2665 41.767 23.5999C42.1761 23.7585 42.55 23.9964 42.867 24.2999C43.4761 24.9387 43.8214 25.784 43.8336 26.6666C43.8281 27.7752 43.2718 28.8085 42.3493 29.4235C41.4269 30.0384 40.2591 30.1545 39.2336 29.7332C38.8297 29.5644 38.4576 29.3277 38.1336 29.0332C37.5097 28.4042 37.1618 27.5526 37.1669 26.6666C37.1557 26.2293 37.247 25.7955 37.4336 25.3999C37.6024 24.996 37.8392 24.6239 38.1336 24.2999C38.4506 23.9964 38.8244 23.7585 39.2336 23.5999ZM37.1669 36.6669C37.1669 34.826 38.6593 33.3336 40.5003 33.3336C42.3412 33.3336 43.8336 34.826 43.8336 36.6669V53.3332C43.8336 55.1742 42.3412 56.6666 40.5003 56.6666C38.6593 56.6666 37.1669 55.1742 37.1669 53.3332V36.6669Z" fill="#EA2F2A"/>
<path fill-rule="evenodd" clip-rule="evenodd" d="M7.16699 40.0001C7.16699 21.5906 22.0908 6.66675 40.5003 6.66675C49.341 6.66675 57.8193 10.1786 64.0707 16.4298C70.3217 22.6811 73.8337 31.1595 73.8337 40.0001C73.8337 58.4094 58.9097 73.3334 40.5003 73.3334C22.0908 73.3334 7.16699 58.4094 7.16699 40.0001ZM13.8337 40.0001C13.8337 54.7278 25.7727 66.6668 40.5003 66.6668C47.5727 66.6668 54.3557 63.8571 59.3567 58.8564C64.3573 53.8554 67.167 47.0724 67.167 40.0001C67.167 25.2725 55.228 13.3334 40.5003 13.3334C25.7727 13.3334 13.8337 25.2725 13.8337 40.0001Z" fill="#202020"/>
</svg>
