<svg width="81" height="80" viewBox="0 0 81 80" fill="none" xmlns="http://www.w3.org/2000/svg">
<path fill-rule="evenodd" clip-rule="evenodd" d="M40.5 43.3333C38.4215 43.309 36.5478 44.5817 35.8041 46.5227C35.0604 48.4637 35.6041 50.6627 37.1667 52.0333V56.6667C37.1667 58.5077 38.6591 60 40.5 60C42.341 60 43.8334 58.5077 43.8334 56.6667V52.0333C45.396 50.6627 45.9397 48.4637 45.196 46.5227C44.4523 44.5817 42.5785 43.309 40.5 43.3333ZM57.1667 30V23.3333C57.1667 14.1286 49.7047 6.66666 40.5 6.66666C31.2953 6.66666 23.8334 14.1286 23.8334 23.3333V30C18.3105 30 13.8334 34.4772 13.8334 40V63.3333C13.8334 68.8563 18.3105 73.3333 23.8334 73.3333H57.1667C62.6897 73.3333 67.1667 68.8563 67.1667 63.3333V40C67.1667 34.4772 62.6897 30 57.1667 30ZM30.5 23.3333C30.5 17.8105 34.9772 13.3333 40.5 13.3333C46.0229 13.3333 50.5 17.8105 50.5 23.3333V30H30.5V23.3333ZM60.5 63.3333C60.5 65.1743 59.0077 66.6667 57.1667 66.6667H23.8334C21.9924 66.6667 20.5 65.1743 20.5 63.3333V40C20.5 38.159 21.9924 36.6667 23.8334 36.6667H57.1667C59.0077 36.6667 60.5 38.159 60.5 40V63.3333Z" fill="#202020"/>
<path fill-rule="evenodd" clip-rule="evenodd" d="M40.4998 43.3333C38.4213 43.3089 36.5475 44.5816 35.8038 46.5226C35.0601 48.4636 35.6038 50.6626 37.1664 52.0333V56.6666C37.1664 58.5076 38.6588 59.9999 40.4998 59.9999C42.3407 59.9999 43.8331 58.5076 43.8331 56.6666V52.0333C45.3957 50.6626 45.9394 48.4636 45.1957 46.5226C44.452 44.5816 42.5783 43.3089 40.4998 43.3333Z" fill="#EA2F2A"/>
<path d="M57.1667 23.3333V30H50.5V23.3333C50.5 17.8105 46.0229 13.3333 40.5 13.3333C34.9772 13.3333 30.5 17.8105 30.5 23.3333V30H23.8334V23.3333C23.8334 14.1286 31.2953 6.66666 40.5 6.66666C49.7047 6.66666 57.1667 14.1286 57.1667 23.3333Z" fill="#EA2F2A"/>
</svg>
