<svg width="24" height="24" viewBox="0 0 24 24" fill="none" xmlns="http://www.w3.org/2000/svg">
<path fill-rule="evenodd" clip-rule="evenodd" d="M6.74269 5H10.0175C10.2748 5 10.4854 5.21053 10.4854 5.46784V6.40351C10.4854 6.66082 10.2748 6.87135 10.0175 6.87135H6.74269C5.70955 6.87135 4.87135 7.70955 4.87135 8.74269V16.2281C4.87135 17.2612 5.70955 18.0994 6.74269 18.0994H10.0175C10.2748 18.0994 10.4854 18.3099 10.4854 18.5673V19.5029C10.4854 19.7602 10.2748 19.9708 10.0175 19.9708H6.74269C4.67641 19.9708 3 18.2943 3 16.2281V8.74269C3 6.67641 4.67641 5 6.74269 5ZM15.7524 5.76023L14.9883 6.52437C14.8012 6.7115 14.8051 7.0117 14.9961 7.19103L19.4055 11.4717H9.70565C9.44834 11.4717 9.23782 11.6823 9.23782 11.9396V13.0312C9.23782 13.2885 9.44834 13.499 9.70565 13.499H19.4055L14.9961 17.7758C14.809 17.9591 14.8051 18.2593 14.9883 18.4425L15.7524 19.2066C15.9357 19.3899 16.232 19.3899 16.4152 19.2066L22.8246 12.8129C23.0078 12.6296 23.0078 12.3333 22.8246 12.1501L16.4152 5.75634C16.232 5.577 15.9357 5.577 15.7524 5.76023Z" fill="#202020"/>
</svg>
