<svg width="24" height="24" viewBox="0 0 24 24" fill="none" xmlns="http://www.w3.org/2000/svg">
<path fill-rule="evenodd" clip-rule="evenodd" d="M12 14.5C13.3807 14.5 14.5 13.3807 14.5 12C14.5 10.6193 13.3807 9.5 12 9.5C10.6193 9.5 9.5 10.6193 9.5 12C9.5 13.3807 10.6193 14.5 12 14.5Z" fill="#EA2F2A"/>
<path fill-rule="evenodd" clip-rule="evenodd" d="M12 21.5C13.3807 21.5 14.5 20.3807 14.5 19C14.5 17.6193 13.3807 16.5 12 16.5C10.6193 16.5 9.5 17.6193 9.5 19C9.5 20.3807 10.6193 21.5 12 21.5Z" fill="#202020"/>
<path fill-rule="evenodd" clip-rule="evenodd" d="M12 7.5C13.3807 7.5 14.5 6.38071 14.5 5C14.5 3.61929 13.3807 2.5 12 2.5C10.6193 2.5 9.5 3.61929 9.5 5C9.5 6.38071 10.6193 7.5 12 7.5Z" fill="#202020"/>
</svg>
