<svg width="24" height="24" viewBox="0 0 24 24" fill="none" xmlns="http://www.w3.org/2000/svg">
<path fill-rule="evenodd" clip-rule="evenodd" d="M19.7619 9.27048C19.751 9.17424 19.7299 9.07942 19.699 8.98762V8.89333C19.6487 8.78562 19.5815 8.6866 19.5 8.6L13.2143 2.31429C13.1277 2.2328 13.0287 2.16561 12.9209 2.11524C12.8897 2.1108 12.8579 2.1108 12.8267 2.11524C12.7202 2.05421 12.6027 2.01503 12.481 2H6.14286C4.40711 2 3 3.40711 3 5.14286V19.8095C3 21.5453 4.40711 22.9524 6.14286 22.9524H14.5238C15.1024 22.9524 15.5714 22.4833 15.5714 21.9048C15.5714 21.3262 15.1024 20.8571 14.5238 20.8571H6.14286C5.56427 20.8571 5.09524 20.3881 5.09524 19.8095V5.14286C5.09524 4.56427 5.56427 4.09524 6.14286 4.09524H11.3809V7.2381C11.3809 8.97385 12.7881 10.3809 14.5238 10.3809H17.6667V12.4762C17.6667 13.0548 18.1357 13.5238 18.7143 13.5238C19.2929 13.5238 19.7619 13.0548 19.7619 12.4762V9.27048ZM14.5238 8.28571C13.9452 8.28571 13.4762 7.81668 13.4762 7.2381V5.57238L16.1895 8.28571H14.5238ZM17.6667 16.6667C17.6667 16.0881 18.1357 15.619 18.7143 15.619C19.2929 15.619 19.7619 16.0881 19.7619 16.6667V18.7619C19.7619 19.3405 19.2929 19.8095 18.7143 19.8095C18.1357 19.8095 17.6667 19.3405 17.6667 18.7619V16.6667ZM19.4581 21.161C19.4083 21.1159 19.3558 21.0739 19.301 21.0352C19.2426 20.9956 19.1791 20.9639 19.1124 20.941L18.9238 20.8571C18.7195 20.8173 18.508 20.8392 18.3162 20.92C18.053 21.0153 17.8457 21.2225 17.7505 21.4857C17.6885 21.6164 17.6597 21.7603 17.6667 21.9048C17.6617 22.3312 17.9156 22.7181 18.3089 22.8831C18.7022 23.0481 19.1562 22.9583 19.4569 22.6559C19.7577 22.3535 19.8452 21.899 19.6781 21.5067C19.625 21.3797 19.5506 21.2628 19.4581 21.161Z" fill="#202020"/>
<path fill-rule="evenodd" clip-rule="evenodd" d="M9.28567 10.3814H8.23805C7.65946 10.3814 7.19043 9.91233 7.19043 9.33375C7.19043 8.75517 7.65946 8.28613 8.23805 8.28613H9.28567C9.86425 8.28613 10.3333 8.75517 10.3333 9.33375C10.3333 9.91233 9.86425 10.3814 9.28567 10.3814ZM8.23805 12.4766H14.5238C15.1023 12.4766 15.5714 12.9456 15.5714 13.5242C15.5714 14.1028 15.1023 14.5718 14.5238 14.5718H8.23805C7.65946 14.5718 7.19043 14.1028 7.19043 13.5242C7.19043 12.9456 7.65946 12.4766 8.23805 12.4766ZM8.23805 16.6671H14.5238C15.1023 16.6671 15.5714 17.1361 15.5714 17.7147C15.5714 18.2933 15.1023 18.7623 14.5238 18.7623H8.23805C7.65946 18.7623 7.19043 18.2933 7.19043 17.7147C7.19043 17.1361 7.65946 16.6671 8.23805 16.6671Z" fill="#EA2F2A"/>
</svg>
