<svg width="24" height="24" viewBox="0 0 24 24" fill="none" xmlns="http://www.w3.org/2000/svg">
<path d="M12 2C6.47656 2 2 6.47656 2 12C2 17.5234 6.47656 22 12 22C17.5234 22 22 17.5234 22 12C22 6.47656 17.5234 2 12 2ZM10.75 9.46484V14.4648C10.75 15.1914 10.1914 15.75 9.5 15.75C8.80859 15.75 8.25 15.1914 8.25 14.5V9.46484C8.25 8.80859 8.80859 8.25 9.46484 8.25C10.1211 8.25 10.75 8.80859 10.75 9.46484ZM15.75 9.46484V14.4648C15.75 15.1914 15.1914 15.75 14.5 15.75C13.8086 15.75 13.25 15.1914 13.25 14.5V9.46484C13.25 8.80859 13.8086 8.25 14.4648 8.25C15.1211 8.25 15.75 8.80859 15.75 9.46484Z" fill="#EA2F2A"/>
</svg>
