<svg width="24" height="24" viewBox="0 0 24 24" fill="none" xmlns="http://www.w3.org/2000/svg">
<path fill-rule="evenodd" clip-rule="evenodd" d="M7.7 10.05C7.7 9.4701 7.2299 9 6.65 9H3.05C2.4701 9 2 9.4701 2 10.05V13.65C2 14.2299 2.4701 14.7 3.05 14.7H6.65C7.2299 14.7 7.7 14.2299 7.7 13.65V10.05ZM14.9 10.05C14.9 9.4701 14.4299 9 13.85 9H10.25C9.6701 9 9.2 9.4701 9.2 10.05V13.65C9.2 14.2299 9.6701 14.7 10.25 14.7H13.85C14.4299 14.7 14.9 14.2299 14.9 13.65V10.05ZM22.1 10.05C22.1 9.4701 21.6299 9 21.05 9H17.45C16.8701 9 16.4 9.4701 16.4 10.05V13.65C16.4 14.2299 16.8701 14.7 17.45 14.7H21.05C21.6299 14.7 22.1 14.2299 22.1 13.65V10.05ZM6 13H3.7V10.7H6V13ZM13.2 13H10.9V10.7H13.2V13ZM20.4 13H18.1V10.7H20.4V13ZM14.9 17.05C14.9 16.4701 14.4299 16 13.85 16H10.25C9.6701 16 9.2 16.4701 9.2 17.05V20.65C9.2 21.2299 9.6701 21.7 10.25 21.7H13.85C14.4299 21.7 14.9 21.2299 14.9 20.65V17.05ZM13.2 20H10.9V17.7H13.2V20Z" fill="#202020"/>
<path fill-rule="evenodd" clip-rule="evenodd" d="M7.7 3.05C7.7 2.4701 7.2299 2 6.65 2H3.05C2.4701 2 2 2.4701 2 3.05V6.65C2 7.2299 2.4701 7.7 3.05 7.7H6.65C7.2299 7.7 7.7 7.2299 7.7 6.65V3.05ZM14.9 3.05C14.9 2.4701 14.4299 2 13.85 2H10.25C9.6701 2 9.2 2.4701 9.2 3.05V6.65C9.2 7.2299 9.6701 7.7 10.25 7.7H13.85C14.4299 7.7 14.9 7.2299 14.9 6.65V3.05ZM22.1 3.05C22.1 2.4701 21.6299 2 21.05 2H17.45C16.8701 2 16.4 2.4701 16.4 3.05V6.65C16.4 7.2299 16.8701 7.7 17.45 7.7H21.05C21.6299 7.7 22.1 7.2299 22.1 6.65V3.05ZM6 6H3.7V3.7H6V6ZM13.2 6H10.9V3.7H13.2V6ZM20.4 6H18.1V3.7H20.4V6Z" fill="#EA2F2A"/>
</svg>
