<svg width="24" height="24" viewBox="0 0 24 24" fill="none" xmlns="http://www.w3.org/2000/svg">
<path d="M12 2C6.47656 2 2 6.47656 2 12C2 17.5234 6.47656 22 12 22C17.5234 22 22 17.5234 22 12C22 6.47656 17.5234 2 12 2ZM16.5508 12.8008L10.9258 16.2383C10.7773 16.3281 10.6055 16.375 10.4375 16.375C9.90273 16.375 9.5 15.9375 9.5 15.4375V8.5625C9.5 8.06641 9.89844 7.625 10.4375 7.625C10.6072 7.625 10.7765 7.67094 10.9262 7.76234L16.5512 11.1998C16.8281 11.3711 17 11.6719 17 12C17 12.3281 16.8281 12.6289 16.5508 12.8008Z" fill="#EA2F2A"/>
</svg>
