<svg width="20" height="20" viewBox="0 0 20 20" fill="none" xmlns="http://www.w3.org/2000/svg">
<path fill-rule="evenodd" clip-rule="evenodd" d="M4.44445 11.1111C3.8308 11.1111 3.33334 10.6137 3.33334 10C3.33334 9.38638 3.8308 8.88892 4.44445 8.88892H15.5556C16.1692 8.88892 16.6667 9.38638 16.6667 10C16.6667 10.6137 16.1692 11.1111 15.5556 11.1111H4.44445Z" fill="#EA2F2A"/>
<path fill-rule="evenodd" clip-rule="evenodd" d="M11.1111 4.44436C11.1111 3.83071 10.6137 3.33325 10 3.33325C9.38635 3.33325 8.88889 3.83071 8.88889 4.44436L8.88889 15.5555C8.88889 16.1691 9.38635 16.6666 10 16.6666C10.6137 16.6666 11.1111 16.1691 11.1111 15.5555L11.1111 4.44436Z" fill="#EA2F2A"/>
</svg>
