<svg width="25" height="24" viewBox="0 0 25 24" fill="none" xmlns="http://www.w3.org/2000/svg">
<path d="M11.6 4.79883C9.99797 4.79883 8.43192 5.27388 7.09988 6.16392C5.76784 7.05396 4.72965 8.31901 4.11658 9.79909C3.50351 11.2792 3.3431 12.9078 3.65564 14.4791C3.96818 16.0503 4.73963 17.4936 5.87243 18.6264C7.00524 19.7592 8.44852 20.5306 10.0198 20.8432C11.591 21.1557 13.2197 20.9953 14.6997 20.3823C16.1798 19.7692 17.4449 18.731 18.3349 17.3989C19.2249 16.0669 19.7 14.5009 19.7 12.8988H11.6L11.6 4.79883Z" stroke="#80838B" stroke-width="1.4" stroke-linejoin="round"/>
<path d="M21.4996 10.2C21.4996 9.25448 21.3134 8.31822 20.9515 7.44468C20.5897 6.57114 20.0594 5.77741 19.3908 5.10883C18.7222 4.44025 17.9285 3.9099 17.0549 3.54807C16.1814 3.18623 15.2451 3 14.2996 3L14.2996 10.2H21.4996Z" stroke="#80838B" stroke-width="1.4" stroke-linejoin="round"/>
</svg>
