<svg width="24" height="24" viewBox="0 0 24 24" fill="none" xmlns="http://www.w3.org/2000/svg">
<path fill-rule="evenodd" clip-rule="evenodd" d="M2 4.0003V21.1298C2 22.2343 2.89543 23.1298 4 23.1298H19.0534C20.158 23.1298 21.0534 22.2343 21.0534 21.1298V4.0003C21.0534 2.89573 20.158 2.0003 19.0534 2.0003C18.6909 2.0003 18.3353 2.09882 18.0244 2.28532L15.2726 3.93642L12.4211 2.5107C11.8581 2.22918 11.1953 2.22918 10.6323 2.5107L7.78084 3.93642L5.02899 2.28532C4.08183 1.71702 2.85331 2.02415 2.28501 2.97131C2.1296 3.23034 2.03528 3.5205 2.00816 3.8198L2 4.0003ZM19.0534 21.1298H4V4.0003L6.75185 5.65141C7.3382 6.00322 8.06366 6.03108 8.67527 5.72528L11.5267 4.29956L14.3781 5.72528C14.9898 6.03108 15.7152 6.00322 16.3016 5.65141L19.0534 4.0003V21.1298Z" fill="white"/>
<path fill-rule="evenodd" clip-rule="evenodd" d="M15.3164 10.9609H7.73706C7.18478 10.9609 6.73706 10.5132 6.73706 9.96094C6.73706 9.40865 7.18478 8.96094 7.73706 8.96094H15.3164C15.8686 8.96094 16.3164 9.40865 16.3164 9.96094C16.3164 10.5132 15.8686 10.9609 15.3164 10.9609ZM15.3164 14.7506H7.73706C7.18478 14.7506 6.73706 14.3029 6.73706 13.7506C6.73706 13.1983 7.18478 12.7506 7.73706 12.7506H15.3164C15.8686 12.7506 16.3164 13.1983 16.3164 13.7506C16.3164 14.3029 15.8686 14.7506 15.3164 14.7506ZM15.3164 18.5402H7.73706C7.18478 18.5402 6.73706 18.0925 6.73706 17.5402C6.73706 16.9879 7.18478 16.5402 7.73706 16.5402H15.3164C15.8686 16.5402 16.3164 16.9879 16.3164 17.5402C16.3164 18.0925 15.8686 18.5402 15.3164 18.5402Z" fill="white"/>
</svg>
