<svg width="20" height="20" viewBox="0 0 20 20" fill="none" xmlns="http://www.w3.org/2000/svg">
<path fill-rule="evenodd" clip-rule="evenodd" d="M1.66675 3.33357V17.6082C1.66675 18.5286 2.41294 19.2748 3.33341 19.2748H15.8779C16.7984 19.2748 17.5446 18.5286 17.5446 17.6082V3.33357C17.5446 2.4131 16.7984 1.66691 15.8779 1.66691C15.5758 1.66691 15.2795 1.749 15.0204 1.90442L12.7272 3.28034L10.351 2.09224C9.88181 1.85764 9.32953 1.85764 8.86031 2.09224L6.48411 3.28034L4.19091 1.90442C3.40161 1.43084 2.37784 1.68678 1.90426 2.47608C1.77475 2.69194 1.69615 2.93374 1.67355 3.18316L1.66675 3.33357ZM15.8779 17.6082H3.33341V3.33357L5.62662 4.7095C6.11525 5.00267 6.7198 5.02589 7.22947 4.77106L9.60567 3.58296L11.9818 4.77106C12.4916 5.02589 13.0961 5.00267 13.5847 4.7095L15.8779 3.33357V17.6082Z" fill="#80838B"/>
<path fill-rule="evenodd" clip-rule="evenodd" d="M12.7637 9.13401H6.44759C5.98735 9.13401 5.61426 8.76091 5.61426 8.30068C5.61426 7.84044 5.98735 7.46735 6.44759 7.46735H12.7637C13.2239 7.46735 13.597 7.84044 13.597 8.30068C13.597 8.76091 13.2239 9.13401 12.7637 9.13401ZM12.7637 12.2921H6.44759C5.98735 12.2921 5.61426 11.919 5.61426 11.4587C5.61426 10.9985 5.98735 10.6254 6.44759 10.6254H12.7637C13.2239 10.6254 13.597 10.9985 13.597 11.4587C13.597 11.919 13.2239 12.2921 12.7637 12.2921ZM12.7637 15.4501H6.44759C5.98735 15.4501 5.61426 15.077 5.61426 14.6168C5.61426 14.1565 5.98735 13.7834 6.44759 13.7834H12.7637C13.2239 13.7834 13.597 14.1565 13.597 14.6168C13.597 15.077 13.2239 15.4501 12.7637 15.4501Z" fill="#80838B"/>
</svg>
