<svg width="8" height="10" viewBox="0 0 8 10" fill="none" xmlns="http://www.w3.org/2000/svg">
<path fill-rule="evenodd" clip-rule="evenodd" d="M5.96702 6.0812L4.77297 7.22405L4.77297 1.05071C4.77297 0.654473 4.42583 0.333335 3.99762 0.333335C3.56939 0.333335 3.22225 0.654473 3.22225 1.05071L3.22225 7.22405L2.0282 6.10989C1.88594 5.96123 1.68345 5.87378 1.46892 5.86834C1.25439 5.8629 1.04702 5.93998 0.896178 6.0812C0.749393 6.2159 0.66683 6.39925 0.66683 6.59052C0.66683 6.7818 0.749393 6.96516 0.896178 7.09985L3.44711 9.46221C3.52084 9.52752 3.6078 9.57871 3.70298 9.61286C3.89175 9.6846 4.10348 9.6846 4.29225 9.61286C4.38742 9.57871 4.47438 9.52752 4.54812 9.46221L7.09905 7.12855C7.41165 6.83933 7.41165 6.37041 7.09905 6.0812C6.78645 5.79199 6.27962 5.79198 5.96702 6.0812Z" fill="#BA1C18"/>
</svg>
