<svg width="8" height="10" viewBox="0 0 8 10" fill="none" xmlns="http://www.w3.org/2000/svg">
<path fill-rule="evenodd" clip-rule="evenodd" d="M2.03298 3.9188L3.22703 2.77595V8.94929C3.22703 9.34553 3.57417 9.66667 4.00238 9.66667C4.43061 9.66667 4.77775 9.34553 4.77775 8.94929V2.77595L5.9718 3.89011C6.11406 4.03877 6.31656 4.12622 6.53108 4.13166C6.74561 4.1371 6.95298 4.06003 7.10382 3.9188C7.25061 3.7841 7.33317 3.60075 7.33317 3.40948C7.33317 3.2182 7.25061 3.03485 7.10382 2.90015L4.55289 0.537791C4.47916 0.472483 4.3922 0.421288 4.29702 0.387146C4.10825 0.315397 3.89652 0.315397 3.70775 0.387146C3.61258 0.421288 3.52562 0.472483 3.45188 0.537791L0.900953 2.87145C0.588354 3.16067 0.588354 3.62959 0.900953 3.9188C1.21355 4.20802 1.72038 4.20802 2.03298 3.9188Z" fill="#25C36B"/>
</svg>
