<svg width="25" height="24" viewBox="0 0 25 24" fill="none" xmlns="http://www.w3.org/2000/svg">
<path d="M4.78516 18.3648L4.24542 17.9191L3.8773 18.3648L4.24542 18.8106L4.78516 18.3648ZM20.2136 18.3648L20.7533 18.8106L21.1214 18.3648L20.7533 17.9191L20.2136 18.3648ZM5.32489 18.8106C7.03177 16.7438 9.61167 15.4285 12.4994 15.4285V14.0285C9.17642 14.0285 6.20686 15.5441 4.24542 17.9191L5.32489 18.8106ZM12.4994 15.4285C15.3871 15.4285 17.967 16.7438 19.6738 18.8106L20.7533 17.9191C18.7919 15.5441 15.8223 14.0285 12.4994 14.0285V15.4285ZM19.6738 17.9191C17.967 19.9859 15.3871 21.3012 12.4994 21.3012V22.7012C15.8223 22.7012 18.7919 21.1856 20.7533 18.8106L19.6738 17.9191ZM12.4994 21.3012C9.61167 21.3012 7.03177 19.9859 5.32489 17.9191L4.24542 18.8106C6.20686 21.1856 9.17642 22.7012 12.4994 22.7012V21.3012Z" fill="#80838B"/>
<circle cx="12.4996" cy="11.0914" r="3.63635" stroke="#80838B" stroke-width="1.4"/>
<circle cx="12.5" cy="12" r="9.99998" stroke="#80838B" stroke-width="1.4"/>
</svg>
