<svg width="25" height="25" viewBox="0 0 25 25" fill="none" xmlns="http://www.w3.org/2000/svg">
<path d="M7.64148 13.0447L6.57074 11.1901L5.5 13.0447H5.82999C5.85534 14.5157 6.33258 15.9444 7.19848 17.1361C8.08858 18.3613 9.34376 19.2733 10.784 19.7412C12.2243 20.2092 13.7757 20.2092 15.216 19.7412C16.6562 19.2733 17.9114 18.3613 18.8015 17.1361L17.6307 16.2855C16.9202 17.2634 15.9184 17.9913 14.7687 18.3648C13.6192 18.7383 12.3808 18.7383 11.2313 18.3648C10.0816 17.9913 9.07981 17.2634 8.36931 16.2855C7.68307 15.3409 7.30268 14.21 7.2775 13.0447H7.64148Z" fill="#3199F6"/>
<path d="M18.7225 12.7975H18.3585L19.4293 14.6521L20.5 12.7975H20.17C20.1447 11.3265 19.6674 9.89779 18.8015 8.70607C17.9114 7.4809 16.6562 6.56894 15.216 6.10097C13.7757 5.63301 12.2243 5.63301 10.784 6.10097C9.34376 6.56894 8.08858 7.4809 7.19848 8.70607L8.36931 9.5567C9.07981 8.57881 10.0816 7.85092 11.2313 7.4774C12.3808 7.10389 13.6192 7.10389 14.7687 7.4774C15.9184 7.85092 16.9202 8.57881 17.6307 9.5567C18.3169 10.5013 18.6973 11.6322 18.7225 12.7975Z" fill="#3199F6"/>
</svg>
