<svg width="24" height="24" viewBox="0 0 24 24" fill="none" xmlns="http://www.w3.org/2000/svg">
<path fill-rule="evenodd" clip-rule="evenodd" d="M22.001 17.3021L19.7099 14.9645C18.7017 14.0097 17.2123 13.761 15.9467 14.336L14.9506 13.3436C17.3858 10.1019 16.8927 5.5364 13.821 2.88501C10.7493 0.233626 6.14315 0.397653 3.26927 3.26077C0.395387 6.12388 0.230744 10.7127 2.8921 13.773C5.55345 16.8332 10.1361 17.3245 13.39 14.8983L14.375 15.8797C13.7284 17.1451 13.9645 18.6804 14.9616 19.6949L17.3081 22.0326C18.6045 23.3225 20.7046 23.3225 22.001 22.0326C22.6399 21.4102 23 20.5576 23 19.6674C23 18.7771 22.6399 17.9245 22.001 17.3021ZM12.6152 12.6268C10.4526 14.7759 6.95116 14.773 4.79218 12.6203C2.63319 10.4676 2.63319 6.97925 4.79218 4.82654C6.95116 2.67383 10.4526 2.67089 12.6152 4.81997C13.6561 5.85431 14.241 7.25876 14.241 8.7234C14.241 10.188 13.6561 11.5925 12.6152 12.6268ZM20.4404 20.4227C20.2325 20.6314 19.9496 20.7488 19.6545 20.7488C19.3594 20.7488 19.0765 20.6314 18.8687 20.4227L16.5223 18.085C16.3127 17.878 16.1949 17.5961 16.1949 17.3021C16.1949 17.0081 16.3127 16.7263 16.5223 16.5192C16.7301 16.3105 17.013 16.1931 17.3081 16.1931C17.6032 16.1931 17.8861 16.3105 18.0939 16.5192L20.4404 18.8569C20.6499 19.0639 20.7678 19.3458 20.7678 19.6398C20.7678 19.9338 20.6499 20.2156 20.4404 20.4227Z" fill="white"/>
</svg>
