<svg width="24" height="24" viewBox="0 0 24 24" fill="none" xmlns="http://www.w3.org/2000/svg">
<path d="M20.1759 11.6956L21.5007 10.9173C21.8928 10.687 22.083 10.217 21.9657 9.7719C21.4912 7.97119 20.5577 6.36164 19.3006 5.08089C18.9811 4.75539 18.4862 4.68943 18.0947 4.91954L16.7723 5.69679C16.3427 5.38394 15.8843 5.11425 15.4036 4.89151V3.33543C15.4035 2.87458 15.0989 2.47139 14.6613 2.35292C12.9238 1.88266 11.0784 1.88207 9.33883 2.35288C8.90119 2.47134 8.59644 2.87453 8.59644 3.33539V4.89147C8.11567 5.11421 7.65728 5.3839 7.2277 5.69675L5.90531 4.91949C5.51382 4.68938 5.01893 4.75535 4.69941 5.08085C3.4423 6.36159 2.50878 7.9711 2.03433 9.77185C1.91705 10.2169 2.10718 10.6869 2.49934 10.9173L3.82414 11.6956C3.77339 12.2306 3.77339 12.7694 3.82414 13.3044L2.49934 14.0827C2.10718 14.3131 1.91705 14.7831 2.03433 15.2281C2.50878 17.0288 3.4423 18.6384 4.69941 19.9191C5.01893 20.2446 5.51382 20.3106 5.90531 20.0805L7.2277 19.3032C7.65727 19.6161 8.11567 19.8858 8.59644 20.1085V21.6646C8.59649 22.1254 8.90111 22.5286 9.33874 22.6471C11.0762 23.1173 12.9216 23.118 14.6612 22.6471C15.0988 22.5286 15.4036 22.1255 15.4036 21.6646V20.1085C15.8843 19.8858 16.3427 19.6161 16.7723 19.3033L18.0947 20.0805C18.4862 20.3106 18.9811 20.2447 19.3006 19.9192C20.5577 18.6384 21.4912 17.0289 21.9657 15.2282C22.083 14.7831 21.8928 14.3131 21.5007 14.0827L20.1759 13.3045C20.2266 12.7689 20.2266 12.2312 20.1759 11.6956ZM17.9842 14.3637L19.8072 15.4344C19.4793 16.3357 19.0031 17.1737 18.399 17.9124L16.5755 16.8409C15.2448 18.0009 15.0503 18.1143 13.4066 18.705V20.8473C12.4756 21.0091 11.5244 21.0091 10.5934 20.8473V18.705C8.94987 18.1144 8.75466 18.0004 7.42449 16.8409L5.60102 17.9124C4.99691 17.1737 4.5207 16.3357 4.19276 15.4344L6.01581 14.3637C5.69837 12.6152 5.69821 12.3857 6.01581 10.6363L4.19276 9.56562C4.51935 8.66681 4.99613 7.82766 5.60102 7.08758L7.42449 8.15913C8.75516 6.99917 8.9497 6.88566 10.5934 6.295V4.15274C11.5244 3.99101 12.4756 3.99101 13.4066 4.15274V6.29504C15.0501 6.88566 15.2453 6.99964 16.5755 8.15917L18.399 7.08762C19.0031 7.82638 19.4793 8.66435 19.8072 9.56566L17.9842 10.6364C18.3017 12.385 18.3018 12.6143 17.9842 14.3637ZM12 8.43552C9.79768 8.43552 8.00599 10.2588 8.00599 12.5C8.00599 14.7412 9.79768 16.5646 12 16.5646C14.2023 16.5646 15.994 14.7412 15.994 12.5C15.994 10.2588 14.2023 8.43552 12 8.43552ZM12 14.5323C10.8988 14.5323 10.003 13.6207 10.003 12.5C10.003 11.3794 10.8988 10.4678 12 10.4678C13.1012 10.4678 13.997 11.3794 13.997 12.5C13.997 13.6207 13.1012 14.5323 12 14.5323Z" fill="white"/>
</svg>
