<svg width="20" height="21" viewBox="0 0 20 21" fill="none" xmlns="http://www.w3.org/2000/svg">
<path d="M7.00689 14.9109V8.49893C7.00689 8.22343 6.78354 8.00008 6.50803 8.00008C6.23253 8.00008 6.00918 8.22343 6.00918 8.49893V14.9109L4.32859 13.5072C4.16076 13.367 3.91667 13.367 3.74884 13.5072C3.53243 13.688 3.53243 14.0205 3.74884 14.2013L6.15535 16.2113C6.24889 16.2894 6.37576 16.3333 6.50803 16.3333C6.64031 16.3333 6.76717 16.2894 6.86072 16.2113L9.26723 14.2013C9.48364 14.0205 9.48364 13.688 9.26723 13.5072C9.0994 13.367 8.85531 13.367 8.68748 13.5072L7.00689 14.9109ZM16.2512 7.49296C16.4676 7.3122 16.4676 6.97962 16.2512 6.79886L13.8447 4.78883C13.7511 4.71072 13.6242 4.66684 13.492 4.66684C13.3597 4.66684 13.2328 4.71072 13.1393 4.78883L10.7328 6.79886C10.5164 6.97962 10.5164 7.3122 10.7328 7.49296C10.9006 7.63314 11.1447 7.63314 11.3125 7.49296L12.9931 6.08925V13.3346C12.9931 13.6101 13.2165 13.8334 13.492 13.8334C13.7675 13.8334 13.9908 13.6101 13.9908 13.3346V6.08925L15.6714 7.49296C15.8392 7.63314 16.0833 7.63314 16.2512 7.49296Z" fill="#BDBFC1"/>
</svg>
