<svg width="32" height="32" viewBox="0 0 32 32" fill="none" xmlns="http://www.w3.org/2000/svg">
<rect width="32" height="32" rx="8" fill="#FF7A2F"/>
<path d="M8.77778 17.1113L6.40571 24.7019C6.20448 25.3459 6.68555 26.0002 7.36019 26.0002H10.4915C10.978 26.0002 11.3939 25.6501 11.4769 25.1708L12.6667 18.2965" stroke="white" stroke-width="1.8" stroke-linejoin="round"/>
<path d="M13.6184 9.17383L14.2175 9.84546L16.539 7.77464L13.4704 8.28607L13.6184 9.17383ZM13.6184 18.3799L13.4704 19.2677L16.539 19.7791L14.2175 17.7083L13.6184 18.3799ZM9.28798 17.6582L9.43594 16.7705H9.43594L9.28798 17.6582ZM9.28798 9.89556L9.43594 10.7833L9.28798 9.89556ZM13.0193 8.5022C11.5481 9.81445 10.6556 11.7173 10.6556 13.7769H12.4556C12.4556 12.2425 13.12 10.8244 14.2175 9.84546L13.0193 8.5022ZM10.6556 13.7769C10.6556 15.8365 11.5481 17.7393 13.0193 19.0516L14.2175 17.7083C13.12 16.7294 12.4556 15.3113 12.4556 13.7769H10.6556ZM13.7663 17.4922L9.43594 16.7705L9.14002 18.546L13.4704 19.2677L13.7663 17.4922ZM9.43594 16.7705C7.97256 16.5266 6.9 15.2605 6.9 13.7769H5.1C5.1 16.1404 6.80871 18.1574 9.14002 18.546L9.43594 16.7705ZM6.9 13.7769C6.9 12.2933 7.97256 11.0272 9.43594 10.7833L9.14002 9.0078C6.80871 9.39636 5.1 11.4134 5.1 13.7769H6.9ZM9.43594 10.7833L13.7663 10.0616L13.4704 8.28607L9.14002 9.0078L9.43594 10.7833Z" fill="white"/>
<path d="M15.772 7.92788L15.4874 7.07406L15.772 7.92788ZM15.772 19.6277L15.4874 20.4815L15.772 19.6277ZM19.9156 21.0089L20.4294 20.2699L20.3231 20.196L20.2002 20.1551L19.9156 21.0089ZM21.5557 21.5556L21.5557 22.4556H21.5557V21.5556ZM21.5557 6V5.1H21.5557L21.5557 6ZM19.9156 6.54667L20.2002 7.40049L20.3231 7.35955L20.4294 7.28565L19.9156 6.54667ZM12.4557 13.7778C12.4557 11.511 13.9062 9.49851 16.0566 8.78169L15.4874 7.07406C12.6019 8.03589 10.6557 10.7362 10.6557 13.7778H12.4557ZM16.0566 18.7739C13.9062 18.057 12.4557 16.0446 12.4557 13.7778H10.6557C10.6557 16.8193 12.6019 19.5197 15.4874 20.4815L16.0566 18.7739ZM20.2002 20.1551L16.0566 18.7739L15.4874 20.4815L19.631 21.8627L20.2002 20.1551ZM21.5557 20.6556C21.1866 20.6556 20.8094 20.5341 20.4294 20.2699L19.4019 21.7479C20.0368 22.1892 20.7662 22.4556 21.5557 22.4556L21.5557 20.6556ZM21.5557 20.6556C21.5859 20.6556 21.6109 20.6571 21.6284 20.6585C21.637 20.6592 21.6439 20.6599 21.6483 20.6603C21.6522 20.6607 21.6556 20.6611 21.6551 20.6611C21.6551 20.6611 21.6551 20.6611 21.6551 20.6611C21.6551 20.6611 21.6551 20.6611 21.6551 20.6611C21.655 20.6611 21.655 20.6611 21.655 20.6611C21.655 20.6611 21.655 20.6611 21.655 20.661C21.6549 20.661 21.6548 20.661 21.6546 20.661C21.6544 20.661 21.6539 20.6609 21.6534 20.6609C21.6523 20.6608 21.6505 20.6606 21.6483 20.6603C21.6439 20.6599 21.637 20.6592 21.6284 20.6585C21.6109 20.6571 21.5859 20.6556 21.5557 20.6556V22.4556C21.5255 22.4556 21.5004 22.454 21.4829 22.4526C21.4744 22.4519 21.4674 22.4512 21.4631 22.4508C21.4591 22.4504 21.4557 22.45 21.4563 22.4501C21.4563 22.4501 21.4563 22.4501 21.4563 22.4501C21.4563 22.4501 21.4563 22.4501 21.4563 22.4501C21.4563 22.4501 21.4563 22.4501 21.4563 22.4501C21.4563 22.4501 21.4564 22.4501 21.4564 22.4501C21.4565 22.4501 21.4566 22.4501 21.4567 22.4501C21.457 22.4501 21.4574 22.4502 21.458 22.4502C21.4591 22.4504 21.4609 22.4506 21.4631 22.4508C21.4674 22.4512 21.4744 22.4519 21.4829 22.4526C21.5004 22.454 21.5255 22.4556 21.5557 22.4556V20.6556ZM25.1001 13.7778C25.1001 15.7979 24.6303 17.5826 23.917 18.831C23.1891 20.1048 22.3206 20.6556 21.5557 20.6556V22.4556C23.2453 22.4556 24.5991 21.2652 25.4798 19.724C26.375 18.1574 26.9001 16.0532 26.9001 13.7778H25.1001ZM21.5557 6.9C22.3206 6.9 23.1891 7.45076 23.917 8.72458C24.6303 9.97294 25.1001 11.7576 25.1001 13.7778H26.9001C26.9001 11.5024 26.375 9.39818 25.4798 7.83153C24.5991 6.29035 23.2453 5.1 21.5557 5.1V6.9ZM21.5557 6.9C21.5557 6.9 21.5557 6.9 21.5557 6.9C21.5557 6.9 21.5557 6.9 21.5557 6.9C21.5557 6.9 21.5557 6.9 21.5557 6.9H21.5557H21.5557C21.5557 6.9 21.5557 6.9 21.5557 6.9C21.5557 6.9 21.5557 6.9 21.5557 6.9C21.5557 6.9 21.5557 6.9 21.5557 6.9C21.5557 6.9 21.5557 6.9 21.5557 6.9H21.5557H21.5557C21.5557 6.9 21.5557 6.9 21.5557 6.9C21.5557 6.9 21.5557 6.9 21.5557 6.9C21.5557 6.9 21.5557 6.9 21.5557 6.9V5.1C21.5557 5.1 21.5557 5.1 21.5557 5.1C21.5557 5.1 21.5557 5.1 21.5557 5.1C21.5557 5.1 21.5557 5.1 21.5557 5.1H21.5557H21.5557C21.5557 5.1 21.5557 5.1 21.5557 5.1C21.5557 5.1 21.5557 5.1 21.5557 5.1C21.5557 5.1 21.5557 5.1 21.5557 5.1C21.5557 5.1 21.5557 5.1 21.5557 5.1H21.5557H21.5557C21.5557 5.1 21.5557 5.1 21.5557 5.1C21.5557 5.1 21.5557 5.1 21.5557 5.1C21.5557 5.1 21.5557 5.1 21.5557 5.1V6.9ZM20.4294 7.28565C20.8094 7.02147 21.1867 6.9 21.5557 6.9L21.5557 5.1C20.7662 5.1 20.0368 5.36636 19.4019 5.80769L20.4294 7.28565ZM16.0566 8.78169L20.2002 7.40049L19.631 5.69286L15.4874 7.07406L16.0566 8.78169Z" fill="white"/>
<path d="M17.4143 16.6058L16.5359 16.8018L16.7276 17.661L17.5908 17.4883L17.4143 16.6058ZM17.4143 10.9492L17.5908 10.0667L16.7276 9.89406L16.5359 10.7532L17.4143 10.9492ZM18.2656 11.1195L18.4421 10.237L18.2656 11.1195ZM18.2656 16.4355L18.4421 17.3181H18.4421L18.2656 16.4355ZM18.2927 16.4098C18.1119 15.5996 18.0113 14.7115 18.0113 13.7775H16.2113C16.2113 14.8392 16.3255 15.8589 16.5359 16.8018L18.2927 16.4098ZM18.0113 13.7775C18.0113 12.8436 18.1119 11.9555 18.2927 11.1452L16.5359 10.7532C16.3255 11.6961 16.2113 12.7159 16.2113 13.7775H18.0113ZM17.2378 11.8317L18.0891 12.002L18.4421 10.237L17.5908 10.0667L17.2378 11.8317ZM18.0891 12.002C18.9354 12.1713 19.5447 12.9144 19.5447 13.7775H21.3447C21.3447 12.0564 20.1298 10.5745 18.4421 10.237L18.0891 12.002ZM19.5447 13.7775C19.5447 14.6406 18.9354 15.3838 18.0891 15.553L18.4421 17.3181C20.1298 16.9805 21.3447 15.4987 21.3447 13.7775H19.5447ZM18.0891 15.553L17.2378 15.7233L17.5908 17.4883L18.4421 17.3181L18.0891 15.553Z" fill="white"/>
<ellipse cx="21.5558" cy="13.7778" rx="4.44444" ry="7.77778" stroke="white" stroke-width="1.8"/>
</svg>
