<svg width="24" height="24" viewBox="0 0 24 24" fill="none" xmlns="http://www.w3.org/2000/svg">
<path d="M11.3867 3.5166C11.7208 3.01894 12.381 2.8584 12.9072 3.13477L13.0107 3.19531C13.107 3.25901 13.1929 3.33667 13.2656 3.4248L13.334 3.5166L15.9814 7.46094L16.1865 7.76562L16.5391 7.86523L21.1543 9.1748C21.7391 9.34092 22.0842 9.91415 21.9814 10.4844L21.9551 10.5986C21.9219 10.7139 21.8708 10.8233 21.8037 10.9229L21.7305 11.0195L18.3916 14.998L18.1045 15.3408L18.168 15.7832L18.7285 19.6846C18.8125 20.2692 18.4349 20.8227 17.8564 20.9648L17.7383 20.9883C17.5119 21.0203 17.2823 20.9854 17.0771 20.8906L16.9902 20.8467L12.8535 18.499L12.3604 18.2188L11.8662 18.499L7.73047 20.8467C7.20152 21.1468 6.53918 20.9917 6.19629 20.5156L6.13184 20.416C6.02007 20.2217 5.96841 20.0003 5.98145 19.7793L5.99121 19.6846L6.54395 15.8428L6.61523 15.3447L6.25879 14.9912L2.33984 11.0986C1.91516 10.6769 1.88809 10.0117 2.25977 9.55957L2.33984 9.47266C2.45184 9.36144 2.58546 9.27417 2.73242 9.21582L2.88379 9.16699L8.16113 7.85645L8.53516 7.76367L8.75 7.44336L11.3867 3.5166Z" stroke="white" stroke-width="2"/>
</svg>
