<svg width="36" height="37" viewBox="0 0 36 37" fill="none" xmlns="http://www.w3.org/2000/svg">
<circle cx="18" cy="18.8" r="18" fill="#C41432"/>
<path fill-rule="evenodd" clip-rule="evenodd" d="M14.7243 8.11702L10.3236 12.5178C9.89215 12.9492 9.89215 13.6487 10.3236 14.0801C10.755 14.5115 11.4544 14.5115 11.8858 14.0801L14.4053 11.5496L14.4053 24.3009C14.4053 24.9085 14.8979 25.4011 15.5055 25.4011C16.1131 25.4011 16.6057 24.9085 16.6057 24.3009L16.6057 8.89822C16.6035 8.45402 16.3344 8.05472 15.9236 7.88602C15.5138 7.71372 15.0407 7.80482 14.7243 8.11702Z" fill="white"/>
<path fill-rule="evenodd" clip-rule="evenodd" d="M18.8061 13.299L18.8061 28.7018C18.8083 29.146 19.0773 29.5452 19.4882 29.714C19.8979 29.8863 20.371 29.7951 20.6874 29.483L25.0882 25.0822C25.2965 24.8756 25.4136 24.5944 25.4136 24.301C25.4136 24.0077 25.2965 23.7265 25.0882 23.5199C24.8816 23.3116 24.6004 23.1945 24.307 23.1945C24.0137 23.1945 23.7325 23.3116 23.5259 23.5199L21.0065 26.0503L21.0065 13.299C21.0065 12.6915 20.5139 12.1988 19.9063 12.1988C19.2986 12.1988 18.8061 12.6915 18.8061 13.299Z" fill="white"/>
</svg>
