<svg width="24" height="24" viewBox="0 0 24 24" fill="none" xmlns="http://www.w3.org/2000/svg">
<ellipse cx="11.9406" cy="11.9355" rx="7.94644" ry="7.94331" stroke="#202020" stroke-width="1.4"/>
<path d="M11.9395 12.4326H11.2395V12.7226L11.4446 12.9277L11.9395 12.4326ZM12.6395 8.46094C12.6395 8.07434 12.3261 7.76094 11.9395 7.76094C11.5529 7.76094 11.2395 8.07434 11.2395 8.46094H12.6395ZM12.6395 12.4326V8.46094H11.2395V12.4326H12.6395ZM11.4446 12.9277L13.4312 14.9135L14.4209 13.9233L12.4343 11.9375L11.4446 12.9277Z" fill="#EA2F2A"/>
<path d="M3 5.10547L5.10712 2.99918" stroke="#EA2F2A" stroke-width="1.4" stroke-linecap="round"/>
<path d="M18.8926 3L20.9997 5.10629" stroke="#EA2F2A" stroke-width="1.4" stroke-linecap="round"/>
<path d="M4.49126 20.5051C4.21784 20.7784 4.21784 21.2216 4.49126 21.4949C4.76468 21.7682 5.20798 21.7682 5.4814 21.4949L4.49126 20.5051ZM5.4814 21.4949L7.58852 19.3886L6.59837 18.3988L4.49126 20.5051L5.4814 21.4949Z" fill="#202020"/>
<path d="M19.5084 20.5059C19.7819 20.7793 19.7819 21.2224 19.5084 21.4957C19.235 21.769 18.7917 21.769 18.5183 21.4957L19.5084 20.5059ZM17.4013 18.3997L19.5084 20.5059L18.5183 21.4957L16.4112 19.3894L17.4013 18.3997Z" fill="#202020"/>
</svg>
