<svg width="81" height="80" viewBox="0 0 81 80" fill="none" xmlns="http://www.w3.org/2000/svg">
<path fill-rule="evenodd" clip-rule="evenodd" d="M20.5 6.66663H60.5C62.341 6.66663 63.8333 8.15901 63.8333 9.99996C63.8333 11.7094 62.5467 13.1183 60.8887 13.3109L60.5 13.3333H20.5C18.6591 13.3333 17.1667 11.8409 17.1667 9.99996C17.1667 8.29051 18.4535 6.8816 20.1113 6.68905L20.5 6.66663ZM60.5 22.1781H20.5C18.5255 22.1781 16.9838 23.8848 17.1838 25.8492L17.8409 32.3016H13.8333L13.4446 32.324C11.7868 32.5165 10.5 33.9254 10.5 35.6349C10.5 37.4758 11.9924 38.9682 13.8333 38.9682H18.5199L21.407 67.3173C21.5803 69.0186 23.013 70.313 24.7232 70.313H56.2767C57.987 70.313 59.4197 69.0186 59.593 67.3173L62.48 38.9682H67.1667L67.5553 38.9458C69.2133 38.7532 70.5 37.3443 70.5 35.6349C70.5 33.7939 69.0077 32.3016 67.1667 32.3016H63.159L63.8163 25.8492C64.0163 23.8848 62.4743 22.1781 60.5 22.1781ZM56.81 28.8416L53.2667 63.645H27.73L24.1867 28.8416H56.81Z" fill="#202020"/>
<path fill-rule="evenodd" clip-rule="evenodd" d="M20.4993 6.66663H60.4993C62.3403 6.66663 63.8327 8.15901 63.8327 9.99996C63.8327 11.7094 62.546 13.1183 60.888 13.3109L60.4993 13.3333H20.4993C18.6584 13.3333 17.166 11.8409 17.166 9.99996C17.166 8.29051 18.4528 6.8816 20.1106 6.68905L20.4993 6.66663Z" fill="#EA2F2A"/>
</svg>
