<svg width="32" height="32" viewBox="0 0 32 32" fill="none" xmlns="http://www.w3.org/2000/svg">
<g clip-path="url(#clip0_795_40921)">
<path fill-rule="evenodd" clip-rule="evenodd" d="M0 8C0 3.58172 3.58172 0 8 0H24C28.4183 0 32 3.58172 32 8V24C32 28.4183 28.4183 32 24 32H8C3.58172 32 0 28.4183 0 24V8ZM22.4167 11.3333H21.5V10.4167C21.5 8.89788 20.2687 7.66667 18.75 7.66667H9.58333C8.06455 7.66667 6.83333 8.89788 6.83333 10.4167V11.3333V21.4167C6.83333 22.9354 8.06455 24.1667 9.58333 24.1667H22.4167C23.9354 24.1667 25.1667 22.9354 25.1667 21.4167V14.0833C25.1667 12.5646 23.9354 11.3333 22.4167 11.3333ZM9.58333 11.3333H19.6667V10.4167C19.6667 9.97369 19.3524 9.6041 18.9347 9.51862C18.8751 9.50641 18.8133 9.5 18.75 9.5H9.58333C9.07708 9.5 8.66667 9.91041 8.66667 10.4167C8.66667 10.9229 9.07708 11.3333 9.58333 11.3333ZM23.3333 18.6667H22.4167C21.9104 18.6667 21.5 18.2563 21.5 17.75C21.5 17.2438 21.9104 16.8333 22.4167 16.8333H23.3333V18.6667ZM23.3333 15H22.4167C20.8979 15 19.6667 16.2313 19.6667 17.75C19.6667 19.2688 20.8979 20.5 22.4167 20.5H23.3333V21.4167C23.3333 21.9229 22.9229 22.3333 22.4167 22.3333H9.58333C9.07708 22.3333 8.66667 21.9229 8.66667 21.4167V13.0108C8.96116 13.1144 9.27115 13.1671 9.58333 13.1667H22.4167C22.9229 13.1667 23.3333 13.5771 23.3333 14.0833V15Z" fill="#EA2F2A"/>
</g>
<defs>
<clipPath id="clip0_795_40921">
<rect width="32" height="32" rx="8" fill="white"/>
</clipPath>
</defs>
</svg>
