<svg width="44" height="44" viewBox="0 0 44 44" fill="none" xmlns="http://www.w3.org/2000/svg">
<g clip-path="url(#clip0_835_45570)" filter="url(#filter0_d_835_45570)">
<path fill-rule="evenodd" clip-rule="evenodd" d="M6 12C6 7.58172 9.58172 4 14 4H30C34.4183 4 38 7.58172 38 12V28C38 32.4183 34.4183 36 30 36H14C9.58172 36 6 32.4183 6 28V12ZM28.4167 15.3333H27.5V14.4167C27.5 12.8979 26.2687 11.6667 24.75 11.6667H15.5833C14.0645 11.6667 12.8333 12.8979 12.8333 14.4167V15.3333V25.4167C12.8333 26.9354 14.0645 28.1667 15.5833 28.1667H28.4167C29.9354 28.1667 31.1667 26.9354 31.1667 25.4167V18.0833C31.1667 16.5646 29.9354 15.3333 28.4167 15.3333ZM15.5833 15.3333H25.6667V14.4167C25.6667 13.9737 25.3524 13.6041 24.9347 13.5186C24.8751 13.5064 24.8133 13.5 24.75 13.5H15.5833C15.0771 13.5 14.6667 13.9104 14.6667 14.4167C14.6667 14.9229 15.0771 15.3333 15.5833 15.3333ZM29.3333 22.6667H28.4167C27.9104 22.6667 27.5 22.2563 27.5 21.75C27.5 21.2438 27.9104 20.8333 28.4167 20.8333H29.3333V22.6667ZM29.3333 19H28.4167C26.8979 19 25.6667 20.2313 25.6667 21.75C25.6667 23.2688 26.8979 24.5 28.4167 24.5H29.3333V25.4167C29.3333 25.9229 28.9229 26.3333 28.4167 26.3333H15.5833C15.0771 26.3333 14.6667 25.9229 14.6667 25.4167V17.0108C14.9612 17.1144 15.2711 17.1671 15.5833 17.1667H28.4167C28.9229 17.1667 29.3333 17.5771 29.3333 18.0833V19Z" fill="white"/>
</g>
<defs>
<filter id="filter0_d_835_45570" x="0" y="0" width="44" height="44" filterUnits="userSpaceOnUse" color-interpolation-filters="sRGB">
<feFlood flood-opacity="0" result="BackgroundImageFix"/>
<feColorMatrix in="SourceAlpha" type="matrix" values="0 0 0 0 0 0 0 0 0 0 0 0 0 0 0 0 0 0 127 0" result="hardAlpha"/>
<feOffset dy="2"/>
<feGaussianBlur stdDeviation="3"/>
<feComposite in2="hardAlpha" operator="out"/>
<feColorMatrix type="matrix" values="0 0 0 0 0 0 0 0 0 0 0 0 0 0 0 0 0 0 0.2 0"/>
<feBlend mode="normal" in2="BackgroundImageFix" result="effect1_dropShadow_835_45570"/>
<feBlend mode="normal" in="SourceGraphic" in2="effect1_dropShadow_835_45570" result="shape"/>
</filter>
<clipPath id="clip0_835_45570">
<rect width="32" height="32" fill="white" transform="translate(6 4)"/>
</clipPath>
</defs>
</svg>
