<svg width="44" height="44" viewBox="0 0 44 44" fill="none" xmlns="http://www.w3.org/2000/svg">
<g filter="url(#filter0_d_835_45580)">
<path fill-rule="evenodd" clip-rule="evenodd" d="M30 36C34.4183 36 38 32.4183 38 28L38 12C38 7.58172 34.4183 4 30 4L14 4C9.58172 4 6 7.58173 6 12L6 28C6 32.4183 9.58172 36 14 36L30 36ZM25.9375 28.0008C26.4898 28.0008 26.9375 27.5531 26.9375 27.0008C26.9375 26.4485 26.4898 26.0008 25.9375 26.0008L18 26.0008C17.4477 26.0008 17 26.4485 17 27.0008C17 27.5531 17.4477 28.0008 18 28.0008L25.9375 28.0008ZM23 12.9992L23 20.5593L25.2952 18.2695C25.6862 17.8794 26.3193 17.8801 26.7094 18.2711C27.0995 18.6621 27.0987 19.2952 26.7078 19.6853L22.8141 23.57C22.6327 23.8237 22.3357 23.9891 22 23.9891C21.79 23.9891 21.5951 23.9244 21.4341 23.8137C21.379 23.777 21.3273 23.7347 21.2798 23.6871L17.2901 19.6822C16.9003 19.2909 16.9015 18.6578 17.2928 18.268C17.684 17.8782 18.3172 17.8794 18.707 18.2707L21 20.5724L21 12.9992C21 12.4469 21.4477 11.9992 22 11.9992C22.5523 11.9992 23 12.4469 23 12.9992Z" fill="white"/>
</g>
<defs>
<filter id="filter0_d_835_45580" x="0" y="0" width="44" height="44" filterUnits="userSpaceOnUse" color-interpolation-filters="sRGB">
<feFlood flood-opacity="0" result="BackgroundImageFix"/>
<feColorMatrix in="SourceAlpha" type="matrix" values="0 0 0 0 0 0 0 0 0 0 0 0 0 0 0 0 0 0 127 0" result="hardAlpha"/>
<feOffset dy="2"/>
<feGaussianBlur stdDeviation="3"/>
<feComposite in2="hardAlpha" operator="out"/>
<feColorMatrix type="matrix" values="0 0 0 0 0 0 0 0 0 0 0 0 0 0 0 0 0 0 0.2 0"/>
<feBlend mode="normal" in2="BackgroundImageFix" result="effect1_dropShadow_835_45580"/>
<feBlend mode="normal" in="SourceGraphic" in2="effect1_dropShadow_835_45580" result="shape"/>
</filter>
</defs>
</svg>
