<svg width="127" height="20" viewBox="0 0 127 20" fill="none" xmlns="http://www.w3.org/2000/svg">
<path fill-rule="evenodd" clip-rule="evenodd" d="M8.96819 0.0319411C8.41419 0.0902304 7.387 0.317549 6.83805 0.503238C6.11558 0.747647 5.21751 1.15186 5.21751 1.23253C5.21751 1.27809 7.61173 4.09848 8.29184 4.85403L8.44555 5.02483L8.9067 4.89461C9.56153 4.70966 10.8232 4.71181 11.5124 4.89897C13.3407 5.39541 14.8132 6.86949 15.3127 8.70351C15.4154 9.08042 15.443 9.35773 15.443 10.0119C15.443 11.0063 15.322 11.5344 14.9004 12.3791C14.0532 14.0767 12.4468 15.1198 9.89049 15.6321C8.71388 15.8679 7.88978 15.9132 4.76823 15.914C1.89152 15.9146 1.89028 15.9147 1.97741 16.039C2.24439 16.4201 2.91256 17.1472 3.3375 17.5188C4.68737 18.6993 6.23726 19.4781 7.99983 19.8615C8.54565 19.9803 8.81515 19.9988 10.0135 19.9999C11.2301 20.0011 11.4747 19.9843 12.0425 19.8603C16.0525 18.9849 18.9867 16.0454 19.8635 12.0255C19.983 11.4775 20.0009 11.2149 20.0009 10.0119C20.0009 8.81259 19.9828 8.54537 19.8647 8.00448C18.8263 3.24591 14.7403 -0.0532123 9.95197 0.000649915C9.52925 0.00538438 9.08655 0.0194593 8.96819 0.0319411ZM3.6496 2.25487C3.21796 2.61327 2.08169 3.77666 2.08169 3.86022C2.08169 3.90621 6.04795 6.56864 6.11644 6.56864C6.13759 6.56864 6.32703 6.40761 6.53738 6.21079C6.74779 6.01403 7.08885 5.74263 7.29526 5.60772L7.67064 5.36246L5.93641 3.62909C4.98257 2.67568 4.1747 1.89609 4.14113 1.89659C4.10749 1.89708 3.88632 2.05836 3.6496 2.25487ZM1.14322 5.32397C0.874405 5.83387 0.486424 6.77751 0.400773 7.12995C0.361606 7.29105 0.368185 7.29424 2.61189 8.19397C3.84962 8.69029 4.8706 9.08793 4.88075 9.0776C4.89083 9.06727 4.94494 8.879 5.00089 8.65918C5.05684 8.43937 5.21351 8.0287 5.34903 7.74654C5.4846 7.46437 5.58219 7.22021 5.56589 7.20398C5.50625 7.14434 1.51122 4.78553 1.46984 4.78553C1.44635 4.78553 1.2994 5.02785 1.14322 5.32397ZM7.94979 6.56993C7.37218 6.858 7.00136 7.14459 7.09285 7.23239C7.17948 7.31552 10.6813 9.64297 10.7198 9.64297C10.7371 9.64297 10.7513 9.35909 10.7513 9.01206V8.38114L9.72072 7.35192C9.07874 6.71074 8.64409 6.32269 8.56785 6.32269C8.50058 6.32275 8.22248 6.43398 7.94979 6.56993ZM6.21617 8.20867C5.99082 8.64307 5.72741 9.37821 5.78054 9.42451C5.8253 9.46343 10.6339 11.3031 10.6909 11.3031C10.7263 11.3031 10.7513 11.053 10.7513 10.6984V10.0937L8.72138 8.94005C7.60497 8.30557 6.64074 7.77316 6.5787 7.75693C6.48936 7.73357 6.41398 7.82751 6.21617 8.20867ZM0.0888517 8.54986C0.0665935 8.62691 0.0316696 9.10496 0.011256 9.61222C-0.0320305 10.6884 0.047348 11.5075 0.28733 12.4613L0.452299 13.117L5.6018 13.1327L10.7513 13.1484V12.4526V11.7568L8.2705 10.9765C6.90605 10.5474 5.75779 10.1963 5.71881 10.1963C5.58458 10.1963 5.68807 11.8446 5.86705 12.5574C6.00103 13.091 5.3588 12.0439 5.12884 11.3538C5.04233 11.0942 4.94156 10.6654 4.90479 10.4008C4.86802 10.1361 4.83002 9.91166 4.82037 9.90182C4.81065 9.89205 3.81002 9.57134 2.59677 9.1892C1.38351 8.807 0.33197 8.47527 0.260092 8.45203C0.157778 8.41895 0.120579 8.44023 0.0888517 8.54986ZM0.75758 13.8702C0.780637 13.9632 0.943269 14.3159 1.119 14.6541L1.43842 15.269L5.10529 15.2849L8.77217 15.3007L9.24389 14.793L9.71562 14.2852L7.49976 14.2691L5.28385 14.2529L5.05322 13.977L4.82252 13.7011H2.76911H0.715646L0.75758 13.8702Z" fill="#E40414"/>
<path fill-rule="evenodd" clip-rule="evenodd" d="M69.932 4.61739C68.9037 4.8126 68.1265 5.35409 67.7372 6.14658C67.5048 6.61977 67.4318 6.94973 67.4297 7.53668C67.4266 8.40229 67.6601 9.01481 68.207 9.5753C68.5996 9.97769 69.0692 10.2748 70.2496 10.8678C71.3113 11.4011 71.6825 11.6718 71.8458 12.0311C72.0605 12.5036 71.8472 13.0645 71.3574 13.3156C71.0928 13.4513 70.5926 13.4789 70.2372 13.3775C69.7221 13.2306 69.2678 12.8358 69.0164 12.3164L68.9162 12.1094L68.032 12.5337C67.5457 12.767 67.1379 12.9837 67.1258 13.0152C67.1137 13.0467 67.1666 13.2068 67.2435 13.371C67.6813 14.3066 68.4548 14.9962 69.4068 15.2996C69.8625 15.4448 70.9649 15.4818 71.515 15.3704C72.7406 15.122 73.582 14.4166 73.9505 13.3283C74.0484 13.0392 74.0807 12.8412 74.0977 12.4252C74.1239 11.7876 74.0488 11.4048 73.8079 10.9477C73.4253 10.2218 72.9352 9.84076 71.4455 9.11087C70.8592 8.82363 70.2523 8.49487 70.0968 8.38038C69.5071 7.94625 69.4058 7.30606 69.8557 6.85613C70.1796 6.53224 70.8094 6.45472 71.3118 6.67695C71.5777 6.7946 71.9255 7.15459 72.068 7.45971C72.13 7.59238 72.1945 7.69529 72.2114 7.68834C72.7932 7.44873 73.971 6.88079 73.971 6.83987C73.971 6.73418 73.7737 6.3316 73.5717 6.02523C73.1434 5.3754 72.4236 4.85717 71.6773 4.66126C71.2803 4.55705 70.3703 4.53421 69.932 4.61739ZM83.1456 9.89984V15.2517H84.1877H85.2298L85.2418 13.2792L85.2539 11.3068L86.5282 13.278L87.8024 15.2493L89.0419 15.2505C89.7237 15.2512 90.2814 15.2415 90.2814 15.2291C90.2814 15.2167 89.6246 14.2584 88.8218 13.0996C88.0191 11.9408 87.3622 10.9808 87.3622 10.9663C87.3622 10.9517 87.9773 10.1476 88.7292 9.17931C89.481 8.21101 90.0961 7.40847 90.0961 7.39587C90.0961 7.38326 89.5594 7.37849 88.9034 7.3853L87.7107 7.39767L86.4823 9.00694L85.2539 10.6162L85.242 7.58209L85.2301 4.54797H84.1879H83.1456V9.89984ZM104.877 4.75561C104.407 4.90759 104.135 5.29117 104.137 5.80212C104.138 6.17508 104.245 6.42168 104.5 6.63984C104.715 6.82384 104.956 6.91114 105.248 6.91114C105.687 6.91114 106.105 6.6568 106.273 6.28819C106.463 5.87014 106.343 5.25414 106.019 4.98085C105.72 4.72873 105.249 4.63573 104.877 4.75561ZM27.3404 4.94633C24.8421 5.39769 23.0021 7.59979 23.001 10.1398C23.0004 11.552 23.4988 12.8066 24.4581 13.8076C24.9466 14.3173 25.3251 14.5968 25.9432 14.9042C26.8034 15.332 27.7435 15.5105 28.7316 15.4338C32.0028 15.1795 34.244 12.0305 33.4272 8.83665C32.9119 6.82199 31.2259 5.27106 29.1925 4.94128C28.6706 4.85662 27.8241 4.85894 27.3404 4.94633ZM38.7365 4.94383C37.5904 5.15998 36.6583 5.6663 35.8429 6.5157C35.2189 7.16557 34.7849 7.93258 34.5492 8.80139C34.4376 9.21327 34.4271 9.32717 34.4253 10.1547C34.4234 11.0017 34.4313 11.0873 34.5512 11.5216C34.9634 13.0154 35.9463 14.2195 37.3126 14.9044C38.0755 15.2869 38.7822 15.4465 39.7012 15.4438C40.5926 15.4412 41.303 15.2768 42.0582 14.8984C42.5787 14.6377 43.5279 13.9294 43.5279 13.8018C43.5279 13.7802 43.193 13.2945 42.7836 12.7224L42.0394 11.6822L41.7005 12.0421C40.9902 12.7965 40.1023 13.102 39.1666 12.914C37.8514 12.6497 36.8973 11.5244 36.8903 10.2291C36.886 9.43828 37.1531 8.78749 37.7107 8.22983C38.4702 7.47032 39.5431 7.20852 40.518 7.54469C41.0222 7.71855 41.3669 7.94838 41.745 8.36268C42.0309 8.67582 42.0487 8.68749 42.1106 8.60084C42.1464 8.55075 42.4902 8.07187 42.8745 7.53668L43.5733 6.56361L43.2677 6.2698C42.6714 5.69652 41.8609 5.25442 40.9872 5.02593C40.4133 4.87585 39.3104 4.83563 38.7365 4.94383ZM57.2981 4.93928C53.7375 5.61464 51.8754 9.5121 53.5886 12.7032C54.9711 15.2783 58.2845 16.2188 60.8733 14.7712C61.1946 14.5915 61.763 14.1565 61.9813 13.9233L62.1085 13.7873L61.3859 12.7703C60.9884 12.211 60.6431 11.7325 60.6185 11.707C60.5892 11.6764 60.5562 11.6923 60.5219 11.7533C60.4932 11.8043 60.3656 11.9563 60.2382 12.0912C59.3502 13.0312 57.9409 13.2322 56.8305 12.5773C56.3859 12.315 55.9791 11.881 55.7586 11.4334C55.453 10.8133 55.3744 10.2492 55.5061 9.62182C55.7707 8.36128 56.9186 7.41611 58.1934 7.40907C58.699 7.40629 59.085 7.49979 59.5277 7.73245C59.8351 7.89398 60.3381 8.32876 60.4999 8.57267C60.5397 8.63282 60.593 8.66919 60.6183 8.65358C60.7273 8.5862 62.116 6.57969 62.0938 6.52172C62.0585 6.42979 61.4437 5.90971 61.1426 5.71709C60.7161 5.44431 60.0526 5.15257 59.5731 5.02705C59.0076 4.879 57.8511 4.83438 57.2981 4.93928ZM44.5009 10.154V15.3038L46.9915 15.2872L49.4821 15.2706L49.9272 15.1497C50.633 14.9579 51.0414 14.7345 51.477 14.3018C52.0701 13.7126 52.2928 13.1364 52.2911 12.1954C52.2897 11.417 52.1099 10.912 51.6668 10.4424C51.5356 10.3033 51.3196 10.128 51.1869 10.0529L50.9455 9.91629L51.239 9.64175C51.7521 9.16175 51.9792 8.59148 51.9758 7.79153C51.9705 6.57316 51.3406 5.67641 50.2159 5.28589C49.5373 5.05026 49.488 5.04637 46.922 5.02464L44.5009 5.00411V10.154ZM108.075 6.56361V7.3745H107.658H107.241V8.2549V9.13529H107.654H108.068L108.088 11.1162C108.11 13.3147 108.127 13.459 108.421 14.0825C108.723 14.7214 109.282 15.1531 109.998 15.3008C110.294 15.3619 111.3 15.3762 111.543 15.3227L111.689 15.2907V14.3953V13.4999L111.26 13.4838C110.555 13.4574 110.314 13.2569 110.209 12.6104C110.182 12.4417 110.16 11.6115 110.16 10.7223L110.16 9.13529H110.901H111.643V8.2549V7.3745H110.901H110.16V6.56361V5.75272H109.117H108.075V6.56361ZM47.0031 8.13905V9.18163H47.7592C48.293 9.18163 48.5835 9.16138 48.7471 9.11282C49.4296 8.91014 49.6891 7.97706 49.2135 7.43548C48.949 7.13411 48.8057 7.09866 47.8488 7.0975L47.0031 7.09648V8.13905ZM77.9242 7.23257C76.2821 7.49493 75.105 8.66372 74.7481 10.3861C74.6156 11.0257 74.6507 12.043 74.8257 12.6314C75.2756 14.1444 76.4107 15.1407 77.9713 15.3924C78.4901 15.4762 79.554 15.4275 79.9929 15.3C80.5651 15.1339 81.112 14.8214 81.5395 14.4166C81.7475 14.2197 81.9626 13.9777 82.0176 13.8789L82.1175 13.6994L81.4281 13.1769L80.7387 12.6543L80.4644 12.9286C79.224 14.169 77.0978 13.6379 76.8252 12.0197L76.7998 11.8691H79.5557H82.3115V11.296C82.3115 9.20025 81.3208 7.73815 79.624 7.32988C79.183 7.22377 78.2968 7.17303 77.9242 7.23257ZM102.439 7.25824C101.997 7.35439 101.643 7.54613 101.33 7.85812C101.175 8.01265 101.015 8.19118 100.973 8.2549C100.9 8.36601 100.897 8.3504 100.895 7.87262L100.892 7.3745H99.8499H98.8074V11.3131V15.2517H99.8731H100.939V13.2805C100.939 11.1307 100.964 10.8544 101.206 10.34C101.444 9.83576 101.96 9.46326 102.526 9.3882C102.634 9.37388 102.791 9.35187 102.873 9.33926L103.024 9.31642V8.25281V7.18916L102.873 7.19282C102.791 7.19485 102.595 7.22432 102.439 7.25824ZM115.343 7.23396C114.921 7.28776 114.325 7.44169 113.886 7.61017C113.456 7.77518 112.944 8.05199 112.911 8.1366C112.895 8.17858 113.543 9.43708 113.658 9.58744C113.663 9.59402 113.823 9.52702 114.015 9.43856C114.633 9.15285 115.017 9.06801 115.697 9.06685C116.264 9.06583 116.313 9.0732 116.538 9.19163C116.976 9.42285 117.157 9.74684 117.157 10.3039V10.6045L116.937 10.4995C116.192 10.1442 115.01 10.114 114.149 10.4283C113.359 10.7168 112.857 11.1964 112.568 11.9386C112.421 12.3143 112.406 13.2355 112.54 13.6299C112.714 14.1433 112.972 14.5093 113.38 14.8214C113.941 15.2503 114.552 15.4371 115.391 15.4371C116.172 15.4371 116.672 15.2929 117.095 14.9464C117.209 14.853 117.296 14.8085 117.296 14.8432C117.296 14.8767 117.318 14.9824 117.344 15.0779L117.393 15.2517H118.345H119.297L119.275 12.4368C119.256 10.0429 119.241 9.57331 119.177 9.29747C118.928 8.23868 118.271 7.58709 117.19 7.32738C116.753 7.22215 115.81 7.17447 115.343 7.23396ZM122.74 7.23767C121.809 7.38395 121.065 7.85742 120.735 8.51387C120.321 9.33713 120.442 10.3934 121.027 11.0716C121.363 11.461 121.879 11.7483 123.028 12.1857C123.736 12.4551 124.041 12.6445 124.137 12.8756C124.33 13.3368 123.917 13.7196 123.224 13.7216C122.624 13.7233 122.167 13.5376 121.712 13.1074C121.553 12.9577 121.45 12.8924 121.411 12.9163C121.313 12.975 120.215 13.9682 120.215 13.9976C120.215 14.0124 120.303 14.1318 120.412 14.263C120.81 14.7454 121.352 15.0961 122.022 15.3054C122.332 15.4023 122.456 15.4137 123.18 15.4118C123.934 15.4098 124.018 15.4008 124.362 15.2855C125.074 15.0469 125.667 14.5802 125.939 14.0439C126.184 13.5606 126.254 12.9017 126.121 12.3365C125.911 11.4444 125.304 10.9546 123.736 10.4097C122.745 10.0652 122.508 9.89141 122.508 9.5071C122.508 9.24567 122.599 9.11935 122.879 8.99077C123.118 8.88132 123.379 8.88155 123.733 8.99151C124.024 9.08233 124.428 9.35418 124.552 9.54291C124.591 9.60218 124.649 9.64416 124.682 9.63624C124.773 9.61413 126.049 8.6545 126.051 8.60668C126.052 8.58356 125.966 8.45145 125.859 8.31309C125.504 7.85302 124.899 7.46982 124.269 7.30565C123.924 7.21566 123.111 7.17952 122.74 7.23767ZM28.0515 7.40212C27.1046 7.55591 26.4571 7.93647 25.9973 8.60946C25.2334 9.72747 25.3731 11.1999 26.333 12.1472C26.8734 12.6805 27.5325 12.9528 28.2832 12.9528C29.2342 12.9528 30.0586 12.5075 30.5965 11.7034C31.5426 10.2887 30.9822 8.36166 29.4184 7.65201C29.0085 7.46602 28.3732 7.34989 28.0515 7.40212ZM90.7579 10.1663C90.7776 13.1507 90.7795 13.1775 91.0238 13.8305C91.1817 14.2526 91.3469 14.5154 91.6296 14.7943C92.0887 15.2471 92.6218 15.4371 93.4337 15.4371C94.2005 15.4371 94.7516 15.2274 95.2444 14.7481L95.5175 14.4826V14.8672V15.2517H96.56H97.6026V11.3131V7.3745H96.5369H95.4711V9.91476C95.4711 12.7661 95.4769 12.711 95.1376 13.0964C94.8772 13.3923 94.6436 13.5017 94.218 13.5272C93.7736 13.5537 93.4672 13.4352 93.2024 13.1344C92.8489 12.7329 92.8574 12.8078 92.8406 9.93459L92.8256 7.3745H91.7825H90.7395L90.7579 10.1663ZM104.182 11.3131V15.2517H105.248H106.314V11.3131V7.3745H105.248H104.182V11.3131ZM78.0173 9.01398C77.4655 9.19409 76.9978 9.74109 76.9046 10.3152L76.878 10.479H78.535H80.1919L80.1618 10.2821C80.1177 9.99381 79.8791 9.5361 79.6831 9.36405C79.3878 9.10471 79.0508 8.97988 78.6046 8.96445C78.3612 8.95601 78.1369 8.97496 78.0173 9.01398ZM47.0031 12.0545V13.2592H47.8817C48.6531 13.2592 48.7913 13.2477 49.0134 13.1646C49.4367 13.0062 49.7287 12.6137 49.7711 12.146C49.8045 11.7772 49.6876 11.4466 49.4339 11.1929C49.1368 10.8958 48.9276 10.8497 47.8751 10.8497H47.0031V12.0545ZM115.476 11.7312C115.087 11.8296 114.716 12.1186 114.605 12.4102C114.541 12.5775 114.552 12.9624 114.626 13.1333C114.714 13.338 114.957 13.5583 115.234 13.6841C115.418 13.7681 115.55 13.7896 115.882 13.7907C116.255 13.792 116.329 13.7772 116.577 13.6531C117.658 13.1127 117.256 11.7732 115.992 11.7055C115.804 11.6954 115.572 11.7071 115.476 11.7312Z" fill="#E40414"/>
</svg>
