<svg width="89" height="24" viewBox="0 0 89 24" fill="none" xmlns="http://www.w3.org/2000/svg">
<g clip-path="url(#clip0_2831_39874)">
<path d="M11.9999 0C9.92037 0 7.96596 0.531476 6.26075 1.46225L8.52575 4.12085L10.134 5.9565C10.7823 5.7349 11.4768 5.6129 12.2002 5.6129C15.7277 5.6129 18.5873 8.4725 18.5873 12C18.5873 14.4876 17.1643 16.6414 15.0888 17.6961C14.9599 17.7706 12.6209 19.0907 8.61663 19.0907L2.30713 19.0718C4.48988 22.0584 8.01735 24 11.9999 24C18.6273 24 23.9999 18.6274 23.9999 12C23.9999 5.37258 18.6273 0 11.9999 0Z" fill="#EA2F2A"/>
<path d="M2.52393 4.64173L7.34649 7.8505C7.84711 7.26545 8.45063 6.77135 9.13048 6.39801L4.95044 2.29102C4.03501 2.95688 3.21822 3.74887 2.52393 4.64173Z" fill="#EA2F2A"/>
<path d="M6.95288 11.256L12.8648 13.5345V12.1366L7.83063 9.27539C7.43398 9.79789 7.12368 10.4481 6.95288 11.256Z" fill="#EA2F2A"/>
<path d="M8.46802 8.59775L12.8648 11.5232V10.0681L10.3226 7.57031C9.68084 7.78511 9.03149 8.10988 8.46802 8.59775Z" fill="#EA2F2A"/>
<path d="M12.8648 15.7356V14.1256L6.8221 12.2238C6.763 13.1511 6.86304 14.2469 7.17603 15.5415C7.17603 15.5415 5.7969 14.109 5.7872 11.8981L0.147994 10.1233L0.147027 10.123C0.0509852 10.7346 0 11.3612 0 11.9997C0 13.3044 0.209963 14.5597 0.595316 15.7356H12.8648Z" fill="#EA2F2A"/>
<path d="M0.466064 8.68927L5.83003 10.8465C5.9608 10.0551 6.24786 9.31638 6.65849 8.66381L1.75205 5.75391C1.1987 6.65988 0.764986 7.64601 0.466064 8.68927Z" fill="#EA2F2A"/>
<path d="M5.71721 16.4688L0.864502 16.469C1.12127 17.1075 1.43004 17.7191 1.78799 18.2976H10.4507L11.558 17.1304H6.34413L5.71721 16.4688Z" fill="#EA2F2A"/>
<path d="M86.564 14.4654C85.766 15.6936 84.3845 16.5077 82.8106 16.5077C80.3386 16.5077 78.3347 14.5037 78.3347 12.0317C78.3347 9.5597 80.3386 7.55577 82.8106 7.55577C84.3921 7.55577 85.7789 8.37808 86.5751 9.61627L88.9636 6.26676C87.4313 4.6287 85.2519 3.60352 82.8319 3.60352C78.1947 3.60352 74.4355 7.36273 74.4355 11.9999C74.4355 16.6371 78.1947 20.3963 82.8319 20.3963C85.2312 20.3963 87.3937 19.3883 88.9238 17.7747L86.564 14.4654Z" fill="#EA2F2A"/>
<path d="M57.0161 14.4654C56.2181 15.6936 54.8366 16.5077 53.2628 16.5077C50.7908 16.5077 48.7868 14.5037 48.7868 12.0317C48.7868 9.5597 50.7908 7.55577 53.2628 7.55577C54.8442 7.55577 56.231 8.37808 57.0272 9.61627L59.4157 6.2668C57.8835 4.6287 55.7041 3.60352 53.2841 3.60352C48.6469 3.60352 44.8877 7.36273 44.8877 11.9999C44.8877 16.6371 48.6469 20.3963 53.2841 20.3963C55.6834 20.3963 57.8459 19.3883 59.376 17.7747L57.0161 14.4654Z" fill="#EA2F2A"/>
<path d="M61.0144 3.85352H67.322C70.7435 3.85352 72.8382 5.43624 72.8382 8.27579C72.8382 9.76541 72.233 10.8361 71.0926 11.6042C72.652 12.3025 73.3503 13.6291 73.3503 15.2119C73.3503 18.6334 70.6969 20.1462 67.4383 20.1462H61.0144V3.85352ZM67.1962 10.4592C68.2956 10.4592 68.8797 9.70337 68.8797 8.70697C68.8797 7.74495 68.2956 7.05773 67.1273 7.05773H64.9135V10.4592H67.1962ZM67.4628 16.9603C68.6997 16.9603 69.4211 15.9296 69.4211 15.0018C69.4211 14.0398 68.7683 13.0778 67.5659 13.0778H64.9135V16.9603H67.4628Z" fill="#EA2F2A"/>
<path d="M35.1691 3.60352C30.5319 3.60352 26.7727 7.36273 26.7727 11.9999C26.7727 16.6371 30.5319 20.3963 35.1691 20.3963C39.8063 20.3963 43.5655 16.6371 43.5655 11.9999C43.5655 7.36273 39.8063 3.60352 35.1691 3.60352ZM35.1478 16.5077C32.6758 16.5077 30.6718 14.5037 30.6718 12.0317C30.6718 9.5597 32.6758 7.55577 35.1478 7.55577C37.6198 7.55577 39.6238 9.5597 39.6238 12.0317C39.6238 14.5037 37.6198 16.5077 35.1478 16.5077Z" fill="#EA2F2A"/>
<g clip-path="url(#clip1_2831_39874)">
<g clip-path="url(#clip2_2831_39874)">
<path d="M11.9999 0C9.92037 0 7.96596 0.531476 6.26075 1.46225L8.52575 4.12085L10.134 5.9565C10.7823 5.7349 11.4768 5.6129 12.2002 5.6129C15.7277 5.6129 18.5873 8.4725 18.5873 12C18.5873 14.4876 17.1643 16.6414 15.0888 17.6961C14.9599 17.7706 12.6209 19.0907 8.61663 19.0907L2.30713 19.0718C4.48988 22.0584 8.01735 24 11.9999 24C18.6273 24 23.9999 18.6274 23.9999 12C23.9999 5.37258 18.6273 0 11.9999 0Z" fill="#EA2F2A"/>
<path d="M2.52393 4.64173L7.34649 7.8505C7.84711 7.26545 8.45063 6.77135 9.13048 6.39801L4.95044 2.29102C4.03501 2.95688 3.21822 3.74887 2.52393 4.64173Z" fill="#EA2F2A"/>
<path d="M6.95288 11.256L12.8648 13.5345V12.1366L7.83063 9.27539C7.43398 9.79789 7.12368 10.4481 6.95288 11.256Z" fill="#EA2F2A"/>
<path d="M8.46802 8.59775L12.8648 11.5232V10.0681L10.3226 7.57031C9.68084 7.78511 9.03149 8.10988 8.46802 8.59775Z" fill="#EA2F2A"/>
<path d="M12.8648 15.7356V14.1256L6.8221 12.2238C6.763 13.1511 6.86304 14.2469 7.17603 15.5415C7.17603 15.5415 5.7969 14.109 5.7872 11.8981L0.147994 10.1233L0.147027 10.123C0.0509852 10.7346 0 11.3612 0 11.9997C0 13.3044 0.209963 14.5597 0.595316 15.7356H12.8648Z" fill="#EA2F2A"/>
<path d="M0.466064 8.68927L5.83003 10.8465C5.9608 10.0551 6.24786 9.31638 6.65849 8.66381L1.75205 5.75391C1.1987 6.65988 0.764986 7.64601 0.466064 8.68927Z" fill="#EA2F2A"/>
<path d="M5.71721 16.4688L0.864502 16.469C1.12127 17.1075 1.43004 17.7191 1.78799 18.2976H10.4507L11.558 17.1304H6.34413L5.71721 16.4688Z" fill="#EA2F2A"/>
<path d="M86.564 14.4654C85.766 15.6936 84.3845 16.5077 82.8106 16.5077C80.3386 16.5077 78.3347 14.5037 78.3347 12.0317C78.3347 9.5597 80.3386 7.55577 82.8106 7.55577C84.3921 7.55577 85.7789 8.37808 86.5751 9.61627L88.9636 6.26676C87.4313 4.6287 85.2519 3.60352 82.8319 3.60352C78.1947 3.60352 74.4355 7.36273 74.4355 11.9999C74.4355 16.6371 78.1947 20.3963 82.8319 20.3963C85.2312 20.3963 87.3937 19.3883 88.9238 17.7747L86.564 14.4654Z" fill="#EA2F2A"/>
<path d="M57.0161 14.4654C56.2181 15.6936 54.8366 16.5077 53.2628 16.5077C50.7908 16.5077 48.7868 14.5037 48.7868 12.0317C48.7868 9.5597 50.7908 7.55577 53.2628 7.55577C54.8442 7.55577 56.231 8.37808 57.0272 9.61627L59.4157 6.2668C57.8835 4.6287 55.7041 3.60352 53.2841 3.60352C48.6469 3.60352 44.8877 7.36273 44.8877 11.9999C44.8877 16.6371 48.6469 20.3963 53.2841 20.3963C55.6834 20.3963 57.8459 19.3883 59.376 17.7747L57.0161 14.4654Z" fill="#EA2F2A"/>
<path d="M61.0144 3.85352H67.322C70.7435 3.85352 72.8382 5.43624 72.8382 8.27579C72.8382 9.76541 72.233 10.8361 71.0926 11.6042C72.652 12.3025 73.3503 13.6291 73.3503 15.2119C73.3503 18.6334 70.6969 20.1462 67.4383 20.1462H61.0144V3.85352ZM67.1962 10.4592C68.2956 10.4592 68.8797 9.70337 68.8797 8.70697C68.8797 7.74495 68.2956 7.05773 67.1273 7.05773H64.9135V10.4592H67.1962ZM67.4628 16.9603C68.6997 16.9603 69.4211 15.9296 69.4211 15.0018C69.4211 14.0398 68.7683 13.0778 67.5659 13.0778H64.9135V16.9603H67.4628Z" fill="#EA2F2A"/>
<path d="M35.1691 3.60352C30.5319 3.60352 26.7727 7.36273 26.7727 11.9999C26.7727 16.6371 30.5319 20.3963 35.1691 20.3963C39.8063 20.3963 43.5655 16.6371 43.5655 11.9999C43.5655 7.36273 39.8063 3.60352 35.1691 3.60352ZM35.1478 16.5077C32.6758 16.5077 30.6718 14.5037 30.6718 12.0317C30.6718 9.5597 32.6758 7.55577 35.1478 7.55577C37.6198 7.55577 39.6238 9.5597 39.6238 12.0317C39.6238 14.5037 37.6198 16.5077 35.1478 16.5077Z" fill="#EA2F2A"/>
</g>
</g>
</g>
<defs>
<clipPath id="clip0_2831_39874">
<rect width="88.9636" height="24" fill="white"/>
</clipPath>
<clipPath id="clip1_2831_39874">
<rect width="88.9636" height="24" fill="white"/>
</clipPath>
<clipPath id="clip2_2831_39874">
<rect width="88.9636" height="24" fill="white"/>
</clipPath>
</defs>
</svg>
