<svg width="72" height="72" viewBox="0 0 72 72" fill="none" xmlns="http://www.w3.org/2000/svg">
<g clip-path="url(#clip0_2700_35774)">
<path d="M17.9778 18.0662C27.9554 8.0885 44.1324 8.08849 54.1101 18.0661C64.0877 28.0438 64.0878 44.2208 54.1101 54.1984L18.1525 90.1561L-17.9798 54.0238L17.9778 18.0662Z" fill="url(#paint0_linear_2700_35774)"/>
<path d="M35.0998 58.0498H17.5498L35.0998 67.4998V58.0498Z" fill="url(#paint1_linear_2700_35774)"/>
<path d="M14.3984 20.7C14.3984 16.7236 17.622 13.5 21.5984 13.5H31.0484C35.0249 13.5 38.2484 16.7236 38.2484 20.7V54C38.2484 56.4853 36.2337 58.5 33.7484 58.5H18.8984C16.4132 58.5 14.3984 56.4853 14.3984 54V20.7Z" fill="url(#paint2_linear_2700_35774)"/>
<path d="M14.3984 18.9C14.3984 15.9177 16.8161 13.5 19.7984 13.5H32.8484C35.8308 13.5 38.2484 15.9177 38.2484 18.9V52.65C38.2484 55.1353 36.2337 57.15 33.7484 57.15H18.8984C16.4132 57.15 14.3984 55.1353 14.3984 52.65V18.9Z" fill="url(#paint3_linear_2700_35774)"/>
<rect x="16.4232" y="15.5248" width="19.8" height="36.9" rx="3.375" fill="url(#paint4_linear_2700_35774)" stroke="#C0D3D7" stroke-width="0.45"/>
<rect x="22.9492" y="16.6504" width="7.2" height="0.9" rx="0.45" fill="#C0D3D7"/>
<path d="M52.6502 43.6502H22.9502L52.6502 18.4502V43.6502Z" fill="url(#paint5_linear_2700_35774)"/>
<path fill-rule="evenodd" clip-rule="evenodd" d="M53.1002 18.4502V43.6501H49.9502V18.4502H53.1002Z" fill="#517077"/>
<path fill-rule="evenodd" clip-rule="evenodd" d="M46.3502 23.8496V43.6496H43.2002V23.8496H46.3502Z" fill="#77939C"/>
<path fill-rule="evenodd" clip-rule="evenodd" d="M39.6002 29.25V43.65H36.4502V29.25H39.6002Z" fill="#8DA8B0"/>
<path fill-rule="evenodd" clip-rule="evenodd" d="M32.8502 34.6504V43.6504H29.7002V34.6504H32.8502Z" fill="#A7BEC3"/>
<path fill-rule="evenodd" clip-rule="evenodd" d="M26.1002 37.3496V43.6496H22.9502V37.3496H26.1002Z" fill="#C0D3D7"/>
<path d="M53.1002 43.6504L22.9502 43.6504L53.1002 55.8004V43.6504Z" fill="url(#paint6_linear_2700_35774)" style="mix-blend-mode:multiply"/>
<rect width="20.2185" height="14.3846" transform="matrix(-0.707107 0.707107 0.707107 0.707107 47.4639 14.4004)" fill="url(#paint7_linear_2700_35774)" style="mix-blend-mode:multiply"/>
<circle cx="52.2" cy="19.8006" r="7.2" fill="#EA2F2A"/>
<path d="M49.2012 16.8008L55.2012 22.8008" stroke="white" stroke-width="0.9" stroke-linecap="round"/>
<path d="M49.2012 22.8008L55.2012 16.8008" stroke="white" stroke-width="0.9" stroke-linecap="round"/>
</g>
<defs>
<linearGradient id="paint0_linear_2700_35774" x1="57.8249" y1="14.175" x2="42.3736" y2="51.384" gradientUnits="userSpaceOnUse">
<stop stop-color="#F14545"/>
<stop offset="1" stop-color="white" stop-opacity="0"/>
</linearGradient>
<linearGradient id="paint1_linear_2700_35774" x1="27.2248" y1="56.9248" x2="28.3869" y2="60.9966" gradientUnits="userSpaceOnUse">
<stop stop-color="#658189"/>
<stop offset="1" stop-color="white" stop-opacity="0"/>
</linearGradient>
<linearGradient id="paint2_linear_2700_35774" x1="24.5347" y1="60.6635" x2="24.3951" y2="54.7498" gradientUnits="userSpaceOnUse">
<stop stop-color="#3B434F"/>
<stop offset="1" stop-color="#737B8C"/>
</linearGradient>
<linearGradient id="paint3_linear_2700_35774" x1="14.3984" y1="13.5" x2="51.1319" y2="33.5709" gradientUnits="userSpaceOnUse">
<stop stop-color="#3B434F"/>
<stop offset="1" stop-color="#737B8C"/>
</linearGradient>
<linearGradient id="paint4_linear_2700_35774" x1="32.8482" y1="38.0248" x2="13.2349" y2="25.4094" gradientUnits="userSpaceOnUse">
<stop stop-color="#C0D3D7"/>
<stop offset="1" stop-color="white"/>
</linearGradient>
<linearGradient id="paint5_linear_2700_35774" x1="34.8752" y1="35.5502" x2="44.7735" y2="25.6485" gradientUnits="userSpaceOnUse">
<stop stop-color="#C0D3D7"/>
<stop offset="1" stop-color="white" stop-opacity="0"/>
</linearGradient>
<linearGradient id="paint6_linear_2700_35774" x1="40.2752" y1="39.6004" x2="40.9974" y2="47.8347" gradientUnits="userSpaceOnUse">
<stop stop-color="#658189"/>
<stop offset="1" stop-color="white" stop-opacity="0"/>
</linearGradient>
<linearGradient id="paint7_linear_2700_35774" x1="0.787027" y1="7.80432" x2="11.4449" y2="7.88163" gradientUnits="userSpaceOnUse">
<stop stop-color="#ED1C1A"/>
<stop offset="1" stop-color="white" stop-opacity="0"/>
</linearGradient>
<clipPath id="clip0_2700_35774">
<rect width="72" height="72" fill="white"/>
</clipPath>
</defs>
</svg>
