<svg width="24" height="24" viewBox="0 0 24 24" fill="none" xmlns="http://www.w3.org/2000/svg">
<circle cx="12" cy="12" r="12" fill="#F3F4FB"/>
<path d="M15 7.5H6C5.17157 7.5 4.5 8.17157 4.5 9V15C4.5 15.8284 5.17157 16.5 6 16.5H16.5C17.3284 16.5 18 15.8284 18 15V12.375" stroke="#202020" stroke-width="1.05" stroke-linejoin="round"/>
<path d="M4.5 17.625V17.625C4.5 18.2463 5.00368 18.75 5.625 18.75H16.875C17.4963 18.75 18 18.2463 18 17.625V17.625" stroke="#202020" stroke-width="1.05" stroke-linejoin="round"/>
<path d="M6.75 12H8.25" stroke="#EA2F2A" stroke-width="1.05" stroke-linejoin="round"/>
<path d="M14.25 12H15.75" stroke="#EA2F2A" stroke-width="1.05" stroke-linejoin="round"/>
<circle cx="11.25" cy="12" r="1.5" stroke="#EA2F2A" stroke-width="1.05"/>
<path d="M16.5 6.75L18 5.25L19.5 6.75" stroke="#EA2F2A" stroke-width="1.05" stroke-linecap="round" stroke-linejoin="round"/>
<path d="M18 6V10.875" stroke="#EA2F2A" stroke-width="1.05" stroke-linecap="round" stroke-linejoin="round"/>
</svg>
