<svg width="24" height="24" viewBox="0 0 24 24" fill="none" xmlns="http://www.w3.org/2000/svg">
<g clip-path="url(#clip0_2725_35675)">
<circle cx="12" cy="12" r="12" fill="#F3F4FB"/>
<path d="M7.05025 7.05025C7.93724 6.16327 9.04627 5.53092 10.2613 5.21936C11.4764 4.9078 12.7529 4.92846 13.9572 5.2792C15.1616 5.62993 16.2496 6.29784 17.1074 7.21308C17.9652 8.12831 18.5613 9.25723 18.8334 10.4818L15.0391 11.3248C14.9181 10.7802 14.6529 10.2781 14.2714 9.87108C13.8899 9.46404 13.4061 9.16699 12.8705 9.01101C12.3348 8.85502 11.7671 8.84583 11.2268 8.9844C10.6864 9.12296 10.1931 9.40419 9.79866 9.79866L7.05025 7.05025Z" stroke="#202020"/>
<path d="M9.60496 18.5775C8.49954 18.175 7.51339 17.5004 6.73763 16.616C5.96186 15.7316 5.4215 14.666 5.16647 13.5175C4.91143 12.3691 4.94996 11.1749 5.27847 10.0452C5.60699 8.91562 6.21491 7.88701 7.04606 7.05445L9.7968 9.80053C9.42715 10.1708 9.15679 10.6283 9.01069 11.1306C8.86458 11.633 8.84745 12.1641 8.96087 12.6749C9.0743 13.1856 9.31461 13.6596 9.65963 14.0529C10.0046 14.4462 10.4432 14.7463 10.9348 14.9253L9.60496 18.5775Z" stroke="#202020"/>
<path d="M17.9045 15.7599C17.0429 17.113 15.7427 18.1291 14.2215 18.6381C12.7003 19.1472 11.0504 19.1184 9.54796 18.5565L10.9095 14.9159C11.5777 15.1658 12.3115 15.1786 12.988 14.9522C13.6645 14.7258 14.2428 14.2739 14.626 13.6722L17.9045 15.7599Z" stroke="#EA2F2A"/>
<path d="M18.8339 10.4844C19.2359 12.2968 18.9014 14.1948 17.904 15.7606L14.6257 13.6725C15.0693 12.9761 15.2181 12.132 15.0393 11.3259L18.8339 10.4844Z" stroke="#EA2F2A"/>
</g>
<defs>
<clipPath id="clip0_2725_35675">
<rect width="24" height="24" fill="white"/>
</clipPath>
</defs>
</svg>
