<svg width="24" height="24" viewBox="0 0 24 24" fill="none" xmlns="http://www.w3.org/2000/svg">
<g clip-path="url(#clip0_2725_35698)">
<circle cx="12" cy="12" r="12" fill="#F3F4FB"/>
<g clip-path="url(#clip1_2725_35698)">
<path d="M8.5 18H5C4.44772 18 4 17.5523 4 17V11C4 10.4477 4.44772 10 5 10H10C10.5523 10 11 10.4477 11 11V16" stroke="#202020" stroke-width="1.1"/>
<path d="M6 13H9" stroke="#EA2F2A" stroke-linejoin="round"/>
<path d="M6 15H8" stroke="#EA2F2A" stroke-linejoin="round"/>
<path d="M13.5 16L15.5 18L13.5 20" stroke="#EA2F2A" stroke-width="1.1" stroke-linecap="round" stroke-linejoin="round"/>
<path d="M14.5 18L8 18" stroke="#EA2F2A" stroke-width="1.1" stroke-linecap="round" stroke-linejoin="round"/>
<path d="M19.9424 8.69459C19.8511 9.2119 19.6588 9.70618 19.3765 10.1492C19.0941 10.5922 18.7272 10.9753 18.2968 11.2766C17.8663 11.5779 17.3807 11.7915 16.8677 11.9052C16.3546 12.0189 15.8242 12.0304 15.3067 11.9392C14.7892 11.848 14.2947 11.6558 13.8515 11.3736C13.4083 11.0913 13.0251 10.7246 12.7237 10.2943C12.4223 9.86401 12.2086 9.37859 12.0949 8.86576C11.9811 8.35292 11.9695 7.82271 12.0608 7.30541C12.152 6.7881 12.3443 6.29382 12.6267 5.8508C12.909 5.40778 13.2759 5.02468 13.7064 4.72339C14.1368 4.4221 14.6224 4.20851 15.1355 4.09482C15.6485 3.98112 16.1789 3.96955 16.6964 4.06077C17.214 4.15198 17.7084 4.3442 18.1516 4.62644C18.5948 4.90867 18.9781 5.27541 19.2795 5.7057C19.5809 6.13599 19.7946 6.62141 19.9083 7.13424C20.022 7.64708 20.0336 8.17729 19.9424 8.6946L19.9424 8.69459Z" stroke="#202020" stroke-width="1.05"/>
<path d="M16.0022 8.25H16.5272V8.46752L16.3734 8.6213L16.0022 8.25ZM15.4772 6.25C15.4772 5.96005 15.7122 5.725 16.0022 5.725C16.2921 5.725 16.5272 5.96005 16.5272 6.25H15.4772ZM15.4772 8.25V6.25H16.5272V8.25H15.4772ZM16.3734 8.6213L15.373 9.6213L14.6306 8.8787L15.631 7.8787L16.3734 8.6213Z" fill="#EA2F2A"/>
</g>
</g>
<defs>
<clipPath id="clip0_2725_35698">
<rect width="24" height="24" fill="white"/>
</clipPath>
<clipPath id="clip1_2725_35698">
<rect width="18" height="18" fill="white" transform="translate(3 3)"/>
</clipPath>
</defs>
</svg>
