<svg width="24" height="24" viewBox="0 0 24 24" fill="none" xmlns="http://www.w3.org/2000/svg">
<g clip-path="url(#clip0_2725_35662)">
<circle cx="12" cy="12" r="12" fill="#F3F4FB"/>
<path d="M7 14L15 14" stroke="#EA2F2A"/>
<path d="M16.7772 11.7906C17.6039 11.5121 18.3168 10.9709 18.8075 10.2496C19.2981 9.52829 19.5394 8.66636 19.4948 7.79515C19.4501 6.92394 19.1218 6.09122 18.56 5.42387C17.9982 4.75652 17.2336 4.29113 16.3827 4.09862C15.5319 3.9061 14.6414 3.99702 13.847 4.35751C13.0527 4.718 12.3979 5.32831 11.9825 6.09543C11.5672 6.86255 11.414 7.74443 11.5463 8.60669C11.6786 9.46895 12.0892 10.2643 12.7154 10.8716" stroke="#202020"/>
<path d="M15.5005 6L15.5 8.5L14.4996 9.5" stroke="#EA2F2A"/>
<circle cx="8.5" cy="19" r="1" fill="#202020"/>
<circle cx="13.5" cy="19" r="1" fill="#202020"/>
<path d="M4 9.5C3.72386 9.5 3.5 9.72386 3.5 10C3.5 10.2761 3.72386 10.5 4 10.5V9.5ZM5.5 10L5.97087 9.83183C5.8998 9.63284 5.71131 9.5 5.5 9.5V10ZM15.5 12L15.9789 12.1437C16.0243 11.9923 15.9955 11.8283 15.9011 11.7015C15.8068 11.5747 15.6581 11.5 15.5 11.5V12ZM14.2138 16.2873L14.6927 16.431L14.2138 16.2873ZM7.76298 16.3363L8.23385 16.1682L7.76298 16.3363ZM4 10.5H5.5V9.5H4V10.5ZM5.02913 10.1682L7.29211 16.5045L8.23385 16.1682L5.97087 9.83183L5.02913 10.1682ZM8.70472 17.5H13.256V16.5H8.70472V17.5ZM14.6927 16.431L15.9789 12.1437L15.0211 11.8563L13.7349 16.1437L14.6927 16.431ZM15.5 11.5H6.5V12.5H15.5V11.5ZM13.256 17.5C13.9184 17.5 14.5024 17.0655 14.6927 16.431L13.7349 16.1437C13.6714 16.3552 13.4768 16.5 13.256 16.5V17.5ZM7.29211 16.5045C7.50532 17.1015 8.0708 17.5 8.70472 17.5V16.5C8.49341 16.5 8.30492 16.3672 8.23385 16.1682L7.29211 16.5045Z" fill="#202020"/>
</g>
<defs>
<clipPath id="clip0_2725_35662">
<rect width="24" height="24" fill="white"/>
</clipPath>
</defs>
</svg>
