<svg width="33" height="32" viewBox="0 0 33 32" fill="none" xmlns="http://www.w3.org/2000/svg">
<circle cx="16.75" cy="16" r="16" fill="#F3F4FB"/>
<path d="M25.3214 10.2858H22.7219L23.1589 7.6635C23.2886 6.88493 22.7627 6.14921 21.9848 6.0193C21.2022 5.89095 20.4705 6.41622 20.3406 7.19341L19.8259 10.2858H15.5804L16.0174 7.6635C16.1471 6.88493 15.6212 6.14921 14.8433 6.0193C14.0607 5.89095 13.329 6.41622 13.1991 7.19341L12.683 10.2858H9.60714C8.8183 10.2858 8.17857 10.9256 8.17857 11.7144C8.17857 12.5447 8.8183 13.143 9.60714 13.143H12.2067L11.2545 18.8572H8.17857C7.38973 18.8572 6.75 19.497 6.75 20.2858C6.75 21.0747 7.38973 21.6742 8.17857 21.6742H10.7781L10.3411 24.2965C10.2114 25.0751 10.7373 25.8108 11.5152 25.9407C11.5938 26.0358 11.6741 26.0403 11.75 26.0403C12.4357 26.0403 13.0411 25.5452 13.1576 24.847L13.6728 21.7546H17.9192L17.4822 24.3769C17.3525 25.1555 17.8784 25.8912 18.6563 26.0211C18.7366 26.0358 18.817 26.0403 18.8929 26.0403C19.5786 26.0403 20.1839 25.5452 20.3004 24.847L20.8156 21.7546H23.8929C24.6817 21.7546 25.3214 21.1148 25.3214 20.3662C25.3214 19.5773 24.6817 18.9376 23.8929 18.9376H21.2933L22.2455 13.2233H25.3214C26.1103 13.2233 26.75 12.584 26.75 11.8349C26.75 10.9644 26.1116 10.2858 25.3214 10.2858ZM18.3973 18.8572H14.1518L15.1027 13.143H19.3491L18.3973 18.8572Z" fill="#202020"/>
<path d="M8.17857 18.8572H11.2545H14.1518H18.3973L21.2933 18.9375H23.8929C24.6817 18.9375 25.3214 19.5773 25.3214 20.3661C25.3214 21.1148 24.6817 21.7545 23.8929 21.7545H20.8156H17.9192H13.6728L10.7781 21.6741H8.17857C7.38973 21.6741 6.75 21.0746 6.75 20.2857C6.75 19.4969 7.38973 18.8572 8.17857 18.8572Z" fill="#EA2F2A"/>
<path d="M22.721 10.2859H25.3206C26.1108 10.2859 26.7492 10.9645 26.7492 11.835C26.7492 12.5841 26.1094 13.2234 25.3206 13.2234H22.2447L19.3483 13.143H15.1018H12.2059H9.60631C8.81747 13.143 8.17773 12.5448 8.17773 11.7145C8.17773 10.9256 8.81747 10.2859 9.60631 10.2859H12.6822H15.5795H19.8251H22.721Z" fill="#EA2F2A"/>
</svg>
