<svg width="24" height="24" viewBox="0 0 24 24" fill="none" xmlns="http://www.w3.org/2000/svg">
<circle cx="12" cy="12" r="12" fill="#F3F4FB"/>
<path d="M11.325 6.59961C10.1235 6.59961 8.94894 6.9559 7.94991 7.62343C6.95088 8.29096 6.17223 9.23975 5.71243 10.3498C5.25263 11.4599 5.13232 12.6813 5.36673 13.8598C5.60113 15.0382 6.17972 16.1207 7.02933 16.9703C7.87893 17.8199 8.96139 18.3985 10.1398 18.6329C11.3183 18.8673 12.5397 18.747 13.6498 18.2872C14.7599 17.8274 15.7086 17.0487 16.3762 16.0497C17.0437 15.0507 17.4 13.8761 17.4 12.6746H11.325L11.325 6.59961Z" stroke="#202020" stroke-width="1.05" stroke-linejoin="round"/>
<path d="M18.75 10.65C18.75 9.94086 18.6103 9.23867 18.3389 8.58351C18.0675 7.92835 17.6698 7.33306 17.1683 6.83162C16.6669 6.33019 16.0716 5.93243 15.4164 5.66105C14.7613 5.38968 14.0591 5.25 13.35 5.25L13.35 10.65H18.75Z" stroke="#EA2F2A" stroke-width="1.05" stroke-linejoin="round"/>
</svg>
