<svg width="24" height="24" viewBox="0 0 24 24" fill="none" xmlns="http://www.w3.org/2000/svg">
<circle cx="12" cy="12" r="12" fill="#F3F4FB"/>
<path d="M15.75 17.25H16.875C18.3247 17.25 19.5 16.0747 19.5 14.625V14.625C19.5 13.1753 18.3247 12 16.875 12H14.25" stroke="#EA2F2A" stroke-width="1.05"/>
<path d="M15.75 10.5L14.25 12L15.75 13.5" stroke="#EA2F2A" stroke-width="1.05" stroke-linecap="round" stroke-linejoin="round"/>
<path d="M17.4239 14.7287C16.7962 16.1488 15.6983 17.309 14.315 18.014C12.9317 18.719 11.3477 18.9256 9.82988 18.5989C8.31207 18.2723 6.95326 17.4324 5.98244 16.2208C5.01161 15.0092 4.48813 13.5 4.5002 11.9475C4.51228 10.395 5.05917 8.8941 6.04873 7.69776C7.03828 6.50142 8.40999 5.68278 9.9327 5.37979C11.4554 5.0768 13.036 5.30798 14.4082 6.03438C15.7803 6.76079 16.8601 7.938 17.4656 9.36763" stroke="#202020" stroke-width="1.05"/>
<path d="M13.0916 12.9497C13.0916 13.3401 12.9665 13.6754 12.7162 13.9557C12.471 14.231 12.1281 14.4162 11.6877 14.5113V15.75H10.6742V14.5638C9.9985 14.5038 9.44044 14.2585 9 13.8281L9.72072 13.0398C10.0961 13.3601 10.504 13.5203 10.9444 13.5203C11.1496 13.5203 11.3023 13.4802 11.4024 13.4001C11.5075 13.3201 11.5601 13.2125 11.5601 13.0773C11.5601 12.9772 11.5375 12.8946 11.4925 12.8296C11.4474 12.7595 11.3674 12.6969 11.2523 12.6419C11.1421 12.5868 10.977 12.5243 10.7568 12.4542C10.1812 12.274 9.77828 12.0563 9.54805 11.8011C9.32282 11.5458 9.21021 11.228 9.21021 10.8476C9.21021 10.4522 9.34284 10.1244 9.60811 9.86411C9.87838 9.60385 10.2337 9.43869 10.6742 9.36862V8.25H11.6877V9.37613C12.1982 9.45621 12.6236 9.66642 12.964 10.0068L12.3183 10.7725C11.983 10.5073 11.6276 10.3746 11.2523 10.3746C11.0771 10.3746 10.9444 10.4072 10.8544 10.4722C10.7643 10.5323 10.7192 10.6174 10.7192 10.7275C10.7192 10.8126 10.7442 10.8826 10.7943 10.9377C10.8443 10.9927 10.9269 11.0453 11.042 11.0953C11.1622 11.1454 11.3524 11.2105 11.6126 11.2905C12.1331 11.4607 12.5085 11.6709 12.7387 11.9212C12.974 12.1714 13.0916 12.5143 13.0916 12.9497Z" fill="#EA2F2A"/>
</svg>
