<svg width="115" height="37" viewBox="0 0 115 37" fill="none" xmlns="http://www.w3.org/2000/svg">
<path fill-rule="evenodd" clip-rule="evenodd" d="M17.8031 0.5C22.4922 0.5 27.5004 1.70167 32.2834 3.98122L32.4062 4.03601L32.463 4.16065C34.6797 8.85228 35.8488 13.8895 35.8488 18.7377C35.8488 23.4615 34.7745 28.184 32.6499 32.7766L32.4481 33.2059L32.3247 33.2629C27.9091 35.3596 22.9296 36.4697 17.9259 36.4697C13.2026 36.4697 8.34894 35.3029 3.50164 32.9947L3.38262 32.9361L3.32582 32.8145C1.15052 28.2078 0 23.1692 0 18.2396C0 13.3173 1.10323 8.49435 3.28009 3.89372L3.33992 3.77146L3.46105 3.71061C7.94533 1.57941 12.769 0.5 17.8031 0.5ZM17.8031 1.26064C12.9293 1.26064 8.25794 2.29761 3.90944 4.34366C1.82211 8.80264 0.759652 13.4752 0.759652 18.2396C0.759652 23.0128 1.86361 27.8958 3.95023 32.3629C8.65917 34.5853 13.3557 35.7077 17.9259 35.7077C22.7715 35.7077 27.5907 34.6447 31.8806 32.6304C34.012 28.0871 35.0918 23.4109 35.0918 18.7377C35.0918 14.0452 33.9644 9.16445 31.8319 4.61059C27.1902 2.42141 22.3423 1.26064 17.8031 1.26064ZM16.5824 30.8846L17.6953 30.933C18.2213 30.959 18.3588 31.3897 18.3425 31.801C18.327 32.0509 18.2494 32.3302 18.0322 32.4816C17.854 32.6105 17.625 32.6408 17.413 32.6304L17.0502 32.6105L16.9779 33.8284L16.4081 33.7908L16.5824 30.8846ZM88.8003 3.34742L94.8973 6.57576L90.4743 14.63C88.8049 13.2698 86.7663 12.269 84.1656 12.269C78.0105 12.269 75.51 16.8718 75.51 20.1143C75.51 22.5214 77.0809 26.0723 82.5576 26.0723C84.8563 26.0723 88.1244 24.468 89.065 23.7378L84.6908 33.082L84.1048 33.2024L82.8093 33.4813C81.9422 33.6643 81.2605 33.7786 80.1554 33.8129C70.3529 34.1064 66.3918 28.0649 66.3947 21.892C66.4015 13.7309 73.6334 3.80629 85.6224 3.80629C86.3571 3.80629 87.2557 4.0612 88.0239 4.34366L88.8003 3.34742ZM21.8626 30.8365C21.9743 30.973 22.0172 31.0882 22.0424 31.2534L22.0511 31.3178C22.0874 31.5667 22.0155 31.8543 21.7364 31.9974V32.0063C22.0481 32.0063 22.2365 32.2311 22.2912 32.6105L22.3036 32.7407C22.3104 32.8312 22.3141 32.9446 22.2993 33.0456C22.2359 33.4296 22.0075 33.5535 21.6217 33.6076L20.6685 33.7373L20.2711 30.827L21.2309 30.681C21.4644 30.649 21.7488 30.6898 21.8626 30.8365ZM13.8492 30.58L14.433 30.6468L14.1743 32.6994L14.1674 32.7708C14.1533 32.9643 14.1827 33.175 14.4885 33.2059C14.8276 33.2318 14.9044 33.0064 14.9428 32.726L15.1905 30.7417L15.7696 30.8092L15.52 32.8417C15.3987 33.486 15.1505 33.7675 14.4441 33.6796C13.7252 33.5885 13.5545 33.26 13.598 32.6105L13.8492 30.58ZM10.5878 32.987L11.2121 30.0961L12.2104 30.3221C12.7948 30.4489 12.9714 30.7097 12.8887 31.2472C12.8439 31.5394 12.7056 31.8529 12.3764 31.8622L12.3292 31.8609L12.3682 31.8757C12.6139 31.9775 12.6481 32.1196 12.6098 32.3475L12.6006 32.3977C12.5769 32.5143 12.4143 33.2208 12.5266 33.3345L12.5303 33.4215L11.9244 33.2629C11.9105 33.1541 11.9307 32.9971 11.9573 32.8456L12.0412 32.4014C12.0659 32.2501 12.0703 32.0846 11.9332 32.0129C11.7966 31.9397 11.7457 31.9432 11.5913 31.9078L11.4338 31.8758L11.1737 33.1141L10.5878 32.987ZM24.5452 30.7451L24.5655 30.8121C24.5862 30.8839 24.612 30.9552 24.6217 31.0277L24.0956 31.1367L24.0585 31.0228L24.0311 30.9458C23.9717 30.7909 23.8826 30.6395 23.718 30.6585C23.2931 30.7097 23.4336 31.2398 23.4772 31.4616L23.6503 32.3306C23.7031 32.5685 23.8121 32.877 24.1444 32.81C24.4429 32.7498 24.3128 32.2837 24.2863 32.0924L24.8256 31.9869C24.833 32.041 24.8418 32.1012 24.8448 32.1554C24.9225 32.6861 24.8256 33.1258 24.2308 33.2467C23.3781 33.4111 23.1939 32.9011 23.0427 32.1704L22.946 31.6861L22.9153 31.4905L22.8986 31.3655C22.8299 30.7925 22.9028 30.3703 23.6301 30.225C24.0903 30.1408 24.4018 30.3117 24.5452 30.7451ZM21.2479 32.3219L21.038 32.3546L21.1711 33.2324L21.3995 33.2009C21.4741 33.19 21.5454 33.1746 21.6055 33.1361C21.7438 33.0456 21.7311 32.8521 21.7119 32.7083C21.6639 32.3926 21.5819 32.2726 21.2479 32.3219ZM48.2376 3.60011L56.4306 3.58877L59.5872 3.5951C59.9181 3.5965 60.2276 3.59816 60.5101 3.60011C65.1261 3.62603 67.7345 6.13988 67.7345 9.77085C67.7345 13.1186 64.9836 16.0816 61.9637 17.6138C65.0728 18.7606 65.3416 21.5754 65.3416 23.5665C65.3417 28.3778 60.5302 32.873 54.2751 32.873H40.6344L45.9554 12.2609L43.7697 12.2482L48.2376 3.60011ZM113.148 3.60011L114.4 32.873H105.079L105.073 27.8528H98.7175L96.6256 32.873H86.5167L97.0853 11.9695L94.7021 11.9541L99.2302 3.60011H113.148ZM26.1941 29.6394L27.6756 32.259L27.1193 32.4258L26.7683 31.7602L26.1505 31.9464L26.2303 32.7032L25.6695 32.8676L25.4877 29.8557L26.1941 29.6394ZM9.48084 29.5897C9.93234 29.7164 10.2123 29.9159 10.1991 30.4422C10.1969 30.5594 10.1584 30.6788 10.1333 30.7943L9.60801 30.649L9.62844 30.5593C9.68145 30.3111 9.68267 30.1161 9.36338 30.0175C8.95097 29.9039 8.85065 30.4058 8.79367 30.6224L8.56071 31.4826L8.54207 31.5638C8.49731 31.7869 8.50187 32.0534 8.79367 32.1339C9.09372 32.2146 9.27551 31.9195 9.38409 31.4881L9.01687 31.3903L9.14385 30.9337L10.0077 31.2124L9.59765 32.7343L9.20011 32.626L9.28952 32.3042H9.27835C9.0951 32.5674 8.8719 32.5949 8.67621 32.5573C7.86483 32.3372 7.89513 31.8238 8.07269 31.135L8.21809 30.5904L8.27828 30.4019L8.31926 30.2826C8.51385 29.7393 8.76493 29.3928 9.48084 29.5897ZM17.1203 31.3267L17.0665 32.1672L17.3613 32.1836C17.6007 32.1924 17.7595 32.0975 17.7802 31.7447C17.792 31.4059 17.6642 31.3482 17.3539 31.3346L17.1203 31.3267ZM21.1794 31.0887L20.8799 31.1367L20.979 31.8825L21.0854 31.8714L21.1751 31.8572C21.2839 31.8387 21.4005 31.8083 21.4562 31.7143L21.4819 31.6615C21.5113 31.5994 21.5349 31.5296 21.5101 31.3897C21.4735 31.1902 21.4095 31.0616 21.1794 31.0887ZM11.6976 30.6468L11.5334 31.428L11.9281 31.5347C12.1675 31.5696 12.3005 31.4451 12.3479 31.1547C12.3907 30.8884 12.3352 30.7845 12.1203 30.7329L11.6976 30.6468ZM25.9525 30.1116L26.0988 31.46L26.5451 31.3301L25.9525 30.1116ZM17.5723 3.77085L17.726 3.76751L17.7643 3.76799C20.8194 3.81803 23.4356 5.86648 23.4241 9.37944C23.4187 12.3706 21.0234 13.9719 20.1602 15.1158C18.8665 16.8392 18.1416 18.8015 18.095 21.9238L18.0838 22.9249L18.0792 23.8353C18.0763 24.9613 18.0834 26.0233 18.091 26.8111L18.1024 27.8075H17.4167L17.3916 24.5691L17.3832 23.8621C17.3753 23.2607 17.3647 22.6318 17.3503 22.0009C17.2778 18.8793 16.578 16.8392 15.2849 15.1158C14.4293 13.9719 12.0316 12.3706 12.0218 9.37944C12.0126 5.91095 14.5643 3.87012 17.5723 3.77085ZM25.2435 12.6457L25.3223 12.6538C27.1289 12.8109 28.6413 13.5501 29.4563 15.6761C30.2093 17.6576 29.5318 20.2929 27.0298 20.9112L26.6262 21.0125L26.2181 21.1181C24.025 21.6945 22.6681 22.21 21.6529 22.9075C20.2673 23.8616 19.2144 25.6853 19.1819 27.8046L18.5915 27.8024L18.5903 23.3299L18.5994 22.3786C18.6023 22.2307 18.6058 22.1225 18.61 22.0647C18.58 16.4195 22.6273 12.4208 25.2435 12.6457ZM29.2797 20.3041C29.9625 20.9913 30.0859 22.5361 29.9663 23.4391C29.8243 24.4836 28.6104 26.2055 26.7816 26.273C25.8489 26.3108 24.7051 26.1176 23.9592 25.9686L23.565 25.8869C22.3991 25.6333 20.5422 26.3686 20.246 27.8024L19.71 27.8046C19.7006 25.9669 20.7225 24.3419 22.0548 23.4687C23.2451 22.6969 24.8382 22.1899 27.4028 21.5368C28.1979 21.333 29.027 20.8808 29.2797 20.3041ZM16.8367 22.0647L16.8403 22.1277L16.8477 22.387C16.8591 22.9744 16.8606 24.1731 16.8598 25.3421L16.8566 27.8024L16.34 27.8046C16.3099 25.6853 15.1778 23.8616 13.7908 22.9075C12.6589 22.1278 11.0946 21.5754 8.41619 20.9112C5.91113 20.2929 5.23743 17.6576 5.99102 15.6761C6.78721 13.5935 8.25628 12.8417 10.0141 12.6641L10.1244 12.6538C12.735 12.3402 16.8676 16.3625 16.8367 22.0647ZM6.16319 20.3041C6.42027 20.8808 7.25019 21.333 8.04365 21.5368L8.68259 21.7018L9.09843 21.8124C11.0627 22.3422 12.3737 22.8086 13.3874 23.4687C14.6917 24.3212 15.6971 25.89 15.7361 27.6737L15.7373 27.8046L15.1971 27.8024C14.9084 26.3985 13.127 25.6643 11.9541 25.8723L11.6058 25.9442L11.3428 25.9966C10.5995 26.1406 9.54321 26.3085 8.66806 26.273C6.83552 26.2055 5.61858 24.4836 5.47967 23.4391C5.36002 22.5361 5.48344 20.9913 6.16319 20.3041ZM55.4459 20.6414H52.1474L50.8987 25.4524H54.0922C55.3483 25.4524 57.0603 24.8267 57.4799 23.261C57.8943 21.691 56.6974 20.6414 55.4459 20.6414ZM105.013 12.5552L101.419 21.0698H105.122L105.013 12.5552ZM54.4526 11.2934L53.5068 15.4685H55.9815C56.9363 15.4685 58.6222 15.2261 59.0437 13.3721C59.5056 11.3594 57.9233 11.3053 57.1644 11.3053L54.4526 11.2934Z" fill="#005CAA"/>
</svg>
