<svg width="359" height="207" viewBox="0 0 359 207" fill="none" xmlns="http://www.w3.org/2000/svg">
<rect x="-1" y="-44" width="360" height="242.88" fill="white" fill-opacity="0.01"/>
<mask id="mask0_9292_35798" style="mask-type:luminance" maskUnits="userSpaceOnUse" x="-1" y="-44" width="360" height="251">
<rect x="-1" y="-44" width="360" height="250.56" fill="white"/>
</mask>
<g mask="url(#mask0_9292_35798)">
<g opacity="0.1">
<path fill-rule="evenodd" clip-rule="evenodd" d="M-60.0931 -30.2368C-44.426 -45.9159 -26.742 -59.0632 -7.27647 -69.655C17.119 -82.929 46.6807 -82.8041 70.9189 -69.2994L72.7033 -68.2948C91.0961 -57.834 108.066 -44.8861 123.283 -29.6576C139.142 -13.7831 152.614 5.00378 163.497 25.9385C175.961 49.9105 175.843 78.4616 163.168 102.304C152.225 122.893 138.584 141.613 122.701 157.51C106.997 173.228 89.146 186.356 69.3699 196.939C45.0134 209.974 15.6545 209.756 -8.45239 196.331C-27.6956 185.616 -45.473 172.181 -61.2503 156.388C-77.0518 140.575 -90.3748 122.009 -101.182 101.232C-113.719 77.1279 -113.516 48.3835 -100.617 24.4982C-89.6711 4.2312 -75.9883 -14.3277 -60.0931 -30.2368ZM106.109 -12.4687C91.9909 -26.5978 76.2179 -38.5242 59.1057 -48.0599C42.1431 -57.5109 21.4162 -57.5985 4.3239 -48.2982C-13.1135 -38.8101 -28.9175 -27.0604 -42.9198 -13.0474C-57.124 1.16923 -69.4054 17.8273 -79.2515 36.0573C-88.3152 52.8414 -88.4577 73.0511 -79.6385 90.0076C-69.9413 108.651 -58.0663 125.199 -44.0764 139.199C-29.8899 153.4 -13.9185 165.47 3.35602 175.089C20.2393 184.491 40.8358 184.644 57.9178 175.502C75.6203 166.029 91.5383 154.322 105.528 140.321C119.667 126.169 131.886 109.399 141.726 90.8868C150.641 74.1159 150.725 54.0323 141.952 37.1592C132.177 18.3569 120.153 1.5888 106.109 -12.4687Z" fill="#7DC1D4"/>
</g>
<g opacity="0.1">
<path fill-rule="evenodd" clip-rule="evenodd" d="M215.427 -136.797C231.094 -152.476 248.778 -165.623 268.244 -176.215C292.639 -189.489 322.201 -189.364 346.439 -175.859L348.223 -174.855C366.616 -164.394 383.586 -151.446 398.803 -136.218C414.662 -120.343 428.134 -101.556 439.017 -80.6215C451.481 -56.6495 451.363 -28.0984 438.688 -4.25566C427.745 16.3327 414.104 35.0533 398.222 50.9495C382.517 66.6679 364.666 79.7958 344.89 90.3785C320.533 103.414 291.174 103.196 267.068 89.7711C247.824 79.0557 230.047 65.6212 214.27 49.8283C198.468 34.0147 185.145 15.4494 174.338 -5.32779C161.802 -29.4321 162.004 -58.1765 174.903 -82.0618C185.849 -102.329 199.532 -120.888 215.427 -136.797ZM381.629 -119.029C367.511 -133.158 351.738 -145.084 334.626 -154.62C317.663 -164.071 296.936 -164.158 279.844 -154.858C262.407 -145.37 246.602 -133.62 232.6 -119.607C218.396 -105.391 206.115 -88.7327 196.269 -70.5027C187.205 -53.7186 187.062 -33.5089 195.882 -16.5524C205.579 2.09142 217.454 18.6389 231.444 32.6395C245.63 46.8401 261.602 58.9097 278.876 68.5289C295.759 77.9312 316.356 78.0841 333.438 68.9418C351.14 59.4687 367.058 47.7622 381.048 33.7607C395.187 19.6089 407.406 2.83922 417.246 -15.6732C426.161 -32.4441 426.245 -52.5276 417.472 -69.4008C407.698 -88.2031 395.673 -104.971 381.629 -119.029Z" fill="#7DC1D4"/>
</g>
</g>
</svg>
