<svg width="20" height="20" viewBox="0 0 20 20" fill="none" xmlns="http://www.w3.org/2000/svg">
<rect width="20" height="20" fill="#E6E8F0"/>
<g clip-path="url(#clip0_13390_25013)">
<rect x="-388" y="-1663" width="1400" height="6855" rx="12" fill="white"/>
<rect x="-268" y="-72" width="556" height="164" rx="20" fill="#E9ECEF"/>
<path fill-rule="evenodd" clip-rule="evenodd" d="M4.455 0.764727C6.22176 0.260002 8.05765 0.00222125 9.92954 9.48662e-06C11.7917 -0.0019811 13.6993 0.309325 15.592 0.90451C17.2907 1.43854 18.6139 2.77268 19.1319 4.47374C19.7036 6.35142 20.0021 8.27167 20 10.1463C19.9979 12.0008 19.7159 13.8316 19.1679 15.633C18.639 17.3714 17.2618 18.7281 15.5192 19.2264C13.7362 19.7365 11.8775 19.9979 9.99647 20C8.14158 20.0022 6.25865 19.6955 4.38145 19.1057C2.67422 18.5692 1.34656 17.2228 0.837559 15.511C0.284937 13.6516 -0.00208686 11.7345 1.14223e-05 9.85142C0.00222014 7.9952 0.273783 6.16917 0.803324 4.38428C1.32237 2.63488 2.70393 1.26514 4.455 0.764727Z" fill="#00B5F0"/>
<path d="M6 10H14" stroke="white" stroke-width="2" stroke-linecap="round" stroke-linejoin="round"/>
</g>
<defs>
<clipPath id="clip0_13390_25013">
<rect x="-388" y="-1903" width="1400" height="7095" rx="40" fill="white"/>
</clipPath>
</defs>
</svg>
