<svg width="24" height="24" viewBox="0 0 24 24" fill="none" xmlns="http://www.w3.org/2000/svg">
<g id="Icon/24px/Filled/Cross">
<path id="Subtract" fill-rule="evenodd" clip-rule="evenodd" d="M12 22C17.5228 22 22 17.5228 22 12C22 6.47715 17.5228 2 12 2C6.47715 2 2 6.47715 2 12C2 17.5228 6.47715 22 12 22ZM7.75737 7.75737C8.14789 7.36685 8.78106 7.36685 9.17158 7.75737L12 10.5858L14.8284 7.75737C15.2189 7.36685 15.8521 7.36685 16.2426 7.75737C16.6332 8.14789 16.6332 8.78106 16.2426 9.17158L13.4142 12L16.2427 14.8284C16.6332 15.219 16.6332 15.8521 16.2427 16.2427C15.8521 16.6332 15.219 16.6332 14.8284 16.2427L12 13.4142L9.17156 16.2427C8.78104 16.6332 8.14787 16.6332 7.75735 16.2427C7.36682 15.8521 7.36682 15.219 7.75735 14.8284L10.5858 12L7.75737 9.17158C7.36685 8.78106 7.36685 8.14789 7.75737 7.75737Z" fill="#868E96"/>
</g>
</svg>
