<svg width="24" height="24" viewBox="0 0 24 24" fill="none" xmlns="http://www.w3.org/2000/svg">
<circle cx="12" cy="12" r="2.4" stroke="#495057" stroke-width="1.8"/>
<path d="M8.0504 7.48103C10.5367 6.23786 13.4633 6.23786 15.9496 7.48103C16.9545 7.9835 17.8719 8.6447 18.6664 9.43918L21.1565 11.9293C21.1956 11.9683 21.1955 12.0317 21.1565 12.0707L18.6664 14.5608C17.8719 15.3553 16.9545 16.0165 15.9496 16.519C13.4633 17.7621 10.5367 17.7621 8.0504 16.519C7.04546 16.0165 6.12809 15.3553 5.33361 14.5608L2.8435 12.0707C2.80445 12.0317 2.80445 11.9683 2.8435 11.9293L2.20711 11.2929L2.8435 11.9293L5.33361 9.43918C6.12809 8.6447 7.04546 7.9835 8.0504 7.48103Z" stroke="#495057" stroke-width="1.8"/>
</svg>
