<svg width="24" height="24" viewBox="0 0 24 24" fill="none" xmlns="http://www.w3.org/2000/svg">
<path fill-rule="evenodd" clip-rule="evenodd" d="M18.5802 4.97793C18.9438 4.63906 19.5133 4.65913 19.8522 5.02276C20.1911 5.38639 20.171 5.95588 19.8074 6.29476L17.9749 8.00249C19.0124 8.799 20.2657 9.93743 21.7271 11.3982C22.0619 11.7327 22.0803 12.2694 21.7693 12.6261C18.6623 16.1903 15.4058 18.1409 11.9992 18.1409C10.6646 18.1409 9.34509 17.84 8.04695 17.2546L6.15043 19.022C5.7868 19.3609 5.21731 19.3408 4.87843 18.9772C4.53955 18.6136 4.55962 18.0441 4.92325 17.7052L18.5802 4.97793ZM9.5003 15.9002L10.3374 15.12C10.8326 15.3774 11.3951 15.52 11.9861 15.52C13.9373 15.52 15.5416 13.9563 15.5416 11.9997C15.5416 11.4863 15.4297 10.9988 15.2308 10.5598L16.6376 9.24872C17.4802 9.86904 18.5479 10.8036 19.847 12.0711C17.1098 15.0085 14.4941 16.3409 11.9992 16.3409C11.1756 16.3409 10.3436 16.197 9.5003 15.9002ZM13.7409 11.9483C13.7414 11.9654 13.7416 11.9825 13.7416 11.9997C13.7416 12.9389 12.9666 13.72 11.9861 13.72C11.9387 13.72 11.8918 13.7182 11.8455 13.7147L13.7409 11.9483ZM12.0084 7.65951C12.5841 7.65951 13.1618 7.73092 13.7424 7.87598C14.2247 7.99647 14.7133 7.70322 14.8338 7.22099C14.9542 6.73875 14.661 6.25015 14.1788 6.12967C13.4589 5.94981 12.7347 5.85951 12.0084 5.85951C8.60319 5.85951 5.3438 7.83707 2.22783 11.4465C1.91701 11.8065 1.94001 12.3462 2.28034 12.6785C3.65189 14.0177 4.62553 14.9338 5.18368 15.4048C5.56354 15.7254 6.13136 15.6774 6.45194 15.2975C6.77253 14.9177 6.72448 14.3498 6.34462 14.0293C5.92244 13.6729 5.19619 12.9979 4.15446 11.9901C6.9046 9.00765 9.52241 7.65951 12.0084 7.65951ZM12.886 9.37966C12.886 8.8826 12.483 8.47966 11.986 8.47966C10.0327 8.47966 8.43044 10.0446 8.43044 12C8.43044 12.497 8.83338 12.9 9.33044 12.9C9.8275 12.9 10.2304 12.497 10.2304 12C10.2304 11.061 11.0045 10.2797 11.986 10.2797C12.483 10.2797 12.886 9.87672 12.886 9.37966Z" fill="#495057"/>
</svg>
