<svg width="30" height="30" viewBox="0 0 30 30" fill="none" xmlns="http://www.w3.org/2000/svg">
<g id="Icon / 40px / Illustration / Informasi Rekening">
<path id="Shape" fill-rule="evenodd" clip-rule="evenodd" d="M5.52632 6.75H24.4737C25.8689 6.75 27 7.88651 27 9.28846V20.7115C27 22.1135 25.8689 23.25 24.4737 23.25H5.52632C4.13107 23.25 3 22.1135 3 20.7115V9.28846C3 7.88651 4.13107 6.75 5.52632 6.75ZM16.2632 10.5577C16.2632 10.2072 16.5459 9.92309 16.8948 9.92309H18.4737C19.0954 9.92292 19.6594 10.2894 19.9143 10.8591C20.1692 11.4289 20.0676 12.096 19.6548 12.5631C19.9128 12.8971 20.0527 13.308 20.0527 13.7308V14.3654C20.0527 14.7159 19.7699 15 19.4211 15C19.0723 15 18.7895 14.7159 18.7895 14.3654V13.7308C18.7895 13.3803 18.5067 13.0962 18.1579 13.0962H17.5263V14.3654C17.5263 14.7159 17.2436 15 16.8948 15C16.5459 15 16.2632 14.7159 16.2632 14.3654V10.5577ZM6.45618 19.2063C6.58016 19.3608 6.76892 19.4481 6.96634 19.4423H12.9284C13.1259 19.4481 13.3146 19.3608 13.4386 19.2063C13.5626 19.0519 13.6075 18.848 13.56 18.6554L13.1053 16.8277C12.8471 15.8008 12.107 14.9648 11.1221 14.5875C11.5762 14.2269 11.8414 13.6777 11.8421 13.0961V12.4615C11.8435 11.9314 11.625 11.4248 11.239 11.0634C10.853 10.7021 10.3346 10.5188 9.80844 10.5577C8.79107 10.6664 8.02717 11.5417 8.05265 12.5694V13.0961C8.04878 13.6744 8.30673 14.2232 8.7537 14.5875C7.77609 14.9699 7.04382 15.805 6.78949 16.8277L6.33476 18.6554C6.28727 18.848 6.3322 19.0519 6.45618 19.2063ZM23.8421 20.0769H16.8948C16.5459 20.0769 16.2632 19.7928 16.2632 19.4423C16.2632 19.0918 16.5459 18.8077 16.8948 18.8077H23.8421C24.1909 18.8077 24.4737 19.0918 24.4737 19.4423C24.4737 19.7928 24.1909 20.0769 23.8421 20.0769ZM21.9474 15H22.8947C23.7668 15 24.4737 14.2897 24.4737 13.4135C24.4737 12.5372 23.7668 11.8269 22.8947 11.8269H21.3158C20.967 11.8269 20.6842 12.1111 20.6842 12.4615V16.2692C20.6842 16.6197 20.967 16.9039 21.3158 16.9039C21.6646 16.9039 21.9474 16.6197 21.9474 16.2692V15ZM22.8948 13.0962H21.9474V13.7308H22.8948C23.0692 13.7308 23.2105 13.5887 23.2105 13.4135C23.2105 13.2382 23.0692 13.0962 22.8948 13.0962ZM17.5263 11.1923H18.4737C18.6481 11.1923 18.7895 11.3344 18.7895 11.5096C18.7895 11.6848 18.6481 11.8269 18.4737 11.8269H17.5263V11.1923Z" fill="#00B6F1"/>
</g>
</svg>
