<svg width="25" height="24" viewBox="0 0 25 24" fill="none" xmlns="http://www.w3.org/2000/svg">
<g id="Outline / 24px / IC_lock">
<path id="Union" fill-rule="evenodd" clip-rule="evenodd" d="M15.75 9.4375V7.1875C15.75 5.39257 14.2949 3.9375 12.5 3.9375C10.7051 3.9375 9.25 5.39257 9.25 7.1875V9.4375H15.75ZM12.5 1.9375C9.6005 1.9375 7.25 4.28801 7.25 7.1875V9.4375V9.49805C6.14543 9.49805 5.25 10.3935 5.25 11.498V19.498C5.25 20.6026 6.14543 21.498 7.25 21.498H17.75C18.8546 21.498 19.75 20.6026 19.75 19.498V11.498C19.75 10.3935 18.8546 9.49805 17.75 9.49805V9.4375V7.1875C17.75 4.28801 15.3995 1.9375 12.5 1.9375ZM7.25 11.498L7.25 19.498H17.75V11.498H7.25ZM13.75 14.2427C13.75 14.6516 13.5536 15.0147 13.25 15.2428V16.4985C13.25 16.9128 12.9142 17.2485 12.5 17.2485C12.0858 17.2485 11.75 16.9128 11.75 16.4985V15.2428C11.4464 15.0147 11.25 14.6516 11.25 14.2427C11.25 13.5523 11.8096 12.9927 12.5 12.9927C13.1904 12.9927 13.75 13.5523 13.75 14.2427Z" fill="#005CAA"/>
</g>
</svg>
