<svg width="24" height="24" viewBox="0 0 25 24" fill="none" xmlns="http://www.w3.org/2000/svg">
<path d="M19.6458 11.7539C19.6944 13.1672 19.3229 14.5632 18.5782 15.7653C17.8335 16.9675 16.749 17.9218 15.462 18.5076C14.1749 19.0935 12.743 19.2845 11.3473 19.0565C9.95168 18.8285 8.65499 18.1918 7.62122 17.2269" stroke="#495057" stroke-width="1.7" stroke-linecap="round"/>
<path d="M21.573 12H17.427C17.2574 12 17.1648 11.8022 17.2734 11.672L19.3464 9.18437C19.4263 9.08842 19.5737 9.08842 19.6536 9.18437L21.7266 11.672C21.8352 11.8022 21.7426 12 21.573 12Z" fill="#495057" stroke="#495057"/>
<path d="M3.42701 13L7.57299 13C7.74256 13 7.83519 13.1978 7.72664 13.328L5.65364 15.8156C5.57369 15.9116 5.42631 15.9116 5.34636 15.8156L3.27336 13.328C3.16481 13.1978 3.25744 13 3.42701 13Z" fill="#495057" stroke="#495057"/>
<path d="M5.45718 13.2333C5.18568 11.683 5.43333 10.0863 6.16174 8.69107C6.89015 7.29581 8.0586 6.17988 9.48587 5.51637C10.9131 4.85285 12.5195 4.67883 14.0557 5.0213C15.592 5.36377 16.9723 6.20358 17.9826 7.41049" stroke="#495057" stroke-width="1.7" stroke-linecap="round"/>
</svg>
