<svg width="25" height="24" viewBox="0 0 25 24" fill="none" xmlns="http://www.w3.org/2000/svg">
<path fill-rule="evenodd" clip-rule="evenodd" d="M12.5 22C18.0226 22 22.5 17.5226 22.5 12C22.5 6.4774 18.0226 2 12.5 2C6.9774 2 2.5 6.4774 2.5 12C2.5 17.5226 6.9774 22 12.5 22ZM13.6554 7.68363L13.6554 12.2618C13.6554 12.8993 13.1382 13.4173 12.5 13.4173C11.8617 13.4173 11.3445 12.8993 11.3445 12.2618L11.3445 7.68363C11.3445 7.04535 11.8617 6.52817 12.5 6.52817C13.1382 6.52817 13.6554 7.04535 13.6554 7.68363ZM12.5 14.6782C13.0617 14.6782 13.5679 15.0165 13.7828 15.5352C13.9984 16.054 13.8797 16.6516 13.482 17.0485C13.0852 17.4462 12.4875 17.5649 11.9687 17.3501C11.4492 17.1352 11.1109 16.6282 11.1109 16.0665C11.1109 15.6985 11.2578 15.3454 11.518 15.0844C11.7781 14.8243 12.132 14.6782 12.5 14.6782L12.5 14.6782Z" fill="#885403"/>
</svg>
