<svg width="100" height="100" viewBox="0 0 100 100" fill="none" xmlns="http://www.w3.org/2000/svg">
<g clip-path="url(#clip0_9326_43747)">
<path fill-rule="evenodd" clip-rule="evenodd" d="M29 15C24.0294 15 20 19.0294 20 24V84C20 88.9706 24.0294 93 29 93H80C84.9706 93 89 88.9706 89 84V24C89 19.0294 84.9706 15 80 15H29ZM27 22.055C25.9258 22.055 25.055 22.9258 25.055 24C25.055 25.0742 25.9258 25.945 27 25.945L64 25.945C65.0742 25.945 65.945 25.0742 65.945 24C65.945 22.9258 65.0742 22.055 64 22.055L27 22.055ZM27 35.7217C25.9258 35.7217 25.055 36.5925 25.055 37.6667C25.055 38.7408 25.9258 39.6116 27 39.6116L57.4706 39.6116C58.5448 39.6116 59.4155 38.7408 59.4155 37.6667C59.4155 36.5925 58.5448 35.7217 57.4706 35.7217L27 35.7217ZM27 49.3884C25.9258 49.3884 25.055 50.2592 25.055 51.3333C25.055 52.4075 25.9258 53.2783 27 53.2783L40.0588 53.2783C41.133 53.2783 42.0038 52.4075 42.0038 51.3333C42.0038 50.2592 41.133 49.3884 40.0588 49.3884H27ZM48.7647 49.3884C47.6905 49.3884 46.8198 50.2592 46.8198 51.3333C46.8198 52.4075 47.6905 53.2783 48.7647 53.2783H55.2941C56.3683 53.2783 57.2391 52.4075 57.2391 51.3333C57.2391 50.2592 56.3683 49.3884 55.2941 49.3884H48.7647ZM27 63.055C25.9258 63.055 25.055 63.9258 25.055 65C25.055 66.0742 25.9258 66.945 27 66.945H35.7059C36.7801 66.945 37.6508 66.0742 37.6508 65C37.6508 63.9258 36.7801 63.055 35.7059 63.055H27Z" fill="#D1E5EE"/>
<path fill-rule="evenodd" clip-rule="evenodd" d="M18.3935 6C14.3102 6 11 9.31018 11 13.3935V76.6065C11 80.6898 14.3102 84 18.3935 84H72.6065C76.6898 84 80 80.6898 80 76.6065V13.3935C80 9.31018 76.6898 6 72.6065 6H18.3935ZM27 22.055C25.9258 22.055 25.055 22.9258 25.055 24C25.055 25.0742 25.9258 25.945 27 25.945L64 25.945C65.0742 25.945 65.945 25.0742 65.945 24C65.945 22.9258 65.0742 22.055 64 22.055L27 22.055ZM27 35.7217C25.9258 35.7217 25.055 36.5925 25.055 37.6667C25.055 38.7408 25.9258 39.6116 27 39.6116L57.4706 39.6116C58.5448 39.6116 59.4155 38.7408 59.4155 37.6667C59.4155 36.5925 58.5448 35.7217 57.4706 35.7217L27 35.7217ZM27 49.3884C25.9258 49.3884 25.055 50.2592 25.055 51.3333C25.055 52.4075 25.9258 53.2783 27 53.2783L40.0588 53.2783C41.133 53.2783 42.0038 52.4075 42.0038 51.3333C42.0038 50.2592 41.133 49.3884 40.0588 49.3884H27ZM48.7647 49.3884C47.6905 49.3884 46.8198 50.2592 46.8198 51.3333C46.8198 52.4075 47.6905 53.2783 48.7647 53.2783H55.2941C56.3683 53.2783 57.2391 52.4075 57.2391 51.3333C57.2391 50.2592 56.3683 49.3884 55.2941 49.3884H48.7647ZM27 63.055C25.9258 63.055 25.055 63.9258 25.055 65C25.055 66.0742 25.9258 66.945 27 66.945H35.7059C36.7801 66.945 37.6508 66.0742 37.6508 65C37.6508 63.9258 36.7801 63.055 35.7059 63.055H27Z" fill="#E2F2F9"/>
<circle cx="26.658" cy="22.6223" r="16.1428" transform="rotate(90 26.658 22.6223)" fill="url(#paint0_linear_9326_43747)"/>
<path fill-rule="evenodd" clip-rule="evenodd" d="M14.8756 29.0436C15.6173 29.7852 15.6173 30.9877 14.8756 31.7294L5.37987 41.2251C4.63821 41.9668 3.43573 41.9668 2.69407 41.2251C1.9524 40.4835 1.9524 39.281 2.69407 38.5393L12.1898 29.0436C12.9315 28.3019 14.134 28.3019 14.8756 29.0436Z" fill="#BDD7E3"/>
<circle cx="23.9773" cy="19.9411" r="14.2436" transform="rotate(90 23.9773 19.9411)" fill="white" fill-opacity="0.2" stroke="#BDD7E3" stroke-width="3.7983"/>
<path d="M35.9662 98.9997C36.1808 89.3743 42.3104 70.6884 60.5121 66.7724C80.6187 62.4466 86.5764 63.8457 97.0184 38.2105" stroke="#BDD7E3" stroke-width="3.69675" stroke-linecap="round" stroke-dasharray="7.39 9.86"/>
</g>
<defs>
<linearGradient id="paint0_linear_9326_43747" x1="53.704" y1="135.516" x2="36.4122" y2="-38.3721" gradientUnits="userSpaceOnUse">
<stop stop-color="#225DA5" stop-opacity="0.35"/>
<stop offset="1" stop-color="#225DA5" stop-opacity="0"/>
</linearGradient>
<clipPath id="clip0_9326_43747">
<rect width="100" height="100" fill="white"/>
</clipPath>
</defs>
</svg>
