<svg width="100" height="100" viewBox="0 0 100 100" fill="none" xmlns="http://www.w3.org/2000/svg">
<path fill-rule="evenodd" clip-rule="evenodd" d="M33.8523 22.7761C35.2674 22.0902 36.8557 21.7056 38.5338 21.7056H86.1223C92.0576 21.7056 96.869 26.517 96.869 32.4523V83.2523C96.869 89.1876 92.0576 93.999 86.1223 93.999H67.9137L70.9073 76.3742L79.1907 65.9784L74.5572 54.8849L77.4772 37.6934L65.7816 47.5157L66.0288 60.819L54.4136 67.2165L60.3472 79.5109L50.983 93.999H38.5338C32.5986 93.999 27.7871 89.1876 27.7871 83.2524V56.0839C28.62 55.5821 29.3514 54.9721 29.9795 54.3274C30.8249 53.4597 31.5102 52.5038 32.037 51.5997C31.9925 51.7794 31.9688 51.9673 31.9688 52.1607C31.9688 53.4433 33.0086 54.4831 34.2913 54.4831H47.8136C49.0962 54.4831 50.136 53.4433 50.136 52.1607C50.136 50.8781 49.0962 49.8383 47.8136 49.8383L34.2913 49.8383C33.6063 49.8383 32.9906 50.1348 32.5655 50.6065C32.7647 50.1935 32.926 49.8055 33.0498 49.459C33.3033 48.7492 32.9334 47.9683 32.2236 47.7148C31.5138 47.4613 30.7329 47.8312 30.4794 48.541C30.1184 49.5517 29.2888 51.1251 28.0246 52.4227C27.9467 52.5026 27.8675 52.5812 27.7871 52.6582V44.3647H31.7647C32.5184 44.3647 33.1294 43.7537 33.1294 43V40.6203C33.4712 40.8181 33.868 40.9313 34.2913 40.9313H53.3565C54.6392 40.9313 55.6789 39.8916 55.6789 38.6089C55.6789 37.3263 54.6392 36.2865 53.3565 36.2865H34.2913C33.868 36.2865 33.4712 36.3997 33.1294 36.5975V36C33.1294 35.2463 32.5184 34.6353 31.7647 34.6353C31.011 34.6353 30.4 35.2463 30.4 36V38.9554C29.9543 38.4863 29.4673 38.0215 28.9433 37.5807C28.5803 37.2753 28.1944 36.9771 27.7871 36.6949V32.4523C27.7871 28.7357 29.6737 25.4597 32.5416 23.5299C32.1849 23.9382 31.9688 24.4724 31.9688 25.0571C31.9688 26.3398 33.0086 27.3796 34.2913 27.3796L72.6045 27.3796C73.8871 27.3796 74.9269 26.3398 74.9269 25.0571C74.9269 23.7745 73.8871 22.7347 72.6045 22.7347L34.2913 22.7347C34.1412 22.7347 33.9944 22.7489 33.8523 22.7761ZM29.134 41.6353H27.7871V40.2042C28.286 40.6732 28.7376 41.1609 29.134 41.6353ZM34.2913 63.3901C33.0086 63.3901 31.9688 64.4298 31.9688 65.7125C31.9688 66.9951 33.0086 68.0349 34.2913 68.0349H43.3061C44.5888 68.0349 45.6286 66.9951 45.6286 65.7125C45.6286 64.4298 44.5888 63.3901 43.3061 63.3901H34.2913Z" fill="#D1E5EE"/>
<path fill-rule="evenodd" clip-rule="evenodd" d="M25.5027 6.30031L28.2356 10.9962L23.3011 21.2601L33.6186 10.9962L30.4466 6H79.1012C83.977 6 87.9296 9.95261 87.9296 14.8284V75.9414C87.9296 80.8171 83.977 84.7698 79.1012 84.7698H65.8123L67.3448 75.747L75.6283 65.3512L70.9948 54.2577L73.9147 37.0663L62.2191 46.8885L62.4664 60.1918L50.8511 66.5893L56.7848 78.8837L52.9804 84.7698H27.7942C22.9184 84.7698 18.9658 80.8171 18.9658 75.9414V56.3204C20.2607 56.9516 21.7061 57.3647 23.2646 57.3647C26.1439 57.3647 28.3915 55.9573 29.9795 54.3274C30.8249 53.4597 31.5102 52.5038 32.037 51.5997C31.9925 51.7794 31.9688 51.9673 31.9688 52.1607C31.9688 53.4433 33.0086 54.4831 34.2913 54.4831H47.8136C49.0962 54.4831 50.136 53.4434 50.136 52.1607C50.136 50.8781 49.0962 49.8383 47.8136 49.8383H34.2913C33.6063 49.8383 32.9906 50.1348 32.5655 50.6065C32.7647 50.1935 32.926 49.8055 33.0498 49.459C33.3033 48.7492 32.9334 47.9683 32.2236 47.7148C31.5138 47.4613 30.7329 47.8312 30.4794 48.541C30.1184 49.5517 29.2888 51.1251 28.0246 52.4227C26.771 53.7094 25.1852 54.6353 23.2646 54.6353C21.7513 54.6353 20.2919 54.0622 18.9658 53.177V50.3647H19.7646C20.5183 50.3647 21.1293 49.7537 21.1293 49C21.1293 48.2463 20.5183 47.6353 19.7646 47.6353H18.9658V38.075C19.803 37.6304 20.7358 37.3647 21.7647 37.3647C23.7187 37.3647 25.5828 38.3203 27.1861 39.6692C27.9277 40.2931 28.584 40.977 29.134 41.6353H25.2647C24.511 41.6353 23.9 42.2463 23.9 43C23.9 43.7537 24.511 44.3647 25.2647 44.3647H31.7647C32.5184 44.3647 33.1294 43.7537 33.1294 43V40.6203C33.4712 40.8181 33.868 40.9313 34.2913 40.9313H53.3565C54.6392 40.9313 55.6789 39.8916 55.6789 38.6089C55.6789 37.3263 54.6392 36.2865 53.3565 36.2865H34.2913C33.868 36.2865 33.4712 36.3997 33.1294 36.5975V36C33.1294 35.2463 32.5184 34.6353 31.7647 34.6353C31.011 34.6353 30.4 35.2463 30.4 36V38.9554C29.9543 38.4863 29.4673 38.0215 28.9433 37.5807C27.08 36.013 24.6107 34.6353 21.7647 34.6353C20.7534 34.6353 19.8201 34.8089 18.9658 35.1048V14.8284C18.9658 10.7452 21.7379 7.30939 25.5027 6.30031ZM34.2913 22.7347C33.0086 22.7347 31.9688 23.7745 31.9688 25.0571C31.9688 26.3398 33.0086 27.3796 34.2913 27.3796L72.6045 27.3796C73.8871 27.3796 74.9269 26.3398 74.9269 25.0571C74.9269 23.7745 73.8871 22.7347 72.6045 22.7347L34.2913 22.7347ZM34.2913 63.3901C33.0086 63.3901 31.9688 64.4298 31.9688 65.7125C31.9688 66.9951 33.0086 68.0349 34.2913 68.0349H43.3061C44.5888 68.0349 45.6286 66.9951 45.6286 65.7125C45.6286 64.4298 44.5888 63.3901 43.3061 63.3901H34.2913Z" fill="#E2F2F9"/>
<path fill-rule="evenodd" clip-rule="evenodd" d="M42.0579 46.2367C42.0579 56.9663 33.3145 65.6643 22.5289 65.6643C11.7434 65.6643 3 56.9663 3 46.2367C3 35.5071 11.7434 26.8091 22.5289 26.8091C33.3145 26.8091 42.0579 35.5071 42.0579 46.2367ZM15.05 37.6726C16.638 36.0427 18.8856 34.6353 21.765 34.6353C24.611 34.6353 27.0802 36.013 28.9436 37.5807C29.4675 38.0215 29.9545 38.4863 30.4003 38.9554V36C30.4003 35.2463 31.0113 34.6353 31.765 34.6353C32.5187 34.6353 33.1297 35.2463 33.1297 36V43C33.1297 43.7537 32.5187 44.3647 31.765 44.3647H25.265C24.5113 44.3647 23.9003 43.7537 23.9003 43C23.9003 42.2463 24.5113 41.6353 25.265 41.6353H29.1342C28.5842 40.977 27.9279 40.2931 27.1864 39.6692C25.5831 38.3203 23.719 37.3647 21.765 37.3647C19.8443 37.3647 18.2586 38.2906 17.005 39.5773C15.7407 40.8749 14.9111 42.4483 14.5502 43.459C14.2967 44.1688 13.5158 44.5387 12.806 44.2852C12.0962 44.0317 11.7263 43.2508 11.9798 42.541C12.4521 41.2183 13.4726 39.2917 15.05 37.6726ZM23.2648 57.3647C26.1441 57.3647 28.3917 55.9573 29.9798 54.3274C31.5572 52.7083 32.5776 50.7817 33.05 49.459C33.3035 48.7492 32.9336 47.9683 32.2238 47.7148C31.514 47.4613 30.7331 47.8312 30.4796 48.541C30.1186 49.5517 29.2891 51.1251 28.0248 52.4227C26.7712 53.7094 25.1855 54.6353 23.2648 54.6353C21.3108 54.6353 19.4467 53.6797 17.8434 52.3308C17.1018 51.7069 16.4456 51.023 15.8955 50.3647H19.7648C20.5185 50.3647 21.1295 49.7537 21.1295 49C21.1295 48.2463 20.5185 47.6353 19.7648 47.6353H13.2648C12.5111 47.6353 11.9001 48.2463 11.9001 49V56C11.9001 56.7537 12.5111 57.3647 13.2648 57.3647C14.0185 57.3647 14.6295 56.7537 14.6295 56V53.0446C15.0753 53.5137 15.5622 53.9785 16.0862 54.4193C17.9496 55.987 20.4188 57.3647 23.2648 57.3647Z" fill="#BDD7E3"/>
</svg>
