<svg width="100" height="100" viewBox="0 0 100 100" fill="none" xmlns="http://www.w3.org/2000/svg">
<path fill-rule="evenodd" clip-rule="evenodd" d="M25.8523 22.7761C27.2674 22.0902 28.8557 21.7056 30.5338 21.7056H78.1223C84.0576 21.7056 88.869 26.517 88.869 32.4523V83.2523C88.869 89.1876 84.0576 93.999 78.1223 93.999H59.9137L62.9073 76.3742L71.1907 65.9784L66.5572 54.8849L69.4772 37.6934L57.7816 47.5157L58.0288 60.819L46.4136 67.2165L52.3472 79.5109L42.983 93.999H30.5338C24.5986 93.999 19.7871 89.1876 19.7871 83.2524V56.0839C20.62 55.5821 21.3514 54.9721 21.9795 54.3274C22.8249 53.4597 23.5102 52.5038 24.037 51.5997C23.9925 51.7794 23.9688 51.9673 23.9688 52.1607C23.9688 53.4433 25.0086 54.4831 26.2913 54.4831H39.8136C41.0962 54.4831 42.136 53.4433 42.136 52.1607C42.136 50.8781 41.0962 49.8383 39.8136 49.8383L26.2913 49.8383C25.6063 49.8383 24.9906 50.1348 24.5655 50.6065C24.7647 50.1935 24.926 49.8055 25.0498 49.459C25.3033 48.7492 24.9334 47.9683 24.2236 47.7148C23.5138 47.4613 22.7329 47.8312 22.4794 48.541C22.1184 49.5517 21.2888 51.1251 20.0246 52.4227C19.9467 52.5026 19.8675 52.5812 19.7871 52.6582V44.3647H23.7647C24.5184 44.3647 25.1294 43.7537 25.1294 43V40.6203C25.4712 40.8181 25.868 40.9313 26.2913 40.9313H45.3565C46.6392 40.9313 47.6789 39.8916 47.6789 38.6089C47.6789 37.3263 46.6392 36.2865 45.3565 36.2865H26.2913C25.868 36.2865 25.4712 36.3997 25.1294 36.5975V36C25.1294 35.2463 24.5184 34.6353 23.7647 34.6353C23.011 34.6353 22.4 35.2463 22.4 36V38.9554C21.9543 38.4863 21.4673 38.0215 20.9433 37.5807C20.5803 37.2753 20.1944 36.9771 19.7871 36.6949V32.4523C19.7871 28.7357 21.6737 25.4597 24.5416 23.5299C24.1849 23.9382 23.9688 24.4724 23.9688 25.0571C23.9688 26.3398 25.0086 27.3796 26.2913 27.3796L64.6045 27.3796C65.8871 27.3796 66.9269 26.3398 66.9269 25.0571C66.9269 23.7745 65.8871 22.7347 64.6045 22.7347L26.2913 22.7347C26.1412 22.7347 25.9944 22.7489 25.8523 22.7761ZM21.134 41.6353H19.7871V40.2042C20.286 40.6732 20.7376 41.1609 21.134 41.6353ZM26.2913 63.3901C25.0086 63.3901 23.9688 64.4298 23.9688 65.7125C23.9688 66.9951 25.0086 68.0349 26.2913 68.0349H35.3061C36.5888 68.0349 37.6286 66.9951 37.6286 65.7125C37.6286 64.4298 36.5888 63.3901 35.3061 63.3901H26.2913Z" fill="#D1E5EE"/>
<path fill-rule="evenodd" clip-rule="evenodd" d="M17.5027 6.30031L20.2356 10.9962L15.3011 21.2601L25.6186 10.9962L22.4466 6H71.1012C75.977 6 79.9296 9.95261 79.9296 14.8284V75.9414C79.9296 80.8171 75.977 84.7698 71.1012 84.7698H57.8123L59.3448 75.747L67.6283 65.3512L62.9948 54.2577L65.9147 37.0663L54.2191 46.8885L54.4664 60.1918L42.8511 66.5893L48.7848 78.8837L44.9804 84.7698H19.7942C14.9184 84.7698 10.9658 80.8171 10.9658 75.9414V14.8284C10.9658 10.7452 13.7379 7.30939 17.5027 6.30031ZM26.2913 22.7347C25.0086 22.7347 23.9688 23.7745 23.9688 25.0571C23.9688 26.3398 25.0086 27.3796 26.2913 27.3796L64.6045 27.3796C65.8871 27.3796 66.9269 26.3398 66.9269 25.0571C66.9269 23.7745 65.8871 22.7347 64.6045 22.7347L26.2913 22.7347ZM26.2913 36.2865C25.0086 36.2865 23.9688 37.3263 23.9688 38.6089C23.9688 39.8916 25.0086 40.9313 26.2913 40.9313H45.3565C46.6392 40.9313 47.6789 39.8916 47.6789 38.6089C47.6789 37.3263 46.6392 36.2865 45.3565 36.2865H26.2913ZM26.2913 49.8383C25.0086 49.8383 23.9688 50.8781 23.9688 52.1607C23.9688 53.4433 25.0086 54.4831 26.2913 54.4831H39.8136C41.0962 54.4831 42.136 53.4434 42.136 52.1607C42.136 50.8781 41.0962 49.8383 39.8136 49.8383H26.2913ZM26.2913 63.3901C25.0086 63.3901 23.9688 64.4298 23.9688 65.7125C23.9688 66.9951 25.0086 68.0349 26.2913 68.0349H35.3061C36.5888 68.0349 37.6286 66.9951 37.6286 65.7125C37.6286 64.4298 36.5888 63.3901 35.3061 63.3901H26.2913Z" fill="#E2F2F9"/>
</svg>
