<svg width="100" height="100" viewBox="0 0 100 100" fill="none" xmlns="http://www.w3.org/2000/svg">
<path fill-rule="evenodd" clip-rule="evenodd" d="M30.3479 14.9277C24.606 14.9277 19.9512 19.5825 19.9512 25.3245V83.6034C19.9512 89.3454 24.606 94.0002 30.3479 94.0002H78.6036C84.3456 94.0002 89.0004 89.3454 89.0004 83.6035V25.3245C89.0004 19.5825 84.3456 14.9277 78.6036 14.9277H30.3479ZM26.3447 22.8836C25.1039 22.8836 24.0979 23.8895 24.0979 25.1304C24.0979 26.3712 25.1039 27.3772 26.3447 27.3772L64.7054 27.3772C65.9463 27.3772 66.9522 26.3713 66.9522 25.1304C66.9522 23.8895 65.9463 22.8836 64.7054 22.8836L26.3447 22.8836ZM26.3447 36.4874C25.1039 36.4874 24.0979 37.4934 24.0979 38.7342C24.0979 39.9751 25.1039 40.981 26.3447 40.981L57.9359 40.981C59.1767 40.981 60.1827 39.9751 60.1827 38.7342C60.1827 37.4934 59.1767 36.4874 57.9359 36.4874L26.3447 36.4874ZM26.3447 50.0913C25.1039 50.0913 24.0979 51.0972 24.0979 52.3381C24.0979 53.579 25.1039 54.5849 26.3447 54.5849H39.8838C41.1247 54.5849 42.1306 53.579 42.1306 52.3381C42.1306 51.0972 41.1247 50.0913 39.8838 50.0913H26.3447ZM48.9098 50.0913C47.6689 50.0913 46.663 51.0972 46.663 52.3381C46.663 53.579 47.6689 54.5849 48.9098 54.5849H55.6793C56.9202 54.5849 57.9261 53.579 57.9261 52.3381C57.9261 51.0972 56.9202 50.0913 55.6793 50.0913H48.9098ZM26.3447 63.6952C25.1039 63.6952 24.0979 64.7011 24.0979 65.942C24.0979 67.1828 25.1039 68.1888 26.3447 68.1888H35.3708C36.6116 68.1888 37.6176 67.1828 37.6176 65.942C37.6176 64.7011 36.6116 63.6952 35.3708 63.6952H26.3447Z" fill="#D1E5EE"/>
<path fill-rule="evenodd" clip-rule="evenodd" d="M19.5409 6C14.8239 6 11 9.82389 11 14.5409V76.5315C11 81.2486 14.8239 85.0725 19.5409 85.0725H71.5083C76.2253 85.0725 80.0492 81.2486 80.0492 76.5315V14.5409C80.0492 9.8239 76.2253 6 71.5082 6H19.5409ZM26.3445 22.8836C25.1036 22.8836 24.0977 23.8895 24.0977 25.1304C24.0977 26.3712 25.1036 27.3772 26.3445 27.3772L64.7051 27.3772C65.946 27.3772 66.9519 26.3713 66.9519 25.1304C66.9519 23.8895 65.946 22.8836 64.7051 22.8836L26.3445 22.8836ZM26.3445 36.4874C25.1036 36.4874 24.0977 37.4934 24.0977 38.7342C24.0977 39.9751 25.1036 40.981 26.3445 40.981L57.9356 40.981C59.1765 40.981 60.1824 39.9751 60.1824 38.7342C60.1824 37.4934 59.1765 36.4874 57.9356 36.4874L26.3445 36.4874ZM26.3445 50.0913C25.1036 50.0913 24.0977 51.0972 24.0977 52.3381C24.0977 53.579 25.1036 54.5849 26.3445 54.5849H39.8835C41.1244 54.5849 42.1303 53.579 42.1303 52.3381C42.1303 51.0972 41.1244 50.0913 39.8835 50.0913H26.3445ZM48.9096 50.0913C47.6687 50.0913 46.6628 51.0972 46.6628 52.3381C46.6628 53.579 47.6687 54.5849 48.9096 54.5849H55.6791C56.92 54.5849 57.9259 53.579 57.9259 52.3381C57.9259 51.0972 56.92 50.0913 55.6791 50.0913H48.9096ZM26.3445 63.6952C25.1036 63.6952 24.0977 64.7011 24.0977 65.942C24.0977 67.1828 25.1036 68.1888 26.3445 68.1888H35.3705C36.6114 68.1888 37.6173 67.1828 37.6173 65.942C37.6173 64.7011 36.6114 63.6952 35.3705 63.6952H26.3445Z" fill="#E2F2F9"/>
</svg>
