<svg width="95" height="29" viewBox="0 0 95 29" fill="none" xmlns="http://www.w3.org/2000/svg">
<mask id="mask0_2771_76730" style="mask-type:luminance" maskUnits="userSpaceOnUse" x="0" y="7" width="24" height="16">
<path fill-rule="evenodd" clip-rule="evenodd" d="M0 7.60352H23.3266V22.1481H0V7.60352Z" fill="white"/>
</mask>
<g mask="url(#mask0_2771_76730)">
<path fill-rule="evenodd" clip-rule="evenodd" d="M19.4157 12.2125C19.4157 11.6972 19.2482 11.2786 18.9126 10.9568C18.5774 10.6349 18.149 10.4735 17.6278 10.4735C16.6592 10.4735 15.8817 10.9014 15.2954 11.7569C14.7083 12.6123 14.238 13.9055 13.8846 15.6348L12.4599 22.1481H8.71598L10.2527 15.1105C10.5505 13.7487 10.6997 12.7742 10.6997 12.1848C10.6997 11.6511 10.5272 11.2326 10.1828 10.9291C9.83814 10.6256 9.42393 10.4735 8.93983 10.4735C7.95234 10.4735 7.17487 10.8924 6.60741 11.7292C6.03887 12.5667 5.5686 13.8317 5.19661 15.5244L3.74358 22.1481H0L2.34661 10.86C2.64471 9.47989 2.84017 8.50503 2.93372 7.9347H6.42579L6.09056 9.83877H6.14625C6.68603 9.066 7.34739 8.50035 8.1296 8.14147C8.9118 7.78295 9.72203 7.60352 10.5599 7.60352C11.4914 7.60352 12.3103 7.85667 13.0183 8.36227C13.7259 8.86858 14.1262 9.51729 14.2198 10.308H14.2755C14.7596 9.3882 15.477 8.70748 16.4266 8.26553C17.3763 7.82431 18.3354 7.60352 19.3039 7.60352C20.0301 7.60352 20.7005 7.77828 21.3153 8.12781C21.9297 8.47734 22.4189 8.95164 22.7822 9.5493C23.1451 10.1473 23.3267 10.796 23.3267 11.4947C23.3267 11.9917 23.2848 12.4793 23.2007 12.9576C23.1174 13.4362 22.9915 14.0615 22.8237 14.8343L21.1755 22.1481H17.4323L18.9407 15.2482C19.257 13.8317 19.4157 12.8195 19.4157 12.2125Z" fill="white"/>
</g>
<mask id="mask1_2771_76730" style="mask-type:luminance" maskUnits="userSpaceOnUse" x="21" y="7" width="20" height="22">
<path fill-rule="evenodd" clip-rule="evenodd" d="M21.7344 7.93359H40.0042V28.2745H21.7344V7.93359Z" fill="white"/>
</mask>
<g mask="url(#mask1_2771_76730)">
<path fill-rule="evenodd" clip-rule="evenodd" d="M30.1151 18.5043H30.1708L35.8977 7.93359H40.0042L30.003 24.7142C29.2583 25.9652 28.4481 26.8714 27.5731 27.4324C26.6969 27.9937 25.6822 28.2746 24.5276 28.2746C23.6522 28.2746 22.7219 28.1455 21.7344 27.888L22.5723 25.0731C23.1492 25.2939 23.6988 25.4039 24.2208 25.4039C24.8352 25.4039 25.3797 25.2108 25.8547 24.8242C26.3297 24.438 26.8746 23.7756 27.489 22.8375L24.9469 7.93359H28.7738L30.1151 18.5043Z" fill="white"/>
</g>
<path fill-rule="evenodd" clip-rule="evenodd" d="M79.9971 2.26689L76.932 8.35091C75.6471 7.32929 73.7526 6.56731 71.7492 6.56731C67.0371 6.56731 65.1112 10.0514 65.1112 12.5017C65.1112 14.3213 66.3095 17.0043 70.5262 17.0043C72.285 17.0043 73.7093 16.7551 75.0258 16.2753L72.1612 22.3112C70.5601 22.623 70.0276 22.8283 68.675 22.8617C61.1482 23.0789 58.1016 18.5182 58.1074 13.8509C58.1074 7.67487 63.6713 0.171875 72.879 0.171875C76.7416 0.171875 79.9971 2.26689 79.9971 2.26689Z" fill="white"/>
<path fill-rule="evenodd" clip-rule="evenodd" d="M87.7715 6.77734L85.0005 13.2253H87.8549L87.7715 6.77734ZM94.0074 0.00585938L94.9731 22.1488H87.8178L87.8117 18.3618H82.9292L81.332 22.1488H73.5635L83.6473 0.00585938H94.0074Z" fill="white"/>
<path fill-rule="evenodd" clip-rule="evenodd" d="M47.1688 12.9043L46.209 16.5351H48.6673C49.6206 16.5351 50.9306 16.0641 51.2556 14.877C51.5774 13.6933 50.658 12.9043 49.6923 12.9043H47.1688ZM50.1193 8.99078C50.8443 8.99078 52.1383 8.80127 52.4604 7.4064C52.8135 5.87991 51.5996 5.83747 51.0176 5.83747L48.9309 5.82812L48.2065 8.99078H50.1193ZM53.5875 0.00527409C57.1352 0.0264903 59.1444 1.92912 59.1444 4.67608C59.1444 7.20872 57.0238 9.45368 54.6987 10.6069C57.0923 11.4757 57.2961 13.6077 57.2961 15.1098C57.2961 18.7496 53.5995 22.1482 48.7974 22.1482H38.3296L44.1624 0.00527409C44.1624 0.00527409 50.7014 -0.00659261 53.5875 0.00527409Z" fill="white"/>
</svg>
